{
.appVersion = "1269";
DisplayStrings = (
y,
"ABC\012abc"
);
copyright = "Copyright © 2015 by Micah Stupak-Hahn. All rights reserved.";
customParameters = (
{
name = vendorID;
value = Bits;
},
{
name = glyphOrder;
value = (
.notdef,
uni0000,
uni000D,
space
);
},
{
name = note;
value = ".orig glyphs are the 100% versions; the others are 90% of .orig";
},
{
name = Axes;
value = (
{
Name = Weight;
Tag = wght;
},
{
Name = Stroke;
Tag = stro;
}
);
}
);
date = "2019-10-14 14:44:41 +0000";
designer = "Micah Stupak-Hahn";
designerURL = "http://benthic.cc";
disablesNiceNames = 1;
familyName = Russolo;
featurePrefixes = (
{
automatic = 1;
code = "languagesystem DFLT dflt;\012\012languagesystem latn dflt;\012languagesystem latn ROM;\012languagesystem latn MOL;\012languagesystem latn KAZ;\012languagesystem latn TAT;\012languagesystem latn TRK;\012languagesystem latn CRT;\012languagesystem latn AZE;\012";
name = Languagesystems;
}
);
features = (
{
automatic = 1;
code = "feature locl;\012feature sups;\012feature numr;\012feature dnom;\012feature frac;\012feature ordn;\012feature ss02;\012";
name = aalt;
},
{
automatic = 1;
code = "lookup ccmp_Other_1 {\012	@CombiningTopAccents = [acutecomb brevecomb caroncomb circumflexcomb commaturnedabovecomb dieresiscomb dotaccentcomb gravecomb hungarumlautcomb macroncomb ringcomb tildecomb];\012	@CombiningNonTopAccents = [cedillacomb ogonekcomb slashlongcomb slashshortcomb strokelongcomb strokeshortcomb];\012	sub [i j]' @CombiningTopAccents by [idotless jdotless];\012	sub [i j]' @CombiningNonTopAccents @CombiningTopAccents by [idotless jdotless];\012} ccmp_Other_1;\012";
name = ccmp;
},
{
automatic = 1;

glyphs = (
{
glyphname = .notdef;
lastChange = "2019-10-14 18:55:54 +0000";
layers = (
{
layerId = "EA94BB3F-1054-4F03-AAB6-69C3B81B3CC3";
paths = (
{
closed = 1;
nodes = (
"1100 -354 LINE",
"1100 1410 LINE",
"100 1410 LINE",
"100 -354 LINE"
);
},
{
closed = 1;
nodes = (
"212 1298 LINE",
"988 1298 LINE",
"988 -242 LINE",
"212 -242 LINE"
);
}
);
width = 1200;
},
{
layerId = "1A84AFAC-8532-492C-A52A-D2ACD869B7F8";
width = 600;
},
{
layerId = "16E03120-9D89-4B3A-B1E3-633A6E865927";
width = 600;
}
);
note = .notdef;
unicode = 007F;
},
{
glyphname = A;
lastChange = "2019-10-14 19:45:46 +0000";
layers = (
{
anchors = (
{
name = bottom;
position = "{626, 0}";
},
{
name = ogonek;
position = "{1186, 20}";
},
{
name = top;
position = "{650, 1430}";
}
);
background = {
paths = (
{
closed = 1;
nodes = (
"-6 36 LINE",
"-6 0 LINE",
"444 0 LINE",
"444 36 LINE",
"378 36 LINE SMOOTH",
"276 36 OFFCURVE",
"234 54 OFFCURVE",
"234 98 CURVE SMOOTH",
"234 112 OFFCURVE",
"244 150 OFFCURVE",
"260 196 CURVE SMOOTH",
"358 468 LINE",
"846 468 LINE",
"1010 36 LINE",
"798 36 LINE",
"798 0 LINE",
"1422 0 LINE",
"1422 36 LINE",
"1240 36 LINE",
"698 1452 LINE",
"672 1452 LINE",
"220 200 LINE SMOOTH",
"170 56 OFFCURVE",
"150 36 OFFCURVE",
"62 36 CURVE SMOOTH"
);
},
{
closed = 1;
nodes = (
"370 502 LINE",
"594 1138 LINE",
"834 502 LINE"
);
}
);
};
layerId = "EA94BB3F-1054-4F03-AAB6-69C3B81B3CC3";
paths = (
{
closed = 1;
nodes = (
"82 0 LINE",
"566 1196 LINE",
"538 1197 LINE",
"1016 0 LINE",
"1254 0 LINE",
"650 1486 LINE",
"48 0 LINE"
);
},
{
closed = 1;
nodes = (
"840 466 LINE",
"826 502 LINE",
"275 502 LINE",
"260 466 LINE"
);
}
);
width = 1250;
},
{
anchors = (
{
name = bottom;
position = "{657, -80}";
},
{
name = ogonek;
position = "{1217, -60}";
},
{
name = top;
position = "{681, 1350}";
}
);
layerId = "16E03120-9D89-4B3A-B1E3-633A6E865927";
paths = (
{
closed = 1;
nodes = (
"179 0 LINE",
"661 1072 LINE",
"531 1012 LINE",
"983 0 LINE",
"1347 0 LINE",
"681 1500 LINE",
"20 0 LINE"
);
},
{
closed = 1;
nodes = (
"950 391 LINE",
"924 457 LINE",
"260 457 LINE",
"232 391 LINE"
);
}
);
width = 1318;
},
{
anchors = (
{
name = bottom;
position = "{625, 0}";
},
{
name = ogonek;
position = "{1125, 10}";
},
{
name = top;
position = "{625, 1430}";
}
);
background = {
paths = (
{
closed = 1;
nodes = (
"61 0 LINE",
"541 1186 LINE",
"618 1377 LINE",
"1167 0 LINE",
"1252 0 LINE",
"650 1482 LINE",
"50 0 LINE"
);
},
{
closed = 1;
nodes = (
"835 476 LINE",
"828 492 LINE",
"254 492 LINE",
"248 476 LINE"
);
}
);
};
guideLines = (
{
angle = 67.9658;
position = "{301, 593}";
}
);
layerId = "1A84AFAC-8532-492C-A52A-D2ACD869B7F8";
paths = (
{
closed = 1;
nodes = (
"61 0 LINE",
"624 1391 LINE",
"614 1386 LINE",
"1167 0 LINE",
"1252 0 LINE",
"650 1482 LINE",
"50 0 LINE"
);
},
{
closed = 1;
nodes = (
"1019 466 LINE",
"1008 492 LINE",
"254 492 LINE",
"244 466 LINE"
);
}
);
width = 1250;
}
);
leftKerningGroup = A;
note = A;
rightKerningGroup = A;
unicode = 0041;
},
{
glyphname = Adieresis;
lastChange = "2019-10-14 18:55:54 +0000";
layers = (
{
background = {
paths = (
{
closed = 1;
nodes = (
"-6 34 LINE",
"-6 0 LINE",
"414 0 LINE",
"414 34 LINE",
"352 34 LINE SMOOTH",
"258 34 OFFCURVE",
"218 50 OFFCURVE",
"218 92 CURVE SMOOTH",
"218 104 OFFCURVE",
"228 140 OFFCURVE",
"242 182 CURVE SMOOTH",
"334 436 LINE",
"790 436 LINE",
"942 34 LINE",
"744 34 LINE",
"744 0 LINE",
"1326 0 LINE",
"1326 34 LINE",
"1156 34 LINE",
"652 1354 LINE",
"626 1354 LINE",
"206 186 LINE SMOOTH",
"158 52 OFFCURVE",
"140 34 OFFCURVE",
"58 34 CURVE SMOOTH"
);
},
{
closed = 1;
nodes = (
"346 468 LINE",
"554 1062 LINE",
"778 468 LINE"
);
},
{
closed = 1;
nodes = (
"772 1698 OFFCURVE",
"728 1656 OFFCURVE",
"728 1602 CURVE SMOOTH",
"728 1550 OFFCURVE",
"772 1506 OFFCURVE",
"824 1506 CURVE SMOOTH",
"876 1506 OFFCURVE",
"920 1550 OFFCURVE",
"920 1602 CURVE SMOOTH",
"920 1654 OFFCURVE",
"876 1698 OFFCURVE",
"826 1698 CURVE SMOOTH"
);
},
{
closed = 1;
nodes = (
"396 1698 OFFCURVE",
"352 1656 OFFCURVE",
"352 1602 CURVE SMOOTH",
"352 1550 OFFCURVE",
"396 1506 OFFCURVE",
"448 1506 CURVE SMOOTH",
"500 1506 OFFCURVE",
"544 1550 OFFCURVE",
"544 1602 CURVE SMOOTH",
"544 1654 OFFCURVE",
"500 1698 OFFCURVE",
"450 1698 CURVE SMOOTH"
);
}
);
};
components = (
{
name = A;
},
{
name = dieresiscomb;
transform = "{1, 0, 0, 1, 150, 516}";
}
);
layerId = "EA94BB3F-1054-4F03-AAB6-69C3B81B3CC3";
width = 1250;
},
{
layerId = "1A84AFAC-8532-492C-A52A-D2ACD869B7F8";
width = 600;
},
{
layerId = "16E03120-9D89-4B3A-B1E3-633A6E865927";
width = 600;
}
);
leftKerningGroup = A;
note = Adieresis;
rightKerningGroup = A;
unicode = 00C4;
},
{
glyphname = Aring;
lastChange = "2019-10-14 18:55:54 +0000";
layers = (
{
background = {
paths = (
{
closed = 1;
nodes = (
"-6 34 LINE",
"-6 0 LINE",
"414 0 LINE",
"414 34 LINE",
"352 34 LINE SMOOTH",
"258 34 OFFCURVE",
"218 50 OFFCURVE",
"218 92 CURVE SMOOTH",
"218 104 OFFCURVE",
"228 140 OFFCURVE",
"242 182 CURVE SMOOTH",
"334 436 LINE",
"790 436 LINE",
"942 34 LINE",
"744 34 LINE",
"744 0 LINE",
"1326 0 LINE",
"1326 34 LINE",
"1156 34 LINE",
"652 1354 LINE",
"626 1354 LINE",
"206 186 LINE SMOOTH",
"158 52 OFFCURVE",
"140 34 OFFCURVE",
"58 34 CURVE SMOOTH"
);
},
{
closed = 1;
nodes = (
"346 468 LINE",
"554 1062 LINE",
"778 468 LINE"
);
},
{
closed = 1;
nodes = (
"538 1812 OFFCURVE",
"454 1730 OFFCURVE",
"454 1628 CURVE SMOOTH",
"454 1524 OFFCURVE",
"538 1440 OFFCURVE",
"640 1440 CURVE SMOOTH",
"742 1440 OFFCURVE",
"826 1524 OFFCURVE",
"826 1626 CURVE SMOOTH",
"826 1726 OFFCURVE",
"742 1812 OFFCURVE",
"642 1812 CURVE SMOOTH"
);
},
{
closed = 1;
nodes = (
"714 1762 OFFCURVE",
"776 1700 OFFCURVE",
"776 1626 CURVE SMOOTH",
"776 1552 OFFCURVE",
"714 1490 OFFCURVE",
"640 1490 CURVE SMOOTH",
"564 1490 OFFCURVE",
"504 1552 OFFCURVE",
"504 1628 CURVE SMOOTH",
"504 1702 OFFCURVE",
"566 1762 OFFCURVE",
"642 1762 CURVE SMOOTH"
);
}
);
};
components = (
{
name = A;
},
{
name = ringcomb;
transform = "{1, 0, 0, 1, 150, 516}";
}
);
layerId = "EA94BB3F-1054-4F03-AAB6-69C3B81B3CC3";
width = 1250;
},
{
layerId = "1A84AFAC-8532-492C-A52A-D2ACD869B7F8";
width = 600;
},
{
layerId = "16E03120-9D89-4B3A-B1E3-633A6E865927";
width = 600;
}
);
leftKerningGroup = A;
note = Aring;
rightKerningGroup = A;
unicode = 00C5;
},
{
glyphname = AE;
lastChange = "2019-10-14 18:55:54 +0000";
layers = (
{
anchors = (
{
name = bottom;
position = "{864, 0}";
},
{
name = top;
position = "{864, 1430}";
}
);
background = {
paths = (
{
closed = 1;
nodes = (
"-54 0 LINE",
"50 2 OFFCURVE",
"128 4 OFFCURVE",
"182 4 CURVE SMOOTH",
"232 4 OFFCURVE",
"312 2 OFFCURVE",
"414 0 CURVE",
"414 34 LINE",
"352 34 LINE SMOOTH",
"266 34 OFFCURVE",
"228 48 OFFCURVE",
"228 80 CURVE SMOOTH",
"228 104 OFFCURVE",
"252 162 OFFCURVE",
"288 230 CURVE SMOOTH",
"398 436 LINE",
"846 436 LINE",
"846 34 LINE",
"628 34 LINE",
"628 0 LINE",
"1712 0 LINE",
"1712 394 LINE",
"1678 394 LINE",
"1678 374 LINE SMOOTH",
"1678 274 OFFCURVE",
"1654 184 OFFCURVE",
"1614 142 CURVE SMOOTH",
"1542 62 OFFCURVE",
"1436 34 OFFCURVE",
"1214 34 CURVE SMOOTH",
"1040 34 LINE",
"1040 660 LINE",
"1106 660 LINE SMOOTH",
"1240 660 OFFCURVE",
"1296 644 OFFCURVE",
"1322 598 CURVE",
"1338 572 OFFCURVE",
"1350 510 OFFCURVE",
"1350 456 CURVE SMOOTH",
"1350 432 LINE",
"1382 432 LINE",
"1382 936 LINE",
"1350 936 LINE",
"1350 912 LINE SMOOTH",
"1350 880 OFFCURVE",
"1340 814 OFFCURVE",
"1332 792 CURVE SMOOTH",
"1306 720 OFFCURVE",
"1246 694 OFFCURVE",
"1108 694 CURVE SMOOTH",
"1040 694 LINE",
"1040 1300 LINE",
"1220 1300 LINE SMOOTH",
"1376 1300 OFFCURVE",
"1474 1276 OFFCURVE",
"1526 1222 CURVE",
"1564 1186 OFFCURVE",
"1602 1088 OFFCURVE",
"1602 1026 CURVE SMOOTH",
"1602 1008 LINE",
"1636 1008 LINE",
"1604 1334 LINE",
"612 1334 LINE",
"612 1300 LINE",
"822 1300 LINE",
"240 210 LINE SMOOTH",
"220 172 OFFCURVE",
"184 118 OFFCURVE",
"160 90 CURVE SMOOTH",
"128 52 OFFCURVE",
"80 34 OFFCURVE",
"12 34 CURVE SMOOTH",
"-54 34 LINE"
);
},
{
closed = 1;
nodes = (
"846 1276 LINE",
"846 470 LINE",
"414 470 LINE"
);
}
);
};
layerId = "EA94BB3F-1054-4F03-AAB6-69C3B81B3CC3";
paths = (
{
closed = 1;
nodes = (
"10 0 LINE",
"870 1430 LINE",
"834 1430 LINE",
"-26 0 LINE"
);
},
{
closed = 1;
nodes = (
"958 466 LINE",
"958 502 LINE",
"284 502 LINE",
"284 466 LINE"
);
},
{
closed = 1;
nodes = (
"1684 0 LINE",
"1684 36 LINE",
"947 36 LINE",
"1040 13 LINE",
"1040 723 LINE",
"947 710 LINE",
"1684 710 LINE",
"1684 746 LINE",
"947 746 LINE",
"1040 733 LINE",
"1040 1417 LINE",
"947 1394 LINE",
"1684 1394 LINE",
"1684 1430 LINE",
"834 1430 LINE",
"834 0 LINE"
);
}
);
width = 1726;
},
{
layerId = "1A84AFAC-8532-492C-A52A-D2ACD869B7F8";
width = 600;
},
{
layerId = "16E03120-9D89-4B3A-B1E3-633A6E865927";
width = 600;
}
);
leftKerningGroup = A;
note = AE;
rightKerningGroup = E;
unicode = 00C6;
},
{
glyphname = B;
lastChange = "2019-10-14 19:37:16 +0000";
layers = (
{
anchors = (
{
name = bottom;
position = "{603, 0}";
},
{
name = top;
position = "{603, 1430}";
}
);
background = {
paths = (
{
closed = 1;
nodes = (
"36 1430 LINE",
"36 1394 LINE",
"244 1394 LINE",
"244 36 LINE",
"36 36 LINE",
"36 0 LINE",
"664 0 LINE SMOOTH",
"910 0 OFFCURVE",
"958 10 OFFCURVE",
"1064 82 CURVE SMOOTH",
"1168 154 OFFCURVE",
"1228 266 OFFCURVE",
"1228 388 CURVE SMOOTH",
"1228 534 OFFCURVE",
"1150 650 OFFCURVE",
"1006 708 CURVE SMOOTH",
"950 732 OFFCURVE",
"904 742 OFFCURVE",
"794 758 CURVE",
"904 766 OFFCURVE",
"954 776 OFFCURVE",
"1012 804 CURVE SMOOTH",
"1126 858 OFFCURVE",
"1194 962 OFFCURVE",
"1194 1084 CURVE SMOOTH",
"1194 1250 OFFCURVE",
"1082 1366 OFFCURVE",
"886 1408 CURVE SMOOTH",
"796 1428 OFFCURVE",
"752 1430 OFFCURVE",
"550 1430 CURVE SMOOTH"
);
},
{
closed = 1;
nodes = (
"452 1394 LINE",
"496 1394 LINE SMOOTH",
"686 1394 OFFCURVE",
"762 1378 OFFCURVE",
"846 1320 CURVE SMOOTH",
"934 1262 OFFCURVE",
"982 1172 OFFCURVE",
"982 1062 CURVE SMOOTH",
"982 964 OFFCURVE",
"948 886 OFFCURVE",
"886 838 CURVE SMOOTH",
"822 788 OFFCURVE",
"742 776 OFFCURVE",
"490 776 CURVE SMOOTH",
"452 776 LINE"
);
},
{
closed = 1;
nodes = (
"452 746 LINE",
"488 746 LINE SMOOTH",
"614 746 OFFCURVE",
"728 732 OFFCURVE",
"784 710 CURVE SMOOTH",
"928 652 OFFCURVE",
"996 550 OFFCURVE",
"996 396 CURVE SMOOTH",
"996 272 OFFCURVE",
"944 156 OFFCURVE",
"860 98 CURVE SMOOTH",
"794 52 OFFCURVE",
"708 36 OFFCURVE",
"512 36 CURVE SMOOTH",
"452 36 LINE"
);
}
);
};
layerId = "EA94BB3F-1054-4F03-AAB6-69C3B81B3CC3";
paths = (
{
closed = 1;
nodes = (
"516 0 LINE SMOOTH",
"860 0 OFFCURVE",
"1082 80 OFFCURVE",
"1082 406 CURVE SMOOTH",
"1082 670 OFFCURVE",
"936 732 OFFCURVE",
"768 756 CURVE",
"768 760 LINE",
"906 798 OFFCURVE",
"1020 856 OFFCURVE",
"1020 1054 CURVE SMOOTH",
"1020 1312 OFFCURVE",
"826 1430 OFFCURVE",
"516 1430 CURVE SMOOTH",
"124 1430 LINE",
"124 0 LINE"
);
},
{
closed = 1;
nodes = (
"330 748 LINE",
"237 740 LINE",
"566 740 LINE SMOOTH",
"780 740 OFFCURVE",
"864 570 OFFCURVE",
"864 406 CURVE SMOOTH",
"864 208 OFFCURVE",
"740 36 OFFCURVE",
"516 36 CURVE SMOOTH",
"237 36 LINE",
"330 13 LINE"
);
},
{
closed = 1;
nodes = (
"330 1417 LINE",
"237 1394 LINE",
"516 1394 LINE SMOOTH",
"772 1394 OFFCURVE",
"802 1154 OFFCURVE",
"802 1034 CURVE SMOOTH",
"802 888 OFFCURVE",
"758 776 OFFCURVE",
"516 776 CURVE SMOOTH",
"237 776 LINE",
"330 767 LINE"
);
}
);
width = 1206;
},
{
anchors = (
{
name = bottom;
position = "{424, 0}";
},
{
name = top;
position = "{424, 1430}";
}
);
layerId = "1A84AFAC-8532-492C-A52A-D2ACD869B7F8";
paths = (
{
closed = 1;
nodes = (
"327 0 LINE SMOOTH",
"597 0 OFFCURVE",
"773 152 OFFCURVE",
"773 386 CURVE SMOOTH",
"773 587 OFFCURVE",
"645 747 OFFCURVE",
"465 762 CURVE",
"466 750 LINE",
"613 782 OFFCURVE",
"731 909 OFFCURVE",
"731 1074 CURVE SMOOTH",
"731 1285 OFFCURVE",
"575 1430 OFFCURVE",
"347 1430 CURVE SMOOTH",
"75 1430 LINE",
"75 0 LINE"
);
},
{
closed = 1;
nodes = (
"135 755 LINE",
"90 747 LINE",
"357 747 LINE SMOOTH",
"559 747 OFFCURVE",
"705 615 OFFCURVE",
"705 401 CURVE SMOOTH",
"705 169 OFFCURVE",
"523 26 OFFCURVE",
"227 26 CURVE SMOOTH",
"116 26 LINE",
"135 10 LINE"
);
},
{
closed = 1;
nodes = (
"135 1420 LINE",
"106 1404 LINE",
"267 1404 LINE SMOOTH",
"527 1404 OFFCURVE",
"665 1286 OFFCURVE",
"665 1064 CURVE SMOOTH",
"665 885 OFFCURVE",
"518 768 OFFCURVE",
"347 768 CURVE SMOOTH",
"90 768 LINE",
"135 761 LINE"
);
}
);
width = 848;
},
{
anchors = (
{
name = bottom;
position = "{684, 0}";
},
{
name = top;
position = "{684, 1430}";
}
);
layerId = "16E03120-9D89-4B3A-B1E3-633A6E865927";
paths = (
{
closed = 1;
nodes = (
"597 0 LINE SMOOTH",
"1030 0 OFFCURVE",
"1228 121 OFFCURVE",
"1228 415 CURVE SMOOTH",
"1228 618 OFFCURVE",
"1134 725 OFFCURVE",
"914 769 CURVE",
"914 767 LINE",
"1096 827 OFFCURVE",
"1166 912 OFFCURVE",
"1166 1059 CURVE SMOOTH",
"1166 1315 OFFCURVE",
"955 1444 OFFCURVE",
"597 1444 CURVE SMOOTH",
"140 1444 LINE",
"140 0 LINE"
);
},
{
closed = 1;
nodes = (
"476 757 LINE",
"364 732 LINE",
"647 732 LINE SMOOTH",
"807 732 OFFCURVE",
"880 583 OFFCURVE",
"880 415 CURVE SMOOTH",
"880 204 OFFCURVE",
"764 66 OFFCURVE",
"597 66 CURVE SMOOTH",
"183 66 LINE",
"476 14 LINE"
);
},
{
closed = 1;
nodes = (
"476 1420 LINE",
"183 1378 LINE",
"597 1378 LINE SMOOTH",
"790 1378 OFFCURVE",
"818 1166 OFFCURVE",
"818 1039 CURVE SMOOTH",
"818 862 OFFCURVE",
"763 798 OFFCURVE",
"597 798 CURVE SMOOTH",
"402 798 LINE",
"476 773 LINE"
);
}
);
width = 1368;
}
);
leftKerningGroup = H;
note = B;
rightKerningGroup = B;
unicode = 0042;
},
{
glyphname = C;
lastChange = "2019-10-14 19:39:29 +0000";
layers = (
{
anchors = (
{
name = bottom;
position = "{780, 0}";
},
{
name = top;
position = "{784, 1430}";
}
);
background = {
paths = (
{
closed = 1;
nodes = (
"964 -26 OFFCURVE",
"1140 42 OFFCURVE",
"1270 182 CURVE SMOOTH",
"1308 224 OFFCURVE",
"1342 268 OFFCURVE",
"1370 318 CURVE",
"1190 318 LINE",
"1110 122 OFFCURVE",
"966 4 OFFCURVE",
"784 4 CURVE SMOOTH",
"498 4 OFFCURVE",
"308 288 OFFCURVE",
"308 712 CURVE SMOOTH",
"308 1142 OFFCURVE",
"498 1430 OFFCURVE",
"784 1430 CURVE SMOOTH",
"964 1430 OFFCURVE",
"1108 1314 OFFCURVE",
"1186 1118 CURVE",
"1364 1118 LINE",
"1338 1166 OFFCURVE",
"1306 1208 OFFCURVE",
"1270 1244 CURVE SMOOTH",
"1146 1374 OFFCURVE",
"956 1460 OFFCURVE",
"784 1460 CURVE SMOOTH",
"610 1460 OFFCURVE",
"420 1370 OFFCURVE",
"298 1244 CURVE SMOOTH",
"176 1118 OFFCURVE",
"96 930 OFFCURVE",
"96 712 CURVE SMOOTH",
"96 508 OFFCURVE",
"166 320 OFFCURVE",
"298 182 CURVE SMOOTH",
"428 44 OFFCURVE",
"602 -26 OFFCURVE",
"784 -26 CURVE SMOOTH"
);
}
);
};
layerId = "EA94BB3F-1054-4F03-AAB6-69C3B81B3CC3";
paths = (
{
closed = 1;
nodes = (
"1034 -26 OFFCURVE",
"1250 106 OFFCURVE",
"1370 318 CURVE",
"1190 318 LINE",
"1109 120 OFFCURVE",
"965 4 OFFCURVE",
"783 4 CURVE SMOOTH",
"498 4 OFFCURVE",
"308 288 OFFCURVE",
"308 715 CURVE SMOOTH",
"308 1141 OFFCURVE",
"498 1430 OFFCURVE",
"784 1430 CURVE SMOOTH",
"964 1430 OFFCURVE",
"1108 1314 OFFCURVE",
"1186 1118 CURVE",
"1364 1118 LINE",
"1259 1312 OFFCURVE",
"1013 1460 OFFCURVE",
"782 1460 CURVE SMOOTH",
"401 1460 OFFCURVE",
"96 1117 OFFCURVE",
"96 718 CURVE SMOOTH",
"96 300 OFFCURVE",
"382 -26 OFFCURVE",
"789 -26 CURVE SMOOTH"
);
}
);
width = 1414;
},
{
anchors = (
{
name = bottom;
position = "{707, 0}";
},
{
name = top;
position = "{707, 1430}";
}
);
layerId = "1A84AFAC-8532-492C-A52A-D2ACD869B7F8";
paths = (
{
closed = 1;
nodes = (
"1024 -6 OFFCURVE",
"1180 98 OFFCURVE",
"1298 308 CURVE",
"1238 308 LINE",
"1121 90 OFFCURVE",
"955 24 OFFCURVE",
"789 24 CURVE SMOOTH",
"440 24 OFFCURVE",
"204 315 OFFCURVE",
"204 718 CURVE SMOOTH",
"204 1131 OFFCURVE",
"445 1410 OFFCURVE",
"782 1410 CURVE SMOOTH",
"947 1410 OFFCURVE",
"1133 1343 OFFCURVE",
"1240 1128 CURVE",
"1295 1128 LINE",
"1189 1350 OFFCURVE",
"1007 1440 OFFCURVE",
"784 1440 CURVE SMOOTH",
"391 1440 OFFCURVE",
"128 1154 OFFCURVE",
"128 715 CURVE SMOOTH",
"128 254 OFFCURVE",
"401 -6 OFFCURVE",
"783 -6 CURVE SMOOTH"
);
}
);
width = 1414;
},
{
anchors = (
{
name = bottom;
position = "{780, 0}";
},
{
name = top;
position = "{784, 1430}";
}
);
layerId = "16E03120-9D89-4B3A-B1E3-633A6E865927";
paths = (
{
closed = 1;
nodes = (
"1072 -41 OFFCURVE",
"1324 109 OFFCURVE",
"1439 333 CURVE",
"1134 343 LINE",
"1050 134 OFFCURVE",
"931 29 OFFCURVE",
"783 29 CURVE SMOOTH",
"542 29 OFFCURVE",
"373 309 OFFCURVE",
"373 715 CURVE SMOOTH",
"373 1126 OFFCURVE",
"545 1405 OFFCURVE",
"784 1405 CURVE SMOOTH",
"931 1405 OFFCURVE",
"1049 1300 OFFCURVE",
"1129 1093 CURVE",
"1432 1103 LINE",
"1346 1293 OFFCURVE",
"1071 1475 OFFCURVE",
"782 1475 CURVE SMOOTH",
"386 1475 OFFCURVE",
"31 1155 OFFCURVE",
"31 718 CURVE SMOOTH",
"31 302 OFFCURVE",
"362 -41 OFFCURVE",
"789 -41 CURVE SMOOTH"
);
}
);
width = 1414;
}
);
leftKerningGroup = O;
note = C;
rightKerningGroup = C;
unicode = 0043;
},
{
glyphname = Ccedilla;
lastChange = "2019-10-14 18:55:54 +0000";
layers = (
{
background = {
paths = (
{
closed = 1;
nodes = (
"1170 22 LINE",
"1166 110 OFFCURVE",
"1164 188 OFFCURVE",
"1164 224 CURVE SMOOTH",
"1164 294 OFFCURVE",
"1166 364 OFFCURVE",
"1170 476 CURVE",
"1138 476 LINE",
"1136 372 OFFCURVE",
"1120 308 OFFCURVE",
"1084 242 CURVE SMOOTH",
"1002 96 OFFCURVE",
"852 6 OFFCURVE",
"690 6 CURVE SMOOTH",
"432 6 OFFCURVE",
"296 224 OFFCURVE",
"296 640 CURVE SMOOTH",
"296 844 OFFCURVE",
"332 1034 OFFCURVE",
"394 1148 CURVE SMOOTH",
"458 1266 OFFCURVE",
"558 1326 OFFCURVE",
"694 1326 CURVE SMOOTH",
"834 1326 OFFCURVE",
"954 1264 OFFCURVE",
"1048 1146 CURVE SMOOTH",
"1108 1066 OFFCURVE",
"1130 1006 OFFCURVE",
"1138 896 CURVE",
"1170 896 LINE",
"1170 926 LINE",
"1164 1152 LINE",
"1164 1188 OFFCURVE",
"1166 1224 OFFCURVE",
"1170 1300 CURVE",
"1138 1300 LINE",
"1130 1244 OFFCURVE",
"1112 1220 OFFCURVE",
"1076 1220 CURVE SMOOTH",
"1054 1220 OFFCURVE",
"1040 1228 OFFCURVE",
"980 1266 CURVE SMOOTH",
"886 1328 OFFCURVE",
"800 1354 OFFCURVE",
"692 1354 CURVE SMOOTH",
"524 1354 OFFCURVE",
"360 1272 OFFCURVE",
"238 1124 CURVE SMOOTH",
"136 1002 OFFCURVE",
"74 820 OFFCURVE",
"74 642 CURVE SMOOTH",
"74 280 OFFCURVE",
"332 -8 OFFCURVE",
"670 -22 CURVE",
"560 -216 LINE",
"576 -230 LINE",
"612 -208 OFFCURVE",
"622 -204 OFFCURVE",
"648 -204 CURVE SMOOTH",
"706 -204 OFFCURVE",
"746 -240 OFFCURVE",
"746 -290 CURVE SMOOTH",
"746 -348 OFFCURVE",
"698 -392 OFFCURVE",
"632 -392 CURVE SMOOTH",
"584 -392 OFFCURVE",
"526 -380 OFFCURVE",
"488 -360 CURVE",
"476 -388 LINE",
"536 -416 OFFCURVE",
"600 -432 OFFCURVE",
"662 -432 CURVE SMOOTH",
"784 -432 OFFCURVE",
"876 -372 OFFCURVE",
"876 -290 CURVE SMOOTH",
"876 -218 OFFCURVE",
"812 -168 OFFCURVE",
"720 -168 CURVE SMOOTH",
"682 -168 OFFCURVE",
"654 -174 OFFCURVE",
"610 -192 CURVE",
"708 -22 LINE",
"826 -16 OFFCURVE",
"892 8 OFFCURVE",
"978 72 CURVE SMOOTH",
"1028 108 OFFCURVE",
"1042 116 OFFCURVE",
"1068 116 CURVE SMOOTH",
"1104 116 OFFCURVE",
"1134 78 OFFCURVE",
"1138 22 CURVE"
);
}
);
};
components = (
{
name = C;
},
{
name = cedillacomb;
transform = "{1, 0, 0, 1, 230, 0}";
}
);
layerId = "EA94BB3F-1054-4F03-AAB6-69C3B81B3CC3";
width = 1414;
},
{
layerId = "1A84AFAC-8532-492C-A52A-D2ACD869B7F8";
width = 600;
},
{
layerId = "16E03120-9D89-4B3A-B1E3-633A6E865927";
width = 600;
}
);
leftKerningGroup = O;
note = Ccedilla;
rightKerningGroup = C;
unicode = 00C7;
},
{
glyphname = D;
lastChange = "2019-10-14 18:55:54 +0000";
layers = (
{
anchors = (
{
name = bottom;
position = "{725, 0}";
},
{
name = center;
position = "{239, 715}";
},
{
name = top;
position = "{725, 1430}";
}
);
background = {
paths = (
{
closed = 1;
nodes = (
"508 0 LINE SMOOTH",
"846 0 OFFCURVE",
"988 54 OFFCURVE",
"1094 134 CURVE SMOOTH",
"1260 260 OFFCURVE",
"1344 459 OFFCURVE",
"1344 713 CURVE SMOOTH",
"1344 843 OFFCURVE",
"1322 956 OFFCURVE",
"1280 1054 CURVE SMOOTH",
"1196 1250 OFFCURVE",
"1038 1361 OFFCURVE",
"876 1400 CURVE SMOOTH",
"792 1420 OFFCURVE",
"676 1430 OFFCURVE",
"446 1430 CURVE SMOOTH",
"124 1430 LINE",
"124 0 LINE"
);
},
{
closed = 1;
nodes = (
"338 1417 LINE",
"245 1394 LINE",
"452 1394 LINE SMOOTH",
"975 1394 OFFCURVE",
"1108 1124 OFFCURVE",
"1108 719 CURVE SMOOTH",
"1108 252 OFFCURVE",
"931 36 OFFCURVE",
"452 36 CURVE SMOOTH",
"245 36 LINE",
"338 13 LINE"
);
}
);
};
layerId = "EA94BB3F-1054-4F03-AAB6-69C3B81B3CC3";
paths = (
{
closed = 1;
nodes = (
"508 0 LINE SMOOTH",
"846 0 OFFCURVE",
"988 54 OFFCURVE",
"1094 134 CURVE SMOOTH",
"1260 260 OFFCURVE",
"1344 459 OFFCURVE",
"1344 712 CURVE SMOOTH",
"1344 935 OFFCURVE",
"1279 1134 OFFCURVE",
"1124 1272 CURVE SMOOTH",
"955 1422 OFFCURVE",
"760 1430 OFFCURVE",
"446 1430 CURVE SMOOTH",
"124 1430 LINE",
"124 0 LINE"
);
},
{
closed = 1;
nodes = (
"338 1417 LINE",
"245 1394 LINE",
"452 1394 LINE SMOOTH",
"975 1394 OFFCURVE",
"1108 1124 OFFCURVE",
"1108 719 CURVE SMOOTH",
"1108 252 OFFCURVE",
"931 36 OFFCURVE",
"452 36 CURVE SMOOTH",
"245 36 LINE",
"338 13 LINE"
);
}
);
width = 1450;
},
{
layerId = "1A84AFAC-8532-492C-A52A-D2ACD869B7F8";
width = 600;
},
{
layerId = "16E03120-9D89-4B3A-B1E3-633A6E865927";
width = 600;
}
);
leftKerningGroup = H;
note = D;
rightKerningGroup = O;
unicode = 0044;
},
{
glyphname = Eth;
lastChange = "2019-10-14 18:55:54 +0000";
layers = (
{
background = {
paths = (
{
closed = 1;
nodes = (
"34 1334 LINE",
"34 1300 LINE",
"228 1300 LINE",
"228 710 LINE",
"50 710 LINE",
"50 676 LINE",
"228 676 LINE",
"228 34 LINE",
"34 34 LINE",
"34 0 LINE",
"556 0 LINE SMOOTH",
"812 0 OFFCURVE",
"920 18 OFFCURVE",
"1038 84 CURVE SMOOTH",
"1242 196 OFFCURVE",
"1362 410 OFFCURVE",
"1362 662 CURVE SMOOTH",
"1362 980 OFFCURVE",
"1176 1228 OFFCURVE",
"878 1306 CURVE SMOOTH",
"786 1332 OFFCURVE",
"752 1334 OFFCURVE",
"526 1334 CURVE SMOOTH"
);
},
{
closed = 1;
nodes = (
"426 676 LINE",
"718 676 LINE",
"718 710 LINE",
"426 710 LINE",
"426 1300 LINE",
"632 1300 OFFCURVE",
"690 1294 OFFCURVE",
"778 1270 CURVE SMOOTH",
"1018 1198 OFFCURVE",
"1144 996 OFFCURVE",
"1144 676 CURVE SMOOTH",
"1144 482 OFFCURVE",
"1108 328 OFFCURVE",
"1038 226 CURVE SMOOTH",
"968 124 OFFCURVE",
"830 56 OFFCURVE",
"660 40 CURVE SMOOTH",
"600 36 OFFCURVE",
"564 34 OFFCURVE",
"426 34 CURVE"
);
}
);
};
components = (
{
name = D;
},
{
name = strokeshortcomb;
transform = "{1, 0, 0, 1, -339, -37}";
}
);
layerId = "EA94BB3F-1054-4F03-AAB6-69C3B81B3CC3";
width = 1450;
},
{
layerId = "1A84AFAC-8532-492C-A52A-D2ACD869B7F8";
width = 600;
},
{
layerId = "16E03120-9D89-4B3A-B1E3-633A6E865927";
width = 600;
}
);
leftKerningGroup = H;
note = Eth;
rightKerningGroup = O;
unicode = 00D0;
},
{
glyphname = E;
lastChange = "2019-10-14 18:55:54 +0000";
layers = (
{
anchors = (
{
name = bottom;
position = "{550, 0}";
},
{
name = ogonek;
position = "{966, 20}";
},
{
name = top;
position = "{550, 1430}";
}
);
background = {
paths = (
{
closed = 1;
nodes = (
"482 36 LINE",
"482 712 LINE",
"564 712 LINE SMOOTH",
"674 712 OFFCURVE",
"746 706 OFFCURVE",
"786 694 CURVE",
"858 674 OFFCURVE",
"896 618 OFFCURVE",
"896 538 CURVE SMOOTH",
"896 464 LINE",
"932 464 LINE",
"932 1002 LINE",
"896 1002 LINE",
"896 934 LINE SMOOTH",
"896 870 OFFCURVE",
"856 802 OFFCURVE",
"802 776 CURVE",
"756 756 OFFCURVE",
"666 744 OFFCURVE",
"566 744 CURVE SMOOTH",
"482 744 LINE",
"482 1394 LINE",
"726 1394 LINE SMOOTH",
"924 1394 OFFCURVE",
"1040 1376 OFFCURVE",
"1110 1336 CURVE SMOOTH",
"1190 1290 OFFCURVE",
"1214 1246 OFFCURVE",
"1242 1080 CURVE",
"1274 1080 LINE",
"1242 1430 LINE",
"64 1430 LINE",
"64 1394 LINE",
"272 1394 LINE",
"272 36 LINE",
"64 36 LINE",
"64 0 LINE",
"1350 0 LINE",
"1350 420 LINE",
"1314 420 LINE",
"1314 338 LINE SMOOTH",
"1314 220 OFFCURVE",
"1260 142 OFFCURVE",
"1142 88 CURVE",
"1066 50 OFFCURVE",
"956 36 OFFCURVE",
"750 36 CURVE SMOOTH"
);
}
);
};
layerId = "EA94BB3F-1054-4F03-AAB6-69C3B81B3CC3";
paths = (
{
closed = 1;
nodes = (
"974 0 LINE",
"974 36 LINE",
"237 36 LINE",
"330 23 LINE",
"330 725 LINE",
"237 710 LINE",
"974 710 LINE",
"974 746 LINE",
"237 746 LINE",
"330 733 LINE",
"330 1417 LINE",
"237 1394 LINE",
"974 1394 LINE",
"974 1430 LINE",
"124 1430 LINE",
"124 0 LINE"
);
}
);
width = 1070;
},
{
layerId = "1A84AFAC-8532-492C-A52A-D2ACD869B7F8";
width = 600;
},
{
layerId = "16E03120-9D89-4B3A-B1E3-633A6E865927";
width = 600;
}
);
leftKerningGroup = H;
note = E;
rightKerningGroup = E;
unicode = 0045;
},
{
glyphname = Eacute;
lastChange = "2019-10-14 18:55:54 +0000";
layers = (
{
background = {
paths = (
{
closed = 1;
nodes = (
"424 34 LINE",
"424 664 LINE",
"500 664 LINE SMOOTH",
"602 664 OFFCURVE",
"670 658 OFFCURVE",
"708 648 CURVE",
"774 628 OFFCURVE",
"810 576 OFFCURVE",
"810 502 CURVE SMOOTH",
"810 432 LINE",
"844 432 LINE",
"844 934 LINE",
"810 934 LINE",
"810 872 LINE SMOOTH",
"810 812 OFFCURVE",
"772 748 OFFCURVE",
"722 724 CURVE",
"680 706 OFFCURVE",
"596 694 OFFCURVE",
"502 694 CURVE SMOOTH",
"424 694 LINE",
"424 1300 LINE",
"652 1300 LINE SMOOTH",
"836 1300 OFFCURVE",
"944 1284 OFFCURVE",
"1010 1246 CURVE SMOOTH",
"1084 1204 OFFCURVE",
"1106 1162 OFFCURVE",
"1132 1008 CURVE",
"1162 1008 LINE",
"1132 1334 LINE",
"34 1334 LINE",
"34 1300 LINE",
"228 1300 LINE",
"228 34 LINE",
"34 34 LINE",
"34 0 LINE",
"1234 0 LINE",
"1234 392 LINE",
"1200 392 LINE",
"1200 316 LINE SMOOTH",
"1200 206 OFFCURVE",
"1150 132 OFFCURVE",
"1040 82 CURVE",
"968 46 OFFCURVE",
"866 34 OFFCURVE",
"674 34 CURVE SMOOTH"
);
},
{
closed = 1;
nodes = (
"406 1446 LINE",
"636 1596 LINE SMOOTH",
"692 1632 OFFCURVE",
"718 1664 OFFCURVE",
"718 1694 CURVE SMOOTH",
"718 1732 OFFCURVE",
"686 1758 OFFCURVE",
"642 1758 CURVE SMOOTH",
"594 1758 OFFCURVE",
"572 1740 OFFCURVE",
"516 1658 CURVE SMOOTH",
"368 1446 LINE"
);
}
);
};
components = (
{
name = E;
},
{
name = acutecomb;
transform = "{1, 0, 0, 1, 80, 516}";
}
);
layerId = "EA94BB3F-1054-4F03-AAB6-69C3B81B3CC3";
width = 1070;
},
{
layerId = "1A84AFAC-8532-492C-A52A-D2ACD869B7F8";
width = 600;
},
{
layerId = "16E03120-9D89-4B3A-B1E3-633A6E865927";
width = 600;
}
);
leftKerningGroup = H;
note = Eacute;
rightKerningGroup = E;
unicode = 00C9;
},
{
glyphname = F;
lastChange = "2019-10-14 18:55:54 +0000";
layers = (
{
background = {
paths = (
{
closed = 1;
nodes = (
"1228 1054 LINE",
"1190 1430 LINE",
"24 1430 LINE",
"24 1394 LINE",
"232 1394 LINE",
"232 36 LINE",
"24 36 LINE",
"24 0 LINE",
"664 0 LINE",
"664 36 LINE",
"440 36 LINE",
"440 712 LINE",
"528 712 LINE SMOOTH",
"732 712 OFFCURVE",
"818 692 OFFCURVE",
"856 632 CURVE SMOOTH",
"874 606 OFFCURVE",
"888 536 OFFCURVE",
"888 472 CURVE SMOOTH",
"888 456 LINE",
"924 456 LINE",
"924 1016 LINE",
"888 1016 LINE",
"888 1004 LINE SMOOTH",
"888 948 OFFCURVE",
"876 876 OFFCURVE",
"860 846 CURVE SMOOTH",
"822 774 OFFCURVE",
"736 748 OFFCURVE",
"530 748 CURVE SMOOTH",
"440 748 LINE",
"440 1394 LINE",
"686 1394 LINE SMOOTH",
"878 1394 OFFCURVE",
"878 1394 OFFCURVE",
"924 1384 CURVE SMOOTH",
"1044 1366 OFFCURVE",
"1108 1328 OFFCURVE",
"1144 1250 CURVE SMOOTH",
"1174 1188 OFFCURVE",
"1188 1132 OFFCURVE",
"1188 1090 CURVE SMOOTH",
"1188 1054 LINE"
);
}
);
};
layerId = "EA94BB3F-1054-4F03-AAB6-69C3B81B3CC3";
paths = (
{
closed = 1;
nodes = (
"330 0 LINE",
"330 735 LINE",
"237 712 LINE",
"914 712 LINE",
"914 746 LINE",
"237 746 LINE",
"330 723 LINE",
"330 1417 LINE",
"237 1394 LINE",
"914 1394 LINE",
"914 1430 LINE",
"124 1430 LINE",
"124 0 LINE"
);
}
);
width = 1002;
},
{
layerId = "1A84AFAC-8532-492C-A52A-D2ACD869B7F8";
width = 600;
},
{
layerId = "16E03120-9D89-4B3A-B1E3-633A6E865927";
width = 600;
}
);
leftKerningGroup = H;
note = F;
rightKerningGroup = F;
unicode = 0046;
},
{
glyphname = G;
lastChange = "2019-10-14 18:55:54 +0000";
layers = (
{
anchors = (
{
name = bottom;
position = "{776, 0}";
},
{
name = top;
position = "{784, 1430}";
}
);
background = {
paths = (
{
closed = 1;
nodes = (
"960 -26 OFFCURVE",
"1136 39 OFFCURVE",
"1270 182 CURVE SMOOTH",
"1380 299 OFFCURVE",
"1450 457 OFFCURVE",
"1468 630 CURVE",
"1256 630 LINE",
"1234 253 OFFCURVE",
"1051 4 OFFCURVE",
"783 4 CURVE SMOOTH",
"498 4 OFFCURVE",
"308 287 OFFCURVE",
"308 714 CURVE SMOOTH",
"308 1141 OFFCURVE",
"498 1430 OFFCURVE",
"784 1430 CURVE SMOOTH",
"964 1430 OFFCURVE",
"1108 1314 OFFCURVE",
"1186 1118 CURVE",
"1364 1118 LINE",
"1337 1165 OFFCURVE",
"1311 1202 OFFCURVE",
"1270 1244 CURVE SMOOTH",
"1139 1378 OFFCURVE",
"956 1460 OFFCURVE",
"783 1460 CURVE SMOOTH",
"611 1460 OFFCURVE",
"432 1379 OFFCURVE",
"300 1243 CURVE SMOOTH",
"175 1114 OFFCURVE",
"96 937 OFFCURVE",
"96 718 CURVE SMOOTH",
"96 513 OFFCURVE",
"165 320 OFFCURVE",
"297 181 CURVE SMOOTH",
"428 44 OFFCURVE",
"605 -26 OFFCURVE",
"786 -26 CURVE SMOOTH"
);
},
{
closed = 1;
nodes = (
"1302 594 LINE",
"1302 630 LINE",
"838 630 LINE",
"838 594 LINE"
);
}
);
};
layerId = "EA94BB3F-1054-4F03-AAB6-69C3B81B3CC3";
paths = (
{
closed = 1;
nodes = (
"1154 -26 OFFCURVE",
"1429 257 OFFCURVE",
"1468 630 CURVE",
"1256 630 LINE",
"1234 253 OFFCURVE",
"1051 4 OFFCURVE",
"783 4 CURVE SMOOTH",
"498 4 OFFCURVE",
"308 287 OFFCURVE",
"308 714 CURVE SMOOTH",
"308 1141 OFFCURVE",
"498 1430 OFFCURVE",
"784 1430 CURVE SMOOTH",
"964 1430 OFFCURVE",
"1108 1314 OFFCURVE",
"1186 1118 CURVE",
"1364 1118 LINE",
"1247 1321 OFFCURVE",
"1011 1460 OFFCURVE",
"783 1460 CURVE SMOOTH",
"401 1460 OFFCURVE",
"96 1118 OFFCURVE",
"96 718 CURVE SMOOTH",
"96 302 OFFCURVE",
"381 -26 OFFCURVE",
"786 -26 CURVE SMOOTH"
);
},
{
closed = 1;
nodes = (
"1302 594 LINE",
"1302 630 LINE",
"838 630 LINE",
"838 594 LINE"
);
}
);
width = 1466;
},
{
layerId = "1A84AFAC-8532-492C-A52A-D2ACD869B7F8";
width = 600;
},
{
layerId = "16E03120-9D89-4B3A-B1E3-633A6E865927";
width = 600;
}
);
leftKerningGroup = O;
note = G;
rightKerningGroup = G;
unicode = 0047;
},
{
glyphname = H;
lastChange = "2019-10-14 18:55:54 +0000";
layers = (
{
anchors = (
{
name = bottom;
position = "{710, 0}";
},
{
name = center;
position = "{710, 715}";
},
{
name = top;
position = "{710, 1430}";
},
{
name = topleft;
position = "{20, 1430}";
}
);
background = {
paths = (
{
closed = 1;
nodes = (
"440 714 LINE",
"1228 714 LINE",
"1228 36 LINE",
"1018 36 LINE",
"1018 0 LINE",
"1644 0 LINE",
"1644 36 LINE",
"1436 36 LINE",
"1436 1394 LINE",
"1644 1394 LINE",
"1644 1430 LINE",
"1018 1430 LINE",
"1018 1394 LINE",
"1228 1394 LINE",
"1228 750 LINE",
"440 750 LINE",
"440 1394 LINE",
"648 1394 LINE",
"648 1430 LINE",
"24 1430 LINE",
"24 1394 LINE",
"232 1394 LINE",
"232 36 LINE",
"24 36 LINE",
"24 0 LINE",
"648 0 LINE",
"648 36 LINE",
"440 36 LINE"
);
}
);
};
layerId = "EA94BB3F-1054-4F03-AAB6-69C3B81B3CC3";
paths = (
{
closed = 1;
nodes = (
"330 0 LINE",
"330 737 LINE",
"237 714 LINE",
"1183 714 LINE",
"1090 737 LINE",
"1090 0 LINE",
"1296 0 LINE",
"1296 1430 LINE",
"1090 1430 LINE",
"1090 727 LINE",
"1183 750 LINE",
"237 750 LINE",
"330 727 LINE",
"330 1430 LINE",
"124 1430 LINE",
"124 0 LINE"
);
}
);
width = 1420;
},
{
layerId = "1A84AFAC-8532-492C-A52A-D2ACD869B7F8";
width = 600;
},
{
layerId = "16E03120-9D89-4B3A-B1E3-633A6E865927";
width = 600;
}
);
leftKerningGroup = H;
note = H;
rightKerningGroup = H;
unicode = 0048;
},
{
glyphname = Hbar;
lastChange = "2019-10-14 18:55:54 +0000";
layers = (
{
anchors = (
{
name = bottom;
position = "{742, 0}";
},
{
name = top;
position = "{742, 1430}";
}
);
background = {
paths = (
{
closed = 1;
nodes = (
"362 0 LINE",
"362 714 LINE",
"1122 714 LINE",
"1122 0 LINE",
"1328 0 LINE",
"1328 1430 LINE",
"1122 1430 LINE",
"1122 750 LINE",
"362 750 LINE",
"362 1430 LINE",
"156 1430 LINE",
"156 0 LINE"
);
}
);
};
components = (
{
name = H;
},
{
name = strokelongcomb.case;
transform = "{1, 0, 0, 1, -32, -1}";
}
);
layerId = "EA94BB3F-1054-4F03-AAB6-69C3B81B3CC3";
width = 1420;
},
{
layerId = "1A84AFAC-8532-492C-A52A-D2ACD869B7F8";
width = 600;
},
{
layerId = "16E03120-9D89-4B3A-B1E3-633A6E865927";
width = 600;
}
);
leftKerningGroup = H;
rightKerningGroup = H;
unicode = 0126;
},
{
glyphname = I;
lastChange = "2019-10-14 18:55:54 +0000";
layers = (
{
anchors = (
{
name = bottom;
position = "{228, 0}";
},
{
name = ogonek;
position = "{414, 20}";
},
{
name = top;
position = "{228, 1430}";
}
);
background = {
paths = (
{
closed = 1;
nodes = (
"8 1334 LINE",
"8 1300 LINE",
"202 1300 LINE",
"202 34 LINE",
"8 34 LINE",
"8 0 LINE",
"596 0 LINE",
"596 34 LINE",
"402 34 LINE",
"402 1300 LINE",
"596 1300 LINE",
"596 1334 LINE"
);
}
);
};
layerId = "EA94BB3F-1054-4F03-AAB6-69C3B81B3CC3";
paths = (
{
closed = 1;
nodes = (
"330 0 LINE",
"330 1430 LINE",
"124 1430 LINE",
"124 0 LINE"
);
}
);
width = 454;
},
{
layerId = "1A84AFAC-8532-492C-A52A-D2ACD869B7F8";
width = 600;
},
{
layerId = "16E03120-9D89-4B3A-B1E3-633A6E865927";
width = 600;
}
);
leftKerningGroup = H;
note = I;
rightKerningGroup = H;
unicode = 0049;
},
{
glyphname = J;
lastChange = "2019-10-14 18:55:54 +0000";
layers = (
{
anchors = (
{
name = bottom;
position = "{369, 0}";
},
{
name = top;
position = "{369, 1430}";
}
);
background = {
paths = (
{
closed = 1;
nodes = (
"736 1394 LINE",
"736 1430 LINE",
"110 1430 LINE",
"110 1394 LINE",
"318 1394 LINE",
"318 264 LINE SMOOTH",
"318 198 OFFCURVE",
"320 186 OFFCURVE",
"350 116 CURVE",
"368 76 LINE",
"376 58 OFFCURVE",
"380 40 OFFCURVE",
"380 22 CURVE SMOOTH",
"380 -56 OFFCURVE",
"322 -118 OFFCURVE",
"250 -118 CURVE SMOOTH",
"204 -118 OFFCURVE",
"154 -88 OFFCURVE",
"154 -60 CURVE SMOOTH",
"154 -54 OFFCURVE",
"158 -48 OFFCURVE",
"166 -46 CURVE SMOOTH",
"206 -32 OFFCURVE",
"206 -32 OFFCURVE",
"216 -24 CURVE",
"234 -6 OFFCURVE",
"246 22 OFFCURVE",
"246 48 CURVE SMOOTH",
"246 102 OFFCURVE",
"204 146 OFFCURVE",
"150 146 CURVE SMOOTH",
"86 146 OFFCURVE",
"40 94 OFFCURVE",
"40 24 CURVE SMOOTH",
"40 -80 OFFCURVE",
"130 -152 OFFCURVE",
"260 -152 CURVE SMOOTH",
"346 -152 OFFCURVE",
"416 -120 OFFCURVE",
"462 -60 CURVE SMOOTH",
"510 6 OFFCURVE",
"528 86 OFFCURVE",
"528 234 CURVE SMOOTH",
"528 1394 LINE"
);
}
);
};
layerId = "EA94BB3F-1054-4F03-AAB6-69C3B81B3CC3";
paths = (
{
closed = 1;
nodes = (
"49 -112 OFFCURVE",
"183 -152 OFFCURVE",
"279 -152 CURVE SMOOTH",
"488 -152 OFFCURVE",
"614 42 OFFCURVE",
"614 374 CURVE SMOOTH",
"614 1430 LINE",
"408 1430 LINE",
"408 336 LINE SMOOTH",
"408 -46 OFFCURVE",
"395 -98 OFFCURVE",
"300 -98 CURVE SMOOTH",
"172 -98 OFFCURVE",
"65 -5 OFFCURVE",
"-16 134 CURVE",
"-16 -24 LINE"
);
}
);
width = 738;
},
{
associatedMasterId = "EA94BB3F-1054-4F03-AAB6-69C3B81B3CC3";
background = {
paths = (
{
closed = 1;
nodes = (
"738 1394 LINE",
"738 1430 LINE",
"112 1430 LINE",
"112 1394 LINE",
"320 1394 LINE",
"320 264 LINE SMOOTH",
"320 198 OFFCURVE",
"322 186 OFFCURVE",
"352 116 CURVE",
"370 76 LINE",
"378 58 OFFCURVE",
"382 40 OFFCURVE",
"382 22 CURVE SMOOTH",
"382 -56 OFFCURVE",
"324 -118 OFFCURVE",
"252 -118 CURVE SMOOTH",
"206 -118 OFFCURVE",
"156 -88 OFFCURVE",
"156 -60 CURVE SMOOTH",
"156 -54 OFFCURVE",
"160 -48 OFFCURVE",
"168 -46 CURVE SMOOTH",
"208 -32 OFFCURVE",
"208 -32 OFFCURVE",
"218 -24 CURVE",
"236 -6 OFFCURVE",
"248 22 OFFCURVE",
"248 48 CURVE SMOOTH",
"248 102 OFFCURVE",
"206 146 OFFCURVE",
"152 146 CURVE SMOOTH",
"88 146 OFFCURVE",
"42 94 OFFCURVE",
"42 24 CURVE SMOOTH",
"42 -80 OFFCURVE",
"132 -152 OFFCURVE",
"262 -152 CURVE SMOOTH",
"348 -152 OFFCURVE",
"418 -120 OFFCURVE",
"464 -60 CURVE SMOOTH",
"512 6 OFFCURVE",
"530 86 OFFCURVE",
"530 234 CURVE SMOOTH",
"530 1394 LINE"
);
}
);
};
layerId = "5F3C60D3-57DE-4E92-8BCD-2FCE42A3C567";
name = guide;
paths = (
{
closed = 1;
nodes = (
"474 -152 OFFCURVE",
"616 -6 OFFCURVE",
"616 172 CURVE SMOOTH",
"616 346 OFFCURVE",
"474 492 OFFCURVE",
"296 492 CURVE SMOOTH",
"118 492 OFFCURVE",
"-24 346 OFFCURVE",
"-24 172 CURVE SMOOTH",
"-24 -6 OFFCURVE",
"118 -152 OFFCURVE",
"296 -152 CURVE SMOOTH"
);
}
);
width = 774;
},
{
layerId = "1A84AFAC-8532-492C-A52A-D2ACD869B7F8";
width = 600;
},
{
layerId = "16E03120-9D89-4B3A-B1E3-633A6E865927";
width = 600;
}
);
leftKerningGroup = J;
note = J;
rightKerningGroup = J;
unicode = 004A;
},
{
glyphname = K;
lastChange = "2019-10-14 18:55:54 +0000";
layers = (
{
anchors = (
{
name = bottom;
position = "{544, 0}";
},
{
name = top;
position = "{544, 1430}";
}
);
background = {
paths = (
{
closed = 1;
nodes = (
"586 852 LINE",
"898 1132 LINE SMOOTH",
"1002 1228 OFFCURVE",
"1122 1320 OFFCURVE",
"1200 1364 CURVE SMOOTH",
"1238 1384 OFFCURVE",
"1274 1394 OFFCURVE",
"1332 1394 CURVE SMOOTH",
"1446 1394 LINE",
"1446 1430 LINE",
"836 1430 LINE",
"836 1394 LINE",
"944 1394 LINE SMOOTH",
"1022 1394 OFFCURVE",
"1046 1384 OFFCURVE",
"1046 1354 CURVE SMOOTH",
"1046 1328 OFFCURVE",
"1006 1278 OFFCURVE",
"938 1216 CURVE SMOOTH",
"404 736 LINE",
"404 1394 LINE",
"618 1394 LINE",
"618 1430 LINE",
"-12 1430 LINE",
"-12 1394 LINE",
"196 1394 LINE",
"196 36 LINE",
"-12 36 LINE",
"-12 0 LINE",
"630 0 LINE",
"630 36 LINE",
"404 36 LINE",
"404 688 LINE",
"430 712 LINE",
"988 36 LINE",
"786 36 LINE",
"786 0 LINE",
"1482 0 LINE",
"1482 36 LINE",
"1276 36 LINE"
);
}
);
};
layerId = "EA94BB3F-1054-4F03-AAB6-69C3B81B3CC3";
paths = (
{
closed = 1;
nodes = (
"330 0 LINE",
"330 575 LINE",
"271 481 LINE",
"505 763 LINE",
"438 703 LINE",
"1026 0 LINE",
"1298 0 LINE",
"574 863 LINE",
"522 781 LINE",
"1066 1430 LINE",
"1018 1430 LINE",
"270 539 LINE",
"330 597 LINE",
"330 1430 LINE",
"124 1430 LINE",
"124 0 LINE"
);
}
);
width = 1278;
},
{
layerId = "1A84AFAC-8532-492C-A52A-D2ACD869B7F8";
width = 600;
},
{
layerId = "16E03120-9D89-4B3A-B1E3-633A6E865927";
width = 600;
}
);
leftKerningGroup = H;
note = K;
rightKerningGroup = K;
unicode = 004B;
},
{
glyphname = L;
lastChange = "2019-10-14 18:55:54 +0000";
layers = (
{
anchors = (
{
name = bottom;
position = "{508, 0}";
},
{
name = center;
position = "{508, 716}";
},
{
name = top;
position = "{328, 1430}";
},
{
name = topright;
position = "{396, 1430}";
}
);
background = {
paths = (
{
closed = 1;
nodes = (
"1268 440 LINE",
"1234 440 LINE",
"1234 354 LINE SMOOTH",
"1234 210 OFFCURVE",
"1192 126 OFFCURVE",
"1098 82 CURVE SMOOTH",
"1026 48 OFFCURVE",
"902 34 OFFCURVE",
"674 34 CURVE SMOOTH",
"474 34 LINE",
"474 1300 LINE",
"696 1300 LINE",
"696 1334 LINE",
"86 1334 LINE",
"86 1300 LINE",
"280 1300 LINE",
"280 34 LINE",
"86 34 LINE",
"86 0 LINE",
"1268 0 LINE"
);
}
);
};
layerId = "EA94BB3F-1054-4F03-AAB6-69C3B81B3CC3";
paths = (
{
closed = 1;
nodes = (
"914 0 LINE",
"914 36 LINE",
"237 36 LINE",
"330 13 LINE",
"330 1430 LINE",
"124 1430 LINE",
"124 0 LINE"
);
}
);
width = 964;
},
{
layerId = "1A84AFAC-8532-492C-A52A-D2ACD869B7F8";
width = 600;
},
{
layerId = "16E03120-9D89-4B3A-B1E3-633A6E865927";
width = 600;
}
);
leftKerningGroup = H;
note = L;
rightKerningGroup = L;
unicode = 004C;
},
{
glyphname = Lslash;
lastChange = "2019-10-14 18:55:54 +0000";
layers = (
{
background = {
paths = (
{
closed = 1;
nodes = (
"276 626 LINE",
"90 482 LINE",
"90 430 LINE",
"276 572 LINE",
"276 34 LINE",
"82 34 LINE",
"82 0 LINE",
"1264 0 LINE",
"1264 440 LINE",
"1230 440 LINE",
"1230 354 LINE SMOOTH",
"1230 210 OFFCURVE",
"1188 126 OFFCURVE",
"1094 82 CURVE SMOOTH",
"1022 48 OFFCURVE",
"900 34 OFFCURVE",
"670 34 CURVE SMOOTH",
"470 34 LINE",
"470 702 LINE",
"774 936 LINE",
"774 992 LINE",
"470 758 LINE",
"470 1300 LINE",
"692 1300 LINE",
"692 1334 LINE",
"82 1334 LINE",
"82 1300 LINE",
"276 1300 LINE"
);
}
);
};
components = (
{
name = L;
},
{
name = slashshortcomb;
}
);
layerId = "EA94BB3F-1054-4F03-AAB6-69C3B81B3CC3";
width = 964;
},
{
layerId = "1A84AFAC-8532-492C-A52A-D2ACD869B7F8";
width = 600;
},
{
layerId = "16E03120-9D89-4B3A-B1E3-633A6E865927";
width = 600;
}
);
leftKerningGroup = H;
note = Lslash;
rightKerningGroup = L;
unicode = 0141;
},
{
glyphname = M;
lastChange = "2019-10-14 18:55:54 +0000";
layers = (
{
background = {
paths = (
{
closed = 1;
nodes = (
"160 0 LINE",
"160 1304 LINE",
"690 58 LINE",
"1232 1340 LINE",
"1232 0 LINE",
"1438 0 LINE",
"1438 1430 LINE",
"1232 1430 LINE",
"780 368 LINE",
"330 1430 LINE",
"124 1430 LINE",
"124 0 LINE"
);
}
);
};
layerId = "EA94BB3F-1054-4F03-AAB6-69C3B81B3CC3";
paths = (
{
closed = 1;
nodes = (
"160 0 LINE",
"160 1357 LINE",
"139 1353 LINE",
"690 58 LINE",
"1253 1390 LINE",
"1232 1393 LINE",
"1232 0 LINE",
"1438 0 LINE",
"1438 1430 LINE",
"1232 1430 LINE",
"768 340 LINE",
"795 333 LINE",
"330 1430 LINE",
"124 1430 LINE",
"124 0 LINE"
);
}
);
width = 1562;
},
{
layerId = "1A84AFAC-8532-492C-A52A-D2ACD869B7F8";
width = 600;
},
{
layerId = "16E03120-9D89-4B3A-B1E3-633A6E865927";
width = 600;
}
);
leftKerningGroup = M;
note = M;
rightKerningGroup = M;
unicode = 004D;
},
{
glyphname = N;
lastChange = "2019-10-14 18:55:54 +0000";
layers = (
{
anchors = (
{
name = bottom;
position = "{688, 0}";
},
{
name = top;
position = "{688, 1430}";
}
);
background = {
paths = (
{
closed = 1;
nodes = (
"10 36 LINE",
"10 0 LINE",
"474 0 LINE",
"474 36 LINE",
"414 36 LINE SMOOTH",
"260 36 OFFCURVE",
"252 50 OFFCURVE",
"252 264 CURVE SMOOTH",
"252 1330 LINE",
"1306 -10 LINE",
"1320 -10 LINE",
"1320 1216 LINE SMOOTH",
"1320 1394 OFFCURVE",
"1320 1394 OFFCURVE",
"1468 1394 CURVE SMOOTH",
"1528 1394 LINE",
"1528 1430 LINE",
"1068 1430 LINE",
"1068 1394 LINE",
"1128 1394 LINE SMOOTH",
"1282 1394 OFFCURVE",
"1286 1392 OFFCURVE",
"1286 1216 CURVE SMOOTH",
"1286 376 LINE",
"452 1430 LINE",
"10 1430 LINE",
"10 1394 LINE",
"180 1394 LINE",
"218 1368 LINE",
"218 264 LINE SMOOTH",
"218 108 OFFCURVE",
"218 102 OFFCURVE",
"198 70 CURVE",
"180 46 OFFCURVE",
"156 36 OFFCURVE",
"80 36 CURVE SMOOTH"
);
}
);
};
layerId = "EA94BB3F-1054-4F03-AAB6-69C3B81B3CC3";
paths = (
{
closed = 1;
nodes = (
"144 0 LINE",
"144 1255 LINE",
"125 1185 LINE",
"1071 0 LINE",
"1166 0 LINE",
"1166 1430 LINE",
"1134 1430 LINE",
"1134 179 LINE",
"1156 245 LINE",
"211 1430 LINE",
"112 1430 LINE",
"112 0 LINE"
);
}
);
width = 1278;
},
{
layerId = "1A84AFAC-8532-492C-A52A-D2ACD869B7F8";
width = 600;
},
{
layerId = "16E03120-9D89-4B3A-B1E3-633A6E865927";
width = 600;
}
);
leftKerningGroup = H;
note = N;
rightKerningGroup = H;
unicode = 004E;
},
{
glyphname = Eng;
lastChange = "2019-10-14 18:55:54 +0000";
layers = (
{
background = {
paths = (
{
closed = 1;
nodes = (
"144 0 LINE",
"144 1162 LINE",
"997 92 LINE SMOOTH",
"1062 10 OFFCURVE",
"1093 -28 OFFCURVE",
"1093 -142 CURVE SMOOTH",
"1093 -244 OFFCURVE",
"1069 -366 OFFCURVE",
"976 -366 CURVE SMOOTH",
"966 -366 LINE",
"954 -366 LINE SMOOTH",
"865 -366 OFFCURVE",
"794 -310 OFFCURVE",
"729 -199 CURVE",
"729 -308 LINE",
"759 -348 OFFCURVE",
"821 -396 OFFCURVE",
"967 -396 CURVE SMOOTH",
"1109 -396 OFFCURVE",
"1166 -254 OFFCURVE",
"1166 -112 CURVE SMOOTH",
"1166 1430 LINE",
"1134 1430 LINE",
"1134 272 LINE",
"211 1430 LINE",
"112 1430 LINE",
"112 0 LINE"
);
}
);
};
layerId = "EA94BB3F-1054-4F03-AAB6-69C3B81B3CC3";
paths = (
{
closed = 1;
nodes = (
"144 0 LINE",
"144 1162 LINE",
"997 92 LINE SMOOTH",
"1066 5 OFFCURVE",
"1093 -23 OFFCURVE",
"1093 -146 CURVE SMOOTH",
"1093 -297 OFFCURVE",
"1052 -366 OFFCURVE",
"955 -366 CURVE SMOOTH",
"866 -366 OFFCURVE",
"792 -308 OFFCURVE",
"729 -199 CURVE",
"729 -308 LINE",
"757 -351 OFFCURVE",
"844 -396 OFFCURVE",
"944 -396 CURVE SMOOTH",
"1122 -396 OFFCURVE",
"1166 -254 OFFCURVE",
"1166 -112 CURVE SMOOTH",
"1166 1430 LINE",
"1134 1430 LINE",
"1134 272 LINE",
"211 1430 LINE",
"112 1430 LINE",
"112 0 LINE"
);
}
);
width = 1278;
},
{
layerId = "1A84AFAC-8532-492C-A52A-D2ACD869B7F8";
width = 600;
},
{
layerId = "16E03120-9D89-4B3A-B1E3-633A6E865927";
width = 600;
}
);
leftKerningGroup = Eng;
rightKerningGroup = Eng;
unicode = 014A;
},
{
glyphname = Ntilde;
lastChange = "2019-10-14 18:55:54 +0000";
layers = (
{
background = {
paths = (
{
closed = 1;
nodes = (
"20 34 LINE",
"20 0 LINE",
"454 0 LINE",
"454 34 LINE",
"398 34 LINE SMOOTH",
"254 34 OFFCURVE",
"246 46 OFFCURVE",
"246 246 CURVE SMOOTH",
"246 1240 LINE",
"1230 -10 LINE",
"1242 -10 LINE",
"1242 1134 LINE SMOOTH",
"1242 1300 OFFCURVE",
"1242 1300 OFFCURVE",
"1380 1300 CURVE SMOOTH",
"1436 1300 LINE",
"1436 1334 LINE",
"1008 1334 LINE",
"1008 1300 LINE",
"1064 1300 LINE SMOOTH",
"1208 1300 OFFCURVE",
"1210 1298 OFFCURVE",
"1210 1134 CURVE SMOOTH",
"1210 350 LINE",
"432 1334 LINE",
"20 1334 LINE",
"20 1300 LINE",
"180 1300 LINE",
"214 1276 LINE",
"214 246 LINE SMOOTH",
"214 100 OFFCURVE",
"214 96 OFFCURVE",
"196 66 CURVE",
"180 42 OFFCURVE",
"156 34 OFFCURVE",
"86 34 CURVE SMOOTH"
);
},
{
closed = 1;
nodes = (
"1008 1716 LINE",
"972 1638 OFFCURVE",
"950 1616 OFFCURVE",
"906 1616 CURVE SMOOTH",
"872 1616 OFFCURVE",
"838 1626 OFFCURVE",
"756 1664 CURVE",
"678 1696 OFFCURVE",
"640 1708 OFFCURVE",
"600 1708 CURVE SMOOTH",
"508 1708 OFFCURVE",
"440 1630 OFFCURVE",
"410 1494 CURVE",
"444 1494 LINE",
"464 1564 OFFCURVE",
"494 1592 OFFCURVE",
"542 1592 CURVE SMOOTH",
"564 1592 OFFCURVE",
"600 1582 OFFCURVE",
"636 1566 CURVE SMOOTH",
"770 1508 OFFCURVE",
"798 1498 OFFCURVE",
"838 1498 CURVE SMOOTH",
"932 1498 OFFCURVE",
"1002 1572 OFFCURVE",
"1042 1716 CURVE"
);
}
);
};
components = (
{
name = N;
},
{
name = tildecomb;
transform = "{1, 0, 0, 1, 78, 516}";
}
);
layerId = "EA94BB3F-1054-4F03-AAB6-69C3B81B3CC3";
width = 1278;
},
{
layerId = "1A84AFAC-8532-492C-A52A-D2ACD869B7F8";
width = 600;
},
{
layerId = "16E03120-9D89-4B3A-B1E3-633A6E865927";
width = 600;
}
);
leftKerningGroup = H;
note = Ntilde;
rightKerningGroup = H;
unicode = 00D1;
},
{
glyphname = O;
lastChange = "2019-10-14 18:43:13 +0000";
layers = (
{
anchors = (
{
name = bottom;
position = "{730, 0}";
},
{
name = center;
position = "{730, 716}";
},
{
name = ogonek;
position = "{1356, 20}";
},
{
name = top;
position = "{730, 1430}";
},
{
name = topright;
position = "{1476, 1430}";
}
);
background = {
paths = (
{
closed = 1;
nodes = (
"1124 -26 OFFCURVE",
"1416 296 OFFCURVE",
"1416 712 CURVE SMOOTH",
"1416 1120 OFFCURVE",
"1120 1460 OFFCURVE",
"730 1460 CURVE SMOOTH",
"346 1460 OFFCURVE",
"42 1122 OFFCURVE",
"42 712 CURVE SMOOTH",
"42 302 OFFCURVE",
"332 -26 OFFCURVE",
"730 -26 CURVE SMOOTH"
);
},
{
closed = 1;
nodes = (
"444 4 OFFCURVE",
"254 288 OFFCURVE",
"254 712 CURVE SMOOTH",
"254 1142 OFFCURVE",
"444 1430 OFFCURVE",
"730 1430 CURVE SMOOTH",
"1014 1430 OFFCURVE",
"1204 1142 OFFCURVE",
"1204 712 CURVE SMOOTH",
"1204 288 OFFCURVE",
"1014 4 OFFCURVE",
"730 4 CURVE SMOOTH"
);
}
);
};
layerId = "EA94BB3F-1054-4F03-AAB6-69C3B81B3CC3";
paths = (
{
closed = 1;
nodes = (
"1125 -26 OFFCURVE",
"1416 296 OFFCURVE",
"1416 712 CURVE SMOOTH",
"1416 1119 OFFCURVE",
"1120 1460 OFFCURVE",
"730 1460 CURVE SMOOTH",
"346 1460 OFFCURVE",
"42 1123 OFFCURVE",
"42 712 CURVE SMOOTH",
"42 302 OFFCURVE",
"333 -26 OFFCURVE",
"730 -26 CURVE SMOOTH"
);
},
{
closed = 1;
nodes = (
"444 4 OFFCURVE",
"254 288 OFFCURVE",
"254 712 CURVE SMOOTH",
"254 1142 OFFCURVE",
"444 1430 OFFCURVE",
"730 1430 CURVE SMOOTH",
"1014 1430 OFFCURVE",
"1204 1142 OFFCURVE",
"1204 712 CURVE SMOOTH",
"1204 288 OFFCURVE",
"1014 4 OFFCURVE",
"730 4 CURVE SMOOTH"
);
}
);
width = 1458;
},
{
layerId = "16E03120-9D89-4B3A-B1E3-633A6E865927";
width = 600;
},
{
layerId = "1A84AFAC-8532-492C-A52A-D2ACD869B7F8";
width = 600;
}
);
leftKerningGroup = O;
note = O;
rightKerningGroup = O;
unicode = 004F;
},
{
glyphname = Odieresis;
lastChange = "2019-10-14 18:55:54 +0000";
layers = (
{
background = {
paths = (
{
closed = 1;
nodes = (
"558 1362 OFFCURVE",
"406 1292 OFFCURVE",
"280 1168 CURVE SMOOTH",
"148 1042 OFFCURVE",
"74 864 OFFCURVE",
"74 682 CURVE SMOOTH",
"74 522 OFFCURVE",
"118 378 OFFCURVE",
"202 256 CURVE SMOOTH",
"320 88 OFFCURVE",
"518 -24 OFFCURVE",
"700 -24 CURVE SMOOTH",
"846 -24 OFFCURVE",
"1006 50 OFFCURVE",
"1124 172 CURVE SMOOTH",
"1252 304 OFFCURVE",
"1320 476 OFFCURVE",
"1320 664 CURVE SMOOTH",
"1320 824 OFFCURVE",
"1268 984 OFFCURVE",
"1176 1104 CURVE SMOOTH",
"1056 1258 OFFCURVE",
"866 1362 OFFCURVE",
"698 1362 CURVE SMOOTH"
);
},
{
closed = 1;
nodes = (
"956 1332 OFFCURVE",
"1098 1094 OFFCURVE",
"1098 672 CURVE SMOOTH",
"1098 226 OFFCURVE",
"966 6 OFFCURVE",
"696 6 CURVE SMOOTH",
"430 6 OFFCURVE",
"296 228 OFFCURVE",
"296 670 CURVE SMOOTH",
"296 1104 OFFCURVE",
"436 1332 OFFCURVE",
"704 1332 CURVE SMOOTH"
);
},
{
closed = 1;
nodes = (
"834 1698 OFFCURVE",
"790 1656 OFFCURVE",
"790 1602 CURVE SMOOTH",
"790 1550 OFFCURVE",
"834 1506 OFFCURVE",
"886 1506 CURVE SMOOTH",
"938 1506 OFFCURVE",
"982 1550 OFFCURVE",
"982 1602 CURVE SMOOTH",
"982 1654 OFFCURVE",
"938 1698 OFFCURVE",
"888 1698 CURVE SMOOTH"
);
},
{
closed = 1;
nodes = (
"458 1698 OFFCURVE",
"414 1656 OFFCURVE",
"414 1602 CURVE SMOOTH",
"414 1550 OFFCURVE",
"458 1506 OFFCURVE",
"510 1506 CURVE SMOOTH",
"562 1506 OFFCURVE",
"606 1550 OFFCURVE",
"606 1602 CURVE SMOOTH",
"606 1654 OFFCURVE",
"562 1698 OFFCURVE",
"512 1698 CURVE SMOOTH"
);
}
);
};
components = (
{
name = O;
},
{
name = dieresiscomb;
transform = "{1, 0, 0, 1, 230, 516}";
}
);
layerId = "EA94BB3F-1054-4F03-AAB6-69C3B81B3CC3";
width = 1458;
},
{
layerId = "1A84AFAC-8532-492C-A52A-D2ACD869B7F8";
width = 600;
},
{
layerId = "16E03120-9D89-4B3A-B1E3-633A6E865927";
width = 600;
}
);
leftKerningGroup = O;
note = Odieresis;
rightKerningGroup = O;
unicode = 00D6;
},
{
glyphname = Oslash;
lastChange = "2019-10-14 18:55:54 +0000";
layers = (
{
anchors = (
{
name = bottom;
position = "{870, 0}";
},
{
name = top;
position = "{870, 1430}";
}
);
background = {
paths = (
{
closed = 1;
nodes = (
"1104 1356 LINE",
"1074 1376 LINE",
"1002 1252 LINE",
"936 1290 OFFCURVE",
"926 1296 OFFCURVE",
"912 1302 CURVE",
"840 1338 OFFCURVE",
"758 1358 OFFCURVE",
"686 1358 CURVE SMOOTH",
"540 1358 OFFCURVE",
"370 1274 OFFCURVE",
"250 1140 CURVE SMOOTH",
"134 1010 OFFCURVE",
"74 858 OFFCURVE",
"74 686 CURVE SMOOTH",
"74 544 OFFCURVE",
"118 378 OFFCURVE",
"184 276 CURVE SMOOTH",
"224 214 OFFCURVE",
"266 168 OFFCURVE",
"340 106 CURVE",
"264 -30 LINE",
"296 -48 LINE",
"372 82 LINE",
"484 6 OFFCURVE",
"574 -24 OFFCURVE",
"684 -24 CURVE SMOOTH",
"1018 -24 OFFCURVE",
"1310 296 OFFCURVE",
"1310 662 CURVE SMOOTH",
"1310 788 OFFCURVE",
"1274 920 OFFCURVE",
"1206 1038 CURVE SMOOTH",
"1162 1112 OFFCURVE",
"1126 1154 OFFCURVE",
"1032 1234 CURVE"
);
},
{
closed = 1;
nodes = (
"986 1154 LINE",
"1054 1040 OFFCURVE",
"1088 872 OFFCURVE",
"1088 648 CURVE SMOOTH",
"1088 228 OFFCURVE",
"952 6 OFFCURVE",
"694 6 CURVE SMOOTH",
"574 6 OFFCURVE",
"484 54 OFFCURVE",
"414 156 CURVE"
);
},
{
closed = 1;
nodes = (
"390 190 LINE",
"320 318 OFFCURVE",
"290 460 OFFCURVE",
"290 676 CURVE SMOOTH",
"290 918 OFFCURVE",
"326 1082 OFFCURVE",
"406 1194 CURVE SMOOTH",
"466 1280 OFFCURVE",
"574 1332 OFFCURVE",
"690 1332 CURVE SMOOTH",
"806 1332 OFFCURVE",
"884 1290 OFFCURVE",
"964 1188 CURVE"
);
}
);
};
components = (
{
name = O;
},
{
name = slashlongcomb;
}
);
layerId = "EA94BB3F-1054-4F03-AAB6-69C3B81B3CC3";
width = 1458;
},
{
associatedMasterId = "EA94BB3F-1054-4F03-AAB6-69C3B81B3CC3";
background = {
paths = (
{
closed = 1;
nodes = (
"1104 1356 LINE",
"1074 1376 LINE",
"1002 1252 LINE",
"936 1290 OFFCURVE",
"926 1296 OFFCURVE",
"912 1302 CURVE",
"840 1338 OFFCURVE",
"758 1358 OFFCURVE",
"686 1358 CURVE SMOOTH",
"540 1358 OFFCURVE",
"370 1274 OFFCURVE",
"250 1140 CURVE SMOOTH",
"134 1010 OFFCURVE",
"74 858 OFFCURVE",
"74 686 CURVE SMOOTH",
"74 544 OFFCURVE",
"118 378 OFFCURVE",
"184 276 CURVE SMOOTH",
"224 214 OFFCURVE",
"266 168 OFFCURVE",
"340 106 CURVE",
"264 -30 LINE",
"296 -48 LINE",
"372 82 LINE",
"484 6 OFFCURVE",
"574 -24 OFFCURVE",
"684 -24 CURVE SMOOTH",
"1018 -24 OFFCURVE",
"1310 296 OFFCURVE",
"1310 662 CURVE SMOOTH",
"1310 788 OFFCURVE",
"1274 920 OFFCURVE",
"1206 1038 CURVE SMOOTH",
"1162 1112 OFFCURVE",
"1126 1154 OFFCURVE",
"1032 1234 CURVE"
);
},
{
closed = 1;
nodes = (
"986 1154 LINE",
"1054 1040 OFFCURVE",
"1088 872 OFFCURVE",
"1088 648 CURVE SMOOTH",
"1088 228 OFFCURVE",
"952 6 OFFCURVE",
"694 6 CURVE SMOOTH",
"574 6 OFFCURVE",
"484 54 OFFCURVE",
"414 156 CURVE"
);
},
{
closed = 1;
nodes = (
"390 190 LINE",
"320 318 OFFCURVE",
"290 460 OFFCURVE",
"290 676 CURVE SMOOTH",
"290 918 OFFCURVE",
"326 1082 OFFCURVE",
"406 1194 CURVE SMOOTH",
"466 1280 OFFCURVE",
"574 1332 OFFCURVE",
"690 1332 CURVE SMOOTH",
"806 1332 OFFCURVE",
"884 1290 OFFCURVE",
"964 1188 CURVE"
);
}
);
};
layerId = "7CBF5435-50A9-48C0-B687-F427D0BF7C11";
name = "Regular Sep 22 15, 13:24";
paths = (
{
closed = 1;
nodes = (
"1072 -26 OFFCURVE",
"1266 42 OFFCURVE",
"1412 182 CURVE SMOOTH",
"1556 320 OFFCURVE",
"1634 508 OFFCURVE",
"1634 712 CURVE SMOOTH",
"1634 926 OFFCURVE",
"1548 1116 OFFCURVE",
"1412 1244 CURVE SMOOTH",
"1274 1374 OFFCURVE",
"1062 1460 OFFCURVE",
"870 1460 CURVE SMOOTH",
"678 1460 OFFCURVE",
"466 1370 OFFCURVE",
"330 1244 CURVE SMOOTH",
"196 1118 OFFCURVE",
"106 930 OFFCURVE",
"106 712 CURVE SMOOTH",
"106 508 OFFCURVE",
"184 320 OFFCURVE",
"330 182 CURVE SMOOTH",
"476 44 OFFCURVE",
"668 -26 OFFCURVE",
"870 -26 CURVE SMOOTH"
);
},
{
closed = 1;
nodes = (
"554 4 OFFCURVE",
"342 288 OFFCURVE",
"342 712 CURVE SMOOTH",
"342 1142 OFFCURVE",
"554 1430 OFFCURVE",
"870 1430 CURVE SMOOTH",
"1186 1430 OFFCURVE",
"1398 1142 OFFCURVE",
"1398 712 CURVE SMOOTH",
"1398 288 OFFCURVE",
"1186 4 OFFCURVE",
"870 4 CURVE SMOOTH"
);
}
);
width = 1740;
},
{
layerId = "1A84AFAC-8532-492C-A52A-D2ACD869B7F8";
width = 600;
},
{
layerId = "16E03120-9D89-4B3A-B1E3-633A6E865927";
width = 600;
}
);
leftKerningGroup = O;
note = Oslash;
rightKerningGroup = O;
unicode = 00D8;
},
{
glyphname = OE;
lastChange = "2019-10-14 18:55:54 +0000";
layers = (
{
anchors = (
{
name = bottom;
position = "{1030, 0}";
},
{
name = top;
position = "{1030, 1430}";
}
);
background = {
paths = (
{
closed = 1;
nodes = (
"1074 -26 OFFCURVE",
"1268 42 OFFCURVE",
"1414 182 CURVE SMOOTH",
"1468 234 OFFCURVE",
"1484 292 OFFCURVE",
"1484 354 CURVE SMOOTH",
"1484 462 OFFCURVE",
"1436 584 OFFCURVE",
"1436 712 CURVE SMOOTH",
"1436 846 OFFCURVE",
"1480 970 OFFCURVE",
"1480 1076 CURVE SMOOTH",
"1480 1140 OFFCURVE",
"1464 1196 OFFCURVE",
"1414 1244 CURVE SMOOTH",
"1276 1374 OFFCURVE",
"1064 1460 OFFCURVE",
"872 1460 CURVE SMOOTH",
"680 1460 OFFCURVE",
"468 1370 OFFCURVE",
"332 1244 CURVE SMOOTH",
"198 1118 OFFCURVE",
"108 930 OFFCURVE",
"108 712 CURVE SMOOTH",
"108 508 OFFCURVE",
"186 320 OFFCURVE",
"332 182 CURVE SMOOTH",
"478 44 OFFCURVE",
"670 -26 OFFCURVE",
"872 -26 CURVE SMOOTH"
);
},
{
closed = 1;
nodes = (
"556 4 OFFCURVE",
"344 288 OFFCURVE",
"344 712 CURVE SMOOTH",
"344 1142 OFFCURVE",
"556 1430 OFFCURVE",
"872 1430 CURVE SMOOTH",
"1188 1430 OFFCURVE",
"1400 1142 OFFCURVE",
"1400 712 CURVE SMOOTH",
"1400 288 OFFCURVE",
"1188 4 OFFCURVE",
"872 4 CURVE SMOOTH"
);
},
{
closed = 1;
nodes = (
"2250 0 LINE",
"2250 36 LINE",
"1606 36 LINE",
"1606 710 LINE",
"2250 710 LINE",
"2250 746 LINE",
"1606 746 LINE",
"1606 1394 LINE",
"2250 1394 LINE",
"2250 1430 LINE",
"1400 1430 LINE",
"1400 0 LINE"
);
}
);
};
layerId = "EA94BB3F-1054-4F03-AAB6-69C3B81B3CC3";
paths = (
{
closed = 1;
nodes = (
"1073 -26 OFFCURVE",
"1351 296 OFFCURVE",
"1351 712 CURVE SMOOTH",
"1351 1119 OFFCURVE",
"1069 1460 OFFCURVE",
"697 1460 CURVE SMOOTH",
"332 1460 OFFCURVE",
"42 1123 OFFCURVE",
"42 712 CURVE SMOOTH",
"42 302 OFFCURVE",
"319 -26 OFFCURVE",
"697 -26 CURVE SMOOTH"
);
},
{
closed = 1;
nodes = (
"425 4 OFFCURVE",
"248 288 OFFCURVE",
"248 712 CURVE SMOOTH",
"248 1142 OFFCURVE",
"425 1430 OFFCURVE",
"697 1430 CURVE SMOOTH",
"968 1430 OFFCURVE",
"1149 1142 OFFCURVE",
"1149 712 CURVE SMOOTH",
"1149 288 OFFCURVE",
"968 4 OFFCURVE",
"697 4 CURVE SMOOTH"
);
},
{
closed = 1;
nodes = (
"1964 0 LINE",
"1964 36 LINE",
"1262 36 LINE",
"1360 23 LINE",
"1360 725 LINE",
"1262 710 LINE",
"1964 710 LINE",
"1964 746 LINE",
"1262 746 LINE",
"1360 733 LINE",
"1360 1417 LINE",
"1262 1394 LINE",
"1964 1394 LINE",
"1964 1430 LINE",
"1154 1430 LINE",
"1154 0 LINE"
);
}
);
width = 2060;
},
{
layerId = "1A84AFAC-8532-492C-A52A-D2ACD869B7F8";
width = 600;
},
{
layerId = "16E03120-9D89-4B3A-B1E3-633A6E865927";
width = 600;
}
);
leftKerningGroup = O;
leftMetricsKey = O;
note = OE;
rightKerningGroup = E;
rightMetricsKey = E;
unicode = 0152;
},
{
glyphname = P;
lastChange = "2019-10-14 18:55:54 +0000";
layers = (
{
background = {
paths = (
{
closed = 1;
nodes = (
"424 626 LINE",
"496 598 OFFCURVE",
"552 588 OFFCURVE",
"640 588 CURVE SMOOTH",
"952 588 OFFCURVE",
"1164 742 OFFCURVE",
"1164 966 CURVE SMOOTH",
"1164 1110 OFFCURVE",
"1088 1216 OFFCURVE",
"938 1278 CURVE SMOOTH",
"840 1320 OFFCURVE",
"752 1334 OFFCURVE",
"590 1334 CURVE SMOOTH",
"34 1334 LINE",
"34 1300 LINE",
"228 1300 LINE",
"228 34 LINE",
"34 34 LINE",
"34 0 LINE",
"628 0 LINE",
"628 34 LINE",
"424 34 LINE"
);
},
{
closed = 1;
nodes = (
"424 1300 LINE",
"462 1304 OFFCURVE",
"482 1304 OFFCURVE",
"508 1304 CURVE SMOOTH",
"634 1304 OFFCURVE",
"744 1284 OFFCURVE",
"802 1252 CURVE SMOOTH",
"904 1194 OFFCURVE",
"956 1090 OFFCURVE",
"956 944 CURVE SMOOTH",
"956 848 OFFCURVE",
"936 788 OFFCURVE",
"886 734 CURVE SMOOTH",
"822 662 OFFCURVE",
"718 622 OFFCURVE",
"598 622 CURVE SMOOTH",
"528 622 OFFCURVE",
"482 634 OFFCURVE",
"424 664 CURVE"
);
}
);
};
layerId = "EA94BB3F-1054-4F03-AAB6-69C3B81B3CC3";
paths = (
{
closed = 1;
nodes = (
"330 0 LINE",
"330 655 LINE",
"237 642 LINE",
"472 642 LINE SMOOTH",
"682 642 OFFCURVE",
"758 654 OFFCURVE",
"832 714 CURVE SMOOTH",
"918 784 OFFCURVE",
"978 898 OFFCURVE",
"978 1036 CURVE SMOOTH",
"978 1169 OFFCURVE",
"923 1288 OFFCURVE",
"832 1358 CURVE SMOOTH",
"764 1410 OFFCURVE",
"682 1430 OFFCURVE",
"472 1430 CURVE SMOOTH",
"124 1430 LINE",
"124 0 LINE"
);
},
{
closed = 1;
nodes = (
"330 1417 LINE",
"237 1394 LINE",
"424 1394 LINE SMOOTH",
"710 1394 OFFCURVE",
"760 1208 OFFCURVE",
"760 1026 CURVE SMOOTH",
"760 856 OFFCURVE",
"716 678 OFFCURVE",
"424 678 CURVE SMOOTH",
"237 678 LINE",
"330 665 LINE"
);
}
);
width = 1016;
},
{
layerId = "1A84AFAC-8532-492C-A52A-D2ACD869B7F8";
width = 600;
},
{
layerId = "16E03120-9D89-4B3A-B1E3-633A6E865927";
width = 600;
}
);
leftKerningGroup = H;
note = P;
rightKerningGroup = P;
unicode = 0050;
},
{
glyphname = Thorn;
lastChange = "2019-10-14 18:55:54 +0000";
layers = (
{
background = {
paths = (
{
closed = 1;
nodes = (
"454 470 LINE",
"532 442 OFFCURVE",
"592 430 OFFCURVE",
"686 430 CURVE SMOOTH",
"1020 430 OFFCURVE",
"1248 596 OFFCURVE",
"1248 836 CURVE SMOOTH",
"1248 990 OFFCURVE",
"1166 1102 OFFCURVE",
"1006 1170 CURVE SMOOTH",
"900 1214 OFFCURVE",
"806 1228 OFFCURVE",
"632 1228 CURVE SMOOTH",
"454 1228 LINE",
"454 1394 LINE",
"672 1394 LINE",
"672 1430 LINE",
"36 1430 LINE",
"36 1394 LINE",
"244 1394 LINE",
"244 36 LINE",
"36 36 LINE",
"36 0 LINE",
"674 0 LINE",
"674 36 LINE",
"454 36 LINE"
);
},
{
closed = 1;
nodes = (
"454 1192 LINE",
"496 1196 OFFCURVE",
"514 1196 OFFCURVE",
"544 1196 CURVE SMOOTH",
"682 1196 OFFCURVE",
"796 1174 OFFCURVE",
"860 1140 CURVE SMOOTH",
"970 1078 OFFCURVE",
"1024 970 OFFCURVE",
"1024 812 CURVE SMOOTH",
"1024 710 OFFCURVE",
"1004 644 OFFCURVE",
"950 586 CURVE SMOOTH",
"882 510 OFFCURVE",
"770 468 OFFCURVE",
"642 468 CURVE SMOOTH",
"566 468 OFFCURVE",
"516 478 OFFCURVE",
"454 510 CURVE"
);
}
);
};
layerId = "EA94BB3F-1054-4F03-AAB6-69C3B81B3CC3";
paths = (
{
closed = 1;
nodes = (
"330 0 LINE",
"330 423 LINE",
"237 410 LINE",
"472 410 LINE SMOOTH",
"682 410 OFFCURVE",
"758 422 OFFCURVE",
"832 482 CURVE SMOOTH",
"918 552 OFFCURVE",
"978 666 OFFCURVE",
"978 804 CURVE SMOOTH",
"978 937 OFFCURVE",
"923 1056 OFFCURVE",
"832 1126 CURVE SMOOTH",
"764 1178 OFFCURVE",
"682 1198 OFFCURVE",
"472 1198 CURVE SMOOTH",
"237 1198 LINE",
"330 1185 LINE",
"330 1430 LINE",
"124 1430 LINE",
"124 0 LINE"
);
},
{
closed = 1;
nodes = (
"330 1175 LINE",
"237 1162 LINE",
"424 1162 LINE SMOOTH",
"710 1162 OFFCURVE",
"760 976 OFFCURVE",
"760 794 CURVE SMOOTH",
"760 624 OFFCURVE",
"716 446 OFFCURVE",
"424 446 CURVE SMOOTH",
"237 446 LINE",
"330 433 LINE"
);
}
);
width = 1016;
},
{
layerId = "1A84AFAC-8532-492C-A52A-D2ACD869B7F8";
width = 600;
},
{
layerId = "16E03120-9D89-4B3A-B1E3-633A6E865927";
width = 600;
}
);
leftKerningGroup = H;
note = Thorn;
rightKerningGroup = Thorn;
unicode = 00DE;
},
{
glyphname = Q;
lastChange = "2019-10-14 18:55:54 +0000";
layers = (
{
background = {
paths = (
{
closed = 1;
nodes = (
"976 -18 LINE",
"1080 8 OFFCURVE",
"1138 34 OFFCURVE",
"1210 84 CURVE SMOOTH",
"1420 220 OFFCURVE",
"1542 454 OFFCURVE",
"1542 712 CURVE SMOOTH",
"1542 884 OFFCURVE",
"1488 1052 OFFCURVE",
"1388 1184 CURVE SMOOTH",
"1262 1346 OFFCURVE",
"1054 1460 OFFCURVE",
"876 1460 CURVE SMOOTH",
"726 1460 OFFCURVE",
"556 1382 OFFCURVE",
"428 1252 CURVE SMOOTH",
"282 1106 OFFCURVE",
"208 928 OFFCURVE",
"208 722 CURVE SMOOTH",
"208 364 OFFCURVE",
"432 66 OFFCURVE",
"772 -18 CURVE",
"772 -188 LINE SMOOTH",
"772 -258 OFFCURVE",
"790 -302 OFFCURVE",
"834 -336 CURVE SMOOTH",
"896 -388 OFFCURVE",
"1070 -428 OFFCURVE",
"1224 -428 CURVE SMOOTH",
"1262 -428 OFFCURVE",
"1292 -428 OFFCURVE",
"1348 -424 CURVE",
"1348 -388 LINE",
"1300 -392 OFFCURVE",
"1260 -394 OFFCURVE",
"1230 -394 CURVE SMOOTH",
"1146 -394 OFFCURVE",
"1070 -378 OFFCURVE",
"1024 -348 CURVE SMOOTH",
"988 -324 OFFCURVE",
"976 -292 OFFCURVE",
"976 -220 CURVE SMOOTH"
);
},
{
closed = 1;
nodes = (
"1152 1428 OFFCURVE",
"1306 1172 OFFCURVE",
"1306 720 CURVE SMOOTH",
"1306 242 OFFCURVE",
"1164 6 OFFCURVE",
"874 6 CURVE SMOOTH",
"588 6 OFFCURVE",
"446 244 OFFCURVE",
"446 718 CURVE SMOOTH",
"446 1184 OFFCURVE",
"596 1428 OFFCURVE",
"882 1428 CURVE SMOOTH"
);
}
);
};
components = (
{
name = O;
}
);
layerId = "EA94BB3F-1054-4F03-AAB6-69C3B81B3CC3";
paths = (
{
closed = 1;
nodes = (
"1098 -408 OFFCURVE",
"1136 -394 OFFCURVE",
"1136 -350 CURVE",
"1036 -350 LINE SMOOTH",
"894 -350 OFFCURVE",
"822 -272 OFFCURVE",
"822 -196 CURVE SMOOTH",
"822 -8 LINE",
"628 -8 LINE",
"628 -182 LINE SMOOTH",
"628 -290 OFFCURVE",
"693 -342 OFFCURVE",
"773 -371 CURVE SMOOTH",
"842 -396 OFFCURVE",
"934 -408 OFFCURVE",
"1013 -408 CURVE SMOOTH"
);
}
);
width = 1458;
},
{
layerId = "1A84AFAC-8532-492C-A52A-D2ACD869B7F8";
width = 600;
},
{
layerId = "16E03120-9D89-4B3A-B1E3-633A6E865927";
width = 600;
}
);
leftKerningGroup = O;
leftMetricsKey = O;
note = Q;
rightKerningGroup = O;
rightMetricsKey = O;
unicode = 0051;
},
{
glyphname = R;
lastChange = "2019-10-14 18:55:54 +0000";
layers = (
{
anchors = (
{
name = bottom;
position = "{606, 0}";
},
{
name = top;
position = "{586, 1430}";
}
);
background = {
anchors = (
{
name = bottom;
position = "{606, 0}";
},
{
name = top;
position = "{586, 1430}";
}
);
paths = (
{
closed = 1;
nodes = (
"330 0 LINE",
"330 740 LINE",
"466 740 LINE SMOOTH",
"758 740 OFFCURVE",
"716 612 OFFCURVE",
"864 0 CURVE",
"1086 0 LINE",
"934 560 OFFCURVE",
"992 760 OFFCURVE",
"690 760 CURVE",
"806 758 OFFCURVE",
"856 788 OFFCURVE",
"888 814 CURVE SMOOTH",
"964 876 OFFCURVE",
"1020 962 OFFCURVE",
"1020 1084 CURVE SMOOTH",
"1020 1312 OFFCURVE",
"826 1430 OFFCURVE",
"516 1430 CURVE SMOOTH",
"124 1430 LINE",
"124 0 LINE"
);
},
{
closed = 1;
nodes = (
"330 1394 LINE",
"516 1394 LINE SMOOTH",
"772 1394 OFFCURVE",
"802 1218 OFFCURVE",
"802 1074 CURVE SMOOTH",
"802 904 OFFCURVE",
"758 776 OFFCURVE",
"516 776 CURVE SMOOTH",
"330 776 LINE"
);
}
);
};
layerId = "EA94BB3F-1054-4F03-AAB6-69C3B81B3CC3";
paths = (
{
closed = 1;
nodes = (
"330 0 LINE",
"330 733 LINE",
"237 720 LINE",
"466 720 LINE SMOOTH",
"613 720 OFFCURVE",
"672 691 OFFCURVE",
"715 597 CURVE SMOOTH",
"741 542 OFFCURVE",
"750 507 OFFCURVE",
"814 219 CURVE SMOOTH",
"836 120 OFFCURVE",
"849 61 OFFCURVE",
"864 0 CURVE",
"1086 0 LINE",
"1064 78 OFFCURVE",
"1045 158 OFFCURVE",
"1021 268 CURVE SMOOTH",
"953 576 OFFCURVE",
"938 623 OFFCURVE",
"888 675 CURVE SMOOTH",
"847 717 OFFCURVE",
"785 737 OFFCURVE",
"690 738 CURVE",
"690 742 LINE",
"892 742 OFFCURVE",
"1020 860 OFFCURVE",
"1020 1072 CURVE SMOOTH",
"1020 1319 OFFCURVE",
"845 1430 OFFCURVE",
"516 1430 CURVE SMOOTH",
"124 1430 LINE",
"124 0 LINE"
);
},
{
closed = 1;
nodes = (
"330 1407 LINE",
"237 1394 LINE",
"516 1394 LINE SMOOTH",
"772 1394 OFFCURVE",
"802 1218 OFFCURVE",
"802 1076 CURVE SMOOTH",
"802 903 OFFCURVE",
"758 756 OFFCURVE",
"516 756 CURVE SMOOTH",
"237 756 LINE",
"330 743 LINE"
);
}
);
width = 1130;
},
{
layerId = "1A84AFAC-8532-492C-A52A-D2ACD869B7F8";
width = 600;
},
{
layerId = "16E03120-9D89-4B3A-B1E3-633A6E865927";
width = 600;
}
);
leftKerningGroup = H;
note = R;
rightKerningGroup = R;
unicode = 0052;
},
{
glyphname = S;
lastChange = "2019-10-14 18:55:54 +0000";
layers = (
{
anchors = (
{
name = bottom;
position = "{568, 0}";
},
{
name = top;
position = "{542, 1430}";
}
);
background = {
paths = (
{
closed = 1;
nodes = (
"134 510 LINE",
"134 -16 LINE",
"170 -16 LINE",
"178 56 OFFCURVE",
"190 80 OFFCURVE",
"226 80 CURVE SMOOTH",
"246 80 OFFCURVE",
"270 72 OFFCURVE",
"306 60 CURVE",
"372 32 LINE SMOOTH",
"490 -12 OFFCURVE",
"556 -28 OFFCURVE",
"660 -28 CURVE SMOOTH",
"932 -28 OFFCURVE",
"1120 158 OFFCURVE",
"1120 430 CURVE SMOOTH",
"1120 564 OFFCURVE",
"1074 674 OFFCURVE",
"992 738 CURVE SMOOTH",
"926 786 OFFCURVE",
"830 818 OFFCURVE",
"690 840 CURVE SMOOTH",
"582 856 LINE SMOOTH",
"328 892 OFFCURVE",
"232 964 OFFCURVE",
"232 1128 CURVE SMOOTH",
"232 1306 OFFCURVE",
"366 1428 OFFCURVE",
"560 1428 CURVE SMOOTH",
"702 1428 OFFCURVE",
"842 1362 OFFCURVE",
"914 1256 CURVE SMOOTH",
"970 1178 OFFCURVE",
"996 1100 OFFCURVE",
"1002 984 CURVE",
"1038 984 LINE",
"1038 1412 LINE",
"1002 1412 LINE",
"998 1350 OFFCURVE",
"984 1328 OFFCURVE",
"952 1330 CURVE",
"938 1330 OFFCURVE",
"926 1334 OFFCURVE",
"910 1342 CURVE SMOOTH",
"878 1362 LINE SMOOTH",
"724 1450 OFFCURVE",
"684 1462 OFFCURVE",
"576 1462 CURVE SMOOTH",
"320 1462 OFFCURVE",
"144 1286 OFFCURVE",
"144 1034 CURVE SMOOTH",
"144 918 OFFCURVE",
"184 810 OFFCURVE",
"246 748 CURVE SMOOTH",
"302 692 OFFCURVE",
"394 658 OFFCURVE",
"550 634 CURVE SMOOTH",
"662 616 LINE SMOOTH",
"808 594 OFFCURVE",
"878 570 OFFCURVE",
"936 524 CURVE",
"996 478 OFFCURVE",
"1026 414 OFFCURVE",
"1026 334 CURVE SMOOTH",
"1026 140 OFFCURVE",
"876 6 OFFCURVE",
"658 6 CURVE SMOOTH",
"484 6 OFFCURVE",
"316 96 OFFCURVE",
"238 236 CURVE SMOOTH",
"196 306 OFFCURVE",
"182 374 OFFCURVE",
"170 510 CURVE"
);
}
);
};
layerId = "EA94BB3F-1054-4F03-AAB6-69C3B81B3CC3";
paths = (
{
closed = 1;
nodes = (
"896 -26 OFFCURVE",
"1052 152 OFFCURVE",
"1052 416 CURVE SMOOTH",
"1052 698 OFFCURVE",
"875 788 OFFCURVE",
"594 876 CURVE SMOOTH",
"441 924 OFFCURVE",
"278 966 OFFCURVE",
"278 1147 CURVE SMOOTH",
"278 1293 OFFCURVE",
"385 1434 OFFCURVE",
"525 1434 CURVE SMOOTH",
"673 1434 OFFCURVE",
"820 1278 OFFCURVE",
"832 1120 CURVE",
"984 1120 LINE",
"938 1368 OFFCURVE",
"742 1464 OFFCURVE",
"542 1464 CURVE SMOOTH",
"222 1464 OFFCURVE",
"120 1218 OFFCURVE",
"120 1060 CURVE SMOOTH",
"120 865 OFFCURVE",
"275 774 OFFCURVE",
"534 682 CURVE SMOOTH",
"733 611 OFFCURVE",
"908 571 OFFCURVE",
"908 358 CURVE SMOOTH",
"908 172 OFFCURVE",
"774 10 OFFCURVE",
"584 10 CURVE SMOOTH",
"376 10 OFFCURVE",
"265 206 OFFCURVE",
"244 420 CURVE",
"82 420 LINE",
"116 54 OFFCURVE",
"352 -26 OFFCURVE",
"570 -26 CURVE SMOOTH"
);
}
);
width = 1106;
},
{
associatedMasterId = "EA94BB3F-1054-4F03-AAB6-69C3B81B3CC3";
background = {
paths = (
{
closed = 1;
nodes = (
"122 510 LINE",
"122 -16 LINE",
"158 -16 LINE",
"166 56 OFFCURVE",
"178 80 OFFCURVE",
"214 80 CURVE SMOOTH",
"234 80 OFFCURVE",
"258 72 OFFCURVE",
"294 60 CURVE",
"360 32 LINE SMOOTH",
"478 -12 OFFCURVE",
"544 -28 OFFCURVE",
"648 -28 CURVE SMOOTH",
"920 -28 OFFCURVE",
"1108 158 OFFCURVE",
"1108 430 CURVE SMOOTH",
"1108 564 OFFCURVE",
"1062 674 OFFCURVE",
"980 738 CURVE SMOOTH",
"914 786 OFFCURVE",
"818 818 OFFCURVE",
"678 840 CURVE SMOOTH",
"570 856 LINE SMOOTH",
"316 892 OFFCURVE",
"220 964 OFFCURVE",
"220 1128 CURVE SMOOTH",
"220 1306 OFFCURVE",
"354 1428 OFFCURVE",
"548 1428 CURVE SMOOTH",
"690 1428 OFFCURVE",
"830 1362 OFFCURVE",
"902 1256 CURVE SMOOTH",
"958 1178 OFFCURVE",
"984 1100 OFFCURVE",
"990 984 CURVE",
"1026 984 LINE",
"1026 1412 LINE",
"990 1412 LINE",
"986 1350 OFFCURVE",
"972 1328 OFFCURVE",
"940 1330 CURVE",
"926 1330 OFFCURVE",
"914 1334 OFFCURVE",
"898 1342 CURVE SMOOTH",
"866 1362 LINE SMOOTH",
"712 1450 OFFCURVE",
"672 1462 OFFCURVE",
"564 1462 CURVE SMOOTH",
"308 1462 OFFCURVE",
"132 1286 OFFCURVE",
"132 1034 CURVE SMOOTH",
"132 918 OFFCURVE",
"172 810 OFFCURVE",
"234 748 CURVE SMOOTH",
"290 692 OFFCURVE",
"382 658 OFFCURVE",
"538 634 CURVE SMOOTH",
"650 616 LINE SMOOTH",
"796 594 OFFCURVE",
"866 570 OFFCURVE",
"924 524 CURVE",
"984 478 OFFCURVE",
"1014 414 OFFCURVE",
"1014 334 CURVE SMOOTH",
"1014 140 OFFCURVE",
"864 6 OFFCURVE",
"646 6 CURVE SMOOTH",
"472 6 OFFCURVE",
"304 96 OFFCURVE",
"226 236 CURVE SMOOTH",
"184 306 OFFCURVE",
"170 374 OFFCURVE",
"158 510 CURVE"
);
}
);
};
layerId = "F316E7BC-0223-4E5C-A467-02236A855F32";
name = "Regular Sep 21 15, 01:08";
paths = (
{
closed = 1;
nodes = (
"932 -26 OFFCURVE",
"1092 228 OFFCURVE",
"1092 464 CURVE SMOOTH",
"1092 756 OFFCURVE",
"850 838 OFFCURVE",
"664 890 CURVE SMOOTH",
"424 958 OFFCURVE",
"266 970 OFFCURVE",
"266 1140 CURVE SMOOTH",
"266 1288 OFFCURVE",
"388 1420 OFFCURVE",
"540 1420 CURVE SMOOTH",
"698 1420 OFFCURVE",
"810 1274 OFFCURVE",
"850 1120 CURVE",
"1040 1120 LINE",
"1030 1348 OFFCURVE",
"774 1464 OFFCURVE",
"560 1464 CURVE SMOOTH",
"262 1464 OFFCURVE",
"134 1242 OFFCURVE",
"134 1036 CURVE SMOOTH",
"134 894 OFFCURVE",
"198 724 OFFCURVE",
"538 662 CURVE SMOOTH",
"706 632 OFFCURVE",
"958 552 OFFCURVE",
"958 368 CURVE SMOOTH",
"958 214 OFFCURVE",
"784 22 OFFCURVE",
"626 22 CURVE SMOOTH",
"466 22 OFFCURVE",
"276 212 OFFCURVE",
"256 420 CURVE",
"58 420 LINE",
"88 74 OFFCURVE",
"398 -26 OFFCURVE",
"604 -26 CURVE SMOOTH"
);
}
);
width = 1568;
},
{
layerId = "1A84AFAC-8532-492C-A52A-D2ACD869B7F8";
width = 600;
},
{
layerId = "16E03120-9D89-4B3A-B1E3-633A6E865927";
width = 600;
}
);
leftKerningGroup = S;
note = S;
rightKerningGroup = S;
unicode = 0053;
},
{
glyphname = Scedilla;
lastChange = "2019-10-14 18:55:54 +0000";
layers = (
{
background = {
paths = (
{
closed = 1;
nodes = (
"114 -14 LINE",
"148 -14 LINE",
"154 52 OFFCURVE",
"166 74 OFFCURVE",
"200 74 CURVE SMOOTH",
"218 74 OFFCURVE",
"240 68 OFFCURVE",
"274 56 CURVE",
"434 -8 OFFCURVE",
"448 -12 OFFCURVE",
"550 -24 CURVE",
"438 -216 LINE",
"454 -230 LINE",
"492 -210 OFFCURVE",
"502 -206 OFFCURVE",
"528 -206 CURVE SMOOTH",
"586 -206 OFFCURVE",
"626 -242 OFFCURVE",
"626 -292 CURVE SMOOTH",
"626 -350 OFFCURVE",
"578 -392 OFFCURVE",
"512 -392 CURVE SMOOTH",
"464 -392 OFFCURVE",
"406 -380 OFFCURVE",
"368 -360 CURVE",
"354 -388 LINE",
"414 -416 OFFCURVE",
"480 -432 OFFCURVE",
"540 -432 CURVE SMOOTH",
"664 -432 OFFCURVE",
"756 -372 OFFCURVE",
"756 -290 CURVE SMOOTH",
"756 -220 OFFCURVE",
"692 -170 OFFCURVE",
"600 -170 CURVE SMOOTH",
"562 -170 OFFCURVE",
"534 -176 OFFCURVE",
"490 -192 CURVE",
"586 -26 LINE",
"608 -26 LINE SMOOTH",
"858 -26 OFFCURVE",
"1034 150 OFFCURVE",
"1034 400 CURVE SMOOTH",
"1034 526 OFFCURVE",
"992 628 OFFCURVE",
"914 688 CURVE SMOOTH",
"852 734 OFFCURVE",
"764 764 OFFCURVE",
"632 784 CURVE SMOOTH",
"532 798 LINE SMOOTH",
"294 832 OFFCURVE",
"206 900 OFFCURVE",
"206 1052 CURVE SMOOTH",
"206 1218 OFFCURVE",
"330 1332 OFFCURVE",
"512 1332 CURVE SMOOTH",
"644 1332 OFFCURVE",
"774 1270 OFFCURVE",
"842 1172 CURVE SMOOTH",
"894 1098 OFFCURVE",
"918 1026 OFFCURVE",
"924 918 CURVE",
"958 918 LINE",
"958 1318 LINE",
"924 1318 LINE",
"920 1260 OFFCURVE",
"906 1238 OFFCURVE",
"876 1240 CURVE",
"864 1240 OFFCURVE",
"852 1244 OFFCURVE",
"838 1252 CURVE SMOOTH",
"808 1270 LINE SMOOTH",
"664 1352 OFFCURVE",
"626 1364 OFFCURVE",
"526 1364 CURVE SMOOTH",
"288 1364 OFFCURVE",
"124 1200 OFFCURVE",
"124 964 CURVE SMOOTH",
"124 856 OFFCURVE",
"160 756 OFFCURVE",
"218 698 CURVE SMOOTH",
"270 646 OFFCURVE",
"356 614 OFFCURVE",
"502 592 CURVE SMOOTH",
"606 574 LINE SMOOTH",
"742 554 OFFCURVE",
"808 532 OFFCURVE",
"862 488 CURVE",
"918 446 OFFCURVE",
"946 386 OFFCURVE",
"946 312 CURVE SMOOTH",
"946 130 OFFCURVE",
"806 6 OFFCURVE",
"602 6 CURVE SMOOTH",
"440 6 OFFCURVE",
"284 90 OFFCURVE",
"210 220 CURVE SMOOTH",
"172 286 OFFCURVE",
"158 348 OFFCURVE",
"148 476 CURVE",
"114 476 LINE"
);
}
);
};
components = (
{
name = S;
},
{
name = cedillacomb;
transform = "{1, 0, 0, 1, 18, 0}";
}
);
layerId = "EA94BB3F-1054-4F03-AAB6-69C3B81B3CC3";
width = 1106;
},
{
layerId = "1A84AFAC-8532-492C-A52A-D2ACD869B7F8";
width = 600;
},
{
layerId = "16E03120-9D89-4B3A-B1E3-633A6E865927";
width = 600;
}
);
leftKerningGroup = S;
note = Scedilla;
rightKerningGroup = S;
unicode = 015E;
},
{
glyphname = T;
lastChange = "2019-10-14 18:55:54 +0000";
layers = (
{
anchors = (
{
name = bottom;
position = "{590, 0}";
},
{
name = center;
position = "{590, 716}";
},
{
name = top;
position = "{590, 1430}";
}
);
background = {
paths = (
{
closed = 1;
nodes = (
"534 1300 LINE",
"534 34 LINE",
"320 34 LINE",
"320 0 LINE",
"942 0 LINE",
"942 34 LINE",
"728 34 LINE",
"728 1300 LINE",
"790 1300 LINE SMOOTH",
"866 1300 OFFCURVE",
"946 1294 OFFCURVE",
"1002 1284 CURVE SMOOTH",
"1108 1264 OFFCURVE",
"1154 1234 OFFCURVE",
"1174 1170 CURVE SMOOTH",
"1190 1118 OFFCURVE",
"1200 1044 OFFCURVE",
"1200 962 CURVE SMOOTH",
"1200 934 LINE",
"1234 934 LINE",
"1218 1334 LINE",
"44 1334 LINE",
"28 934 LINE",
"62 934 LINE",
"62 960 LINE SMOOTH",
"62 1120 OFFCURVE",
"84 1194 OFFCURVE",
"148 1234 CURVE",
"222 1284 OFFCURVE",
"306 1300 OFFCURVE",
"500 1300 CURVE SMOOTH"
);
}
);
};
layerId = "EA94BB3F-1054-4F03-AAB6-69C3B81B3CC3";
paths = (
{
closed = 1;
nodes = (
"694 0 LINE",
"694 1417 LINE",
"601 1394 LINE",
"1118 1394 LINE",
"1118 1430 LINE",
"60 1430 LINE",
"60 1394 LINE",
"581 1394 LINE",
"488 1417 LINE",
"488 0 LINE"
);
}
);
width = 1178;
},
{
layerId = "1A84AFAC-8532-492C-A52A-D2ACD869B7F8";
width = 600;
},
{
layerId = "16E03120-9D89-4B3A-B1E3-633A6E865927";
width = 600;
}
);
leftKerningGroup = T;
note = T;
rightKerningGroup = T;
unicode = 0054;
},
{
glyphname = U;
lastChange = "2019-10-14 18:55:54 +0000";
layers = (
{
anchors = (
{
name = bottom;
position = "{646, 13}";
},
{
name = ogonek;
position = "{904, 33}";
},
{
name = top;
position = "{646, 1443}";
},
{
name = topright;
position = "{1326, 1443}";
}
);
background = {
paths = (
{
closed = 1;
nodes = (
"768 697 LINE",
"768 715 LINE",
"521 715 LINE",
"521 697 LINE",
"573 697 LINE SMOOTH",
"635 697 OFFCURVE",
"646 684 OFFCURVE",
"646 609 CURVE SMOOTH",
"646 240 LINE SMOOTH",
"646 158 OFFCURVE",
"636 120 OFFCURVE",
"605 80 CURVE SMOOTH",
"564 29 OFFCURVE",
"503 4 OFFCURVE",
"421 4 CURVE SMOOTH",
"343 4 OFFCURVE",
"287 25 OFFCURVE",
"248 64 CURVE SMOOTH",
"218 96 OFFCURVE",
"212 123 OFFCURVE",
"212 218 CURVE SMOOTH",
"212 697 LINE",
"323 697 LINE",
"323 715 LINE",
"2 715 LINE",
"2 697 LINE",
"105 697 LINE",
"105 223 LINE SMOOTH",
"105 125 OFFCURVE",
"111 100 OFFCURVE",
"141 65 CURVE SMOOTH",
"188 11 OFFCURVE",
"268 -15 OFFCURVE",
"394 -15 CURVE SMOOTH",
"485 -15 OFFCURVE",
"547 2 OFFCURVE",
"593 41 CURVE SMOOTH",
"644 84 OFFCURVE",
"664 141 OFFCURVE",
"664 243 CURVE SMOOTH",
"664 609 LINE SMOOTH",
"664 682 OFFCURVE",
"675 697 OFFCURVE",
"724 697 CURVE SMOOTH"
);
}
);
};
layerId = "EA94BB3F-1054-4F03-AAB6-69C3B81B3CC3";
paths = (
{
closed = 1;
nodes = (
"970 -26 OFFCURVE",
"1234 236 OFFCURVE",
"1234 560 CURVE SMOOTH",
"1234 1430 LINE",
"1198 1430 LINE",
"1198 552 LINE SMOOTH",
"1198 212 OFFCURVE",
"900 10 OFFCURVE",
"650 10 CURVE SMOOTH",
"458 10 OFFCURVE",
"268 130 OFFCURVE",
"268 552 CURVE SMOOTH",
"268 1430 LINE",
"62 1430 LINE",
"62 560 LINE SMOOTH",
"62 236 OFFCURVE",
"326 -26 OFFCURVE",
"648 -26 CURVE SMOOTH"
);
}
);
width = 1296;
},
{
associatedMasterId = "EA94BB3F-1054-4F03-AAB6-69C3B81B3CC3";
background = {
paths = (
{
closed = 1;
nodes = (
"722 650 LINE",
"722 667 LINE",
"492 667 LINE",
"492 650 LINE",
"540 650 LINE SMOOTH",
"598 650 OFFCURVE",
"608 638 OFFCURVE",
"608 568 CURVE SMOOTH",
"608 224 LINE SMOOTH",
"608 147 OFFCURVE",
"599 112 OFFCURVE",
"570 75 CURVE SMOOTH",
"532 27 OFFCURVE",
"475 4 OFFCURVE",
"398 4 CURVE SMOOTH",
"326 4 OFFCURVE",
"273 23 OFFCURVE",
"237 60 CURVE SMOOTH",
"209 90 OFFCURVE",
"203 115 OFFCURVE",
"203 203 CURVE SMOOTH",
"203 650 LINE",
"307 650 LINE",
"307 667 LINE",
"7 667 LINE",
"7 650 LINE",
"104 650 LINE",
"104 208 LINE SMOOTH",
"104 117 OFFCURVE",
"109 93 OFFCURVE",
"137 61 CURVE SMOOTH",
"181 10 OFFCURVE",
"256 -14 OFFCURVE",
"373 -14 CURVE SMOOTH",
"458 -14 OFFCURVE",
"516 2 OFFCURVE",
"559 38 CURVE SMOOTH",
"606 78 OFFCURVE",
"625 132 OFFCURVE",
"625 227 CURVE SMOOTH",
"625 568 LINE SMOOTH",
"625 636 OFFCURVE",
"635 650 OFFCURVE",
"681 650 CURVE SMOOTH"
);
}
);
};
layerId = "D5373BAD-2ADC-4B72-8FF4-EE0AE5993387";
name = guide;
paths = (
{
closed = 1;
nodes = (
"522 -13 OFFCURVE",
"654 118 OFFCURVE",
"654 280 CURVE SMOOTH",
"654 441 OFFCURVE",
"522 572 OFFCURVE",
"361 572 CURVE SMOOTH",
"200 572 OFFCURVE",
"68 441 OFFCURVE",
"68 280 CURVE SMOOTH",
"68 118 OFFCURVE",
"200 -13 OFFCURVE",
"361 -13 CURVE SMOOTH"
);
}
);
width = 720;
},
{
layerId = "1A84AFAC-8532-492C-A52A-D2ACD869B7F8";
width = 600;
},
{
layerId = "16E03120-9D89-4B3A-B1E3-633A6E865927";
width = 600;
}
);
leftKerningGroup = U;
note = U;
rightKerningGroup = U;
unicode = 0055;
},
{
glyphname = Udieresis;
lastChange = "2019-10-14 18:55:54 +0000";
layers = (
{
background = {
paths = (
{
closed = 1;
nodes = (
"1444 1300 LINE",
"1444 1334 LINE",
"984 1334 LINE",
"984 1300 LINE",
"1080 1300 LINE SMOOTH",
"1196 1300 OFFCURVE",
"1216 1276 OFFCURVE",
"1216 1136 CURVE SMOOTH",
"1216 448 LINE SMOOTH",
"1216 294 OFFCURVE",
"1198 224 OFFCURVE",
"1140 150 CURVE SMOOTH",
"1064 54 OFFCURVE",
"950 8 OFFCURVE",
"796 8 CURVE SMOOTH",
"652 8 OFFCURVE",
"546 46 OFFCURVE",
"474 120 CURVE SMOOTH",
"418 180 OFFCURVE",
"406 230 OFFCURVE",
"406 406 CURVE SMOOTH",
"406 1300 LINE",
"614 1300 LINE",
"614 1334 LINE",
"14 1334 LINE",
"14 1300 LINE",
"208 1300 LINE",
"208 416 LINE SMOOTH",
"208 234 OFFCURVE",
"218 186 OFFCURVE",
"274 122 CURVE SMOOTH",
"362 20 OFFCURVE",
"512 -28 OFFCURVE",
"746 -28 CURVE SMOOTH",
"916 -28 OFFCURVE",
"1032 4 OFFCURVE",
"1118 76 CURVE SMOOTH",
"1212 156 OFFCURVE",
"1250 264 OFFCURVE",
"1250 454 CURVE SMOOTH",
"1250 1136 LINE SMOOTH",
"1250 1272 OFFCURVE",
"1270 1300 OFFCURVE",
"1362 1300 CURVE SMOOTH"
);
},
{
closed = 1;
nodes = (
"938 1698 OFFCURVE",
"894 1656 OFFCURVE",
"894 1602 CURVE SMOOTH",
"894 1550 OFFCURVE",
"938 1506 OFFCURVE",
"990 1506 CURVE SMOOTH",
"1042 1506 OFFCURVE",
"1086 1550 OFFCURVE",
"1086 1602 CURVE SMOOTH",
"1086 1654 OFFCURVE",
"1042 1698 OFFCURVE",
"992 1698 CURVE SMOOTH"
);
},
{
closed = 1;
nodes = (
"562 1698 OFFCURVE",
"518 1656 OFFCURVE",
"518 1602 CURVE SMOOTH",
"518 1550 OFFCURVE",
"562 1506 OFFCURVE",
"614 1506 CURVE SMOOTH",
"666 1506 OFFCURVE",
"710 1550 OFFCURVE",
"710 1602 CURVE SMOOTH",
"710 1654 OFFCURVE",
"666 1698 OFFCURVE",
"616 1698 CURVE SMOOTH"
);
}
);
};
components = (
{
name = U;
},
{
name = dieresiscomb;
transform = "{1, 0, 0, 1, 146, 529}";
}
);
layerId = "EA94BB3F-1054-4F03-AAB6-69C3B81B3CC3";
width = 1296;
},
{
layerId = "1A84AFAC-8532-492C-A52A-D2ACD869B7F8";
width = 600;
},
{
layerId = "16E03120-9D89-4B3A-B1E3-633A6E865927";
width = 600;
}
);
leftKerningGroup = U;
note = Udieresis;
rightKerningGroup = U;
unicode = 00DC;
},
{
glyphname = V;
lastChange = "2019-10-14 18:55:54 +0000";
layers = (
{
background = {
paths = (
{
closed = 1;
nodes = (
"-22 1430 LINE",
"-22 1394 LINE",
"168 1394 LINE",
"690 -52 LINE",
"1168 1226 LINE SMOOTH",
"1208 1324 OFFCURVE",
"1210 1330 OFFCURVE",
"1232 1358 CURVE",
"1256 1380 OFFCURVE",
"1286 1394 OFFCURVE",
"1328 1394 CURVE SMOOTH",
"1430 1394 LINE",
"1430 1430 LINE",
"960 1430 LINE",
"960 1394 LINE",
"1066 1394 LINE SMOOTH",
"1124 1394 OFFCURVE",
"1156 1368 OFFCURVE",
"1156 1324 CURVE SMOOTH",
"1156 1302 OFFCURVE",
"1140 1244 OFFCURVE",
"1120 1190 CURVE SMOOTH",
"786 298 LINE",
"400 1394 LINE",
"608 1394 LINE",
"608 1430 LINE"
);
}
);
};
layerId = "EA94BB3F-1054-4F03-AAB6-69C3B81B3CC3";
paths = (
{
closed = 1;
nodes = (
"1182 1430 LINE",
"1148 1430 LINE",
"643 182 LINE",
"688 242 LINE",
"214 1430 LINE",
"-24 1430 LINE",
"580 -56 LINE"
);
}
);
width = 1160;
},
{
layerId = "1A84AFAC-8532-492C-A52A-D2ACD869B7F8";
width = 600;
},
{
layerId = "16E03120-9D89-4B3A-B1E3-633A6E865927";
width = 600;
}
);
leftKerningGroup = V;
note = V;
rightKerningGroup = V;
unicode = 0056;
},
{
glyphname = W;
lastChange = "2019-10-14 18:55:54 +0000";
layers = (
{
anchors = (
{
name = bottom;
position = "{896, 0}";
},
{
name = top;
position = "{896, 1430}";
}
);
background = {
paths = (
{
closed = 1;
nodes = (
"-40 1430 LINE",
"-40 1394 LINE",
"148 1394 LINE",
"660 -52 LINE",
"686 -52 LINE",
"926 648 LINE",
"1182 -52 LINE",
"1206 -52 LINE",
"1690 1190 LINE SMOOTH",
"1746 1334 OFFCURVE",
"1746 1334 OFFCURVE",
"1772 1360 CURVE SMOOTH",
"1794 1380 OFFCURVE",
"1832 1394 OFFCURVE",
"1880 1394 CURVE SMOOTH",
"1970 1394 LINE",
"1970 1430 LINE",
"1496 1430 LINE",
"1496 1394 LINE",
"1604 1394 LINE SMOOTH",
"1668 1394 OFFCURVE",
"1702 1374 OFFCURVE",
"1702 1338 CURVE SMOOTH",
"1702 1318 OFFCURVE",
"1690 1278 OFFCURVE",
"1680 1252 CURVE SMOOTH",
"1290 262 LINE",
"1030 960 LINE",
"1138 1232 LINE SMOOTH",
"1178 1340 OFFCURVE",
"1180 1346 OFFCURVE",
"1204 1366 CURVE SMOOTH",
"1228 1384 OFFCURVE",
"1264 1394 OFFCURVE",
"1318 1394 CURVE SMOOTH",
"1424 1394 LINE",
"1424 1430 LINE"
);
},
{
closed = 1;
nodes = (
"906 696 LINE",
"762 286 LINE",
"374 1394 LINE",
"654 1394 LINE"
);
},
{
closed = 1;
nodes = (
"1016 1012 LINE",
"878 1394 LINE",
"1030 1394 LINE SMOOTH",
"1108 1394 OFFCURVE",
"1136 1378 OFFCURVE",
"1136 1340 CURVE SMOOTH",
"1136 1332 OFFCURVE",
"1128 1316 OFFCURVE",
"1106 1252 CURVE SMOOTH"
);
}
);
};
layerId = "EA94BB3F-1054-4F03-AAB6-69C3B81B3CC3";
paths = (
{
closed = 1;
nodes = (
"1774 1430 LINE",
"1740 1430 LINE",
"1299 181 LINE",
"1337 249 LINE",
"866 1430 LINE",
"628 1430 LINE",
"1232 -56 LINE"
);
},
{
closed = 1;
nodes = (
"1142 1430 LINE",
"1108 1430 LINE",
"667 181 LINE",
"705 249 LINE",
"234 1430 LINE",
"-4 1430 LINE",
"600 -56 LINE"
);
}
);
width = 1770;
},
{
layerId = "1A84AFAC-8532-492C-A52A-D2ACD869B7F8";
width = 600;
},
{
layerId = "16E03120-9D89-4B3A-B1E3-633A6E865927";
width = 600;
}
);
leftKerningGroup = W;
note = W;
rightKerningGroup = W;
unicode = 0057;
},
{
glyphname = X;
lastChange = "2019-10-14 18:55:54 +0000";
layers = (
{
background = {
paths = (
{
closed = 1;
nodes = (
"0 36 LINE",
"0 0 LINE",
"554 0 LINE",
"554 36 LINE",
"454 36 LINE SMOOTH",
"380 36 OFFCURVE",
"346 52 OFFCURVE",
"346 84 CURVE SMOOTH",
"346 102 OFFCURVE",
"360 128 OFFCURVE",
"408 198 CURVE SMOOTH",
"732 664 LINE",
"1094 36 LINE",
"894 36 LINE",
"894 0 LINE",
"1528 0 LINE",
"1528 36 LINE",
"1352 36 LINE",
"862 872 LINE",
"1096 1218 LINE SMOOTH",
"1134 1276 OFFCURVE",
"1190 1340 OFFCURVE",
"1220 1366 CURVE SMOOTH",
"1246 1388 OFFCURVE",
"1272 1394 OFFCURVE",
"1328 1394 CURVE SMOOTH",
"1414 1394 LINE",
"1414 1430 LINE",
"914 1430 LINE",
"914 1394 LINE",
"1044 1394 LINE SMOOTH",
"1096 1394 OFFCURVE",
"1122 1378 OFFCURVE",
"1122 1348 CURVE SMOOTH",
"1122 1330 OFFCURVE",
"1100 1286 OFFCURVE",
"1072 1244 CURVE SMOOTH",
"840 906 LINE",
"556 1394 LINE",
"732 1394 LINE",
"732 1430 LINE",
"106 1430 LINE",
"106 1394 LINE",
"298 1394 LINE",
"708 702 LINE",
"412 268 LINE SMOOTH",
"268 62 OFFCURVE",
"232 36 OFFCURVE",
"84 36 CURVE SMOOTH"
);
}
);
};
layerId = "EA94BB3F-1054-4F03-AAB6-69C3B81B3CC3";
paths = (
{
closed = 1;
nodes = (
"555 781 LINE",
"68 0 LINE",
"116 0 LINE",
"584 750 LINE"
);
},
{
closed = 1;
nodes = (
"304 1430 LINE",
"48 1430 LINE",
"920 0 LINE",
"1176 0 LINE"
);
},
{
closed = 1;
nodes = (
"601 760 LINE",
"1025 1440 LINE",
"977 1440 LINE",
"572 791 LINE"
);
}
);
width = 1200;
},
{
layerId = "1A84AFAC-8532-492C-A52A-D2ACD869B7F8";
width = 600;
},
{
layerId = "16E03120-9D89-4B3A-B1E3-633A6E865927";
width = 600;
}
);
leftKerningGroup = X;
note = X;
rightKerningGroup = X;
unicode = 0058;
},
{
glyphname = Y;
lastChange = "2019-10-14 18:55:54 +0000";
layers = (
{
anchors = (
{
name = bottom;
position = "{572, 0}";
},
{
name = top;
position = "{656, 1430}";
}
);
background = {
paths = (
{
closed = 1;
nodes = (
"870 1430 LINE",
"870 1394 LINE",
"962 1394 LINE SMOOTH",
"1034 1394 OFFCURVE",
"1068 1376 OFFCURVE",
"1068 1340 CURVE SMOOTH",
"1068 1308 OFFCURVE",
"1048 1254 OFFCURVE",
"1004 1160 CURVE SMOOTH",
"744 616 LINE",
"386 1394 LINE",
"582 1394 LINE",
"582 1430 LINE",
"-50 1430 LINE",
"-50 1394 LINE",
"140 1394 LINE",
"550 518 LINE",
"550 36 LINE",
"330 36 LINE",
"330 0 LINE",
"984 0 LINE",
"984 36 LINE",
"764 36 LINE",
"764 566 LINE",
"1086 1246 LINE SMOOTH",
"1150 1376 OFFCURVE",
"1168 1394 OFFCURVE",
"1256 1394 CURVE SMOOTH",
"1328 1394 LINE",
"1328 1430 LINE"
);
}
);
};
layerId = "EA94BB3F-1054-4F03-AAB6-69C3B81B3CC3";
paths = (
{
closed = 1;
nodes = (
"760 0 LINE",
"760 610 LINE",
"1132 1430 LINE",
"1090 1430 LINE",
"720 618 LINE",
"774 667 LINE",
"422 1430 LINE",
"180 1430 LINE",
"554 608 LINE",
"554 0 LINE"
);
}
);
width = 1144;
},
{
layerId = "1A84AFAC-8532-492C-A52A-D2ACD869B7F8";
width = 600;
},
{
layerId = "16E03120-9D89-4B3A-B1E3-633A6E865927";
width = 600;
}
);
leftKerningGroup = Y;
note = Y;
rightKerningGroup = Y;
unicode = 0059;
},
{
glyphname = Z;
lastChange = "2019-10-14 18:55:54 +0000";
layers = (
{
anchors = (
{
name = bottom;
position = "{566, 0}";
},
{
name = top;
position = "{566, 1430}";
}
);
background = {
paths = (
{
closed = 1;
nodes = (
"58 0 LINE",
"1258 0 LINE",
"1258 414 LINE",
"1222 414 LINE",
"1222 318 LINE SMOOTH",
"1222 116 OFFCURVE",
"1044 36 OFFCURVE",
"596 36 CURVE SMOOTH",
"322 36 LINE",
"1248 1430 LINE",
"142 1430 LINE",
"142 1036 LINE",
"178 1036 LINE",
"178 1120 LINE SMOOTH",
"178 1220 OFFCURVE",
"228 1304 OFFCURVE",
"306 1338 CURVE SMOOTH",
"390 1374 OFFCURVE",
"526 1394 OFFCURVE",
"710 1394 CURVE SMOOTH",
"982 1394 LINE"
);
}
);
};
layerId = "EA94BB3F-1054-4F03-AAB6-69C3B81B3CC3";
paths = (
{
closed = 1;
nodes = (
"1110 0 LINE",
"1110 36 LINE",
"157 36 LINE",
"241 22 LINE",
"1082 1430 LINE",
"142 1430 LINE",
"142 1394 LINE",
"963 1394 LINE",
"884 1416 LINE",
"30 0 LINE"
);
}
);
width = 1132;
},
{
layerId = "1A84AFAC-8532-492C-A52A-D2ACD869B7F8";
width = 600;
},
{
layerId = "16E03120-9D89-4B3A-B1E3-633A6E865927";
width = 600;
}
);
leftKerningGroup = Z;
note = Z;
rightKerningGroup = Z;
unicode = 005A;
},
{
glyphname = C.001;
lastChange = "2019-10-14 18:55:54 +0000";
layers = (
{
anchors = (
{
name = bottom;
position = "{866, 0}";
},
{
name = top;
position = "{870, 1430}";
}
);
background = {
paths = (
{
closed = 1;
nodes = (
"1140 0 LINE",
"1172 0 LINE",
"1172 476 LINE",
"1140 476 LINE",
"1136 374 OFFCURVE",
"1122 308 OFFCURVE",
"1086 244 CURVE SMOOTH",
"1004 100 OFFCURVE",
"852 8 OFFCURVE",
"692 8 CURVE SMOOTH",
"434 8 OFFCURVE",
"298 226 OFFCURVE",
"298 642 CURVE SMOOTH",
"298 844 OFFCURVE",
"334 1034 OFFCURVE",
"396 1148 CURVE SMOOTH",
"458 1266 OFFCURVE",
"560 1326 OFFCURVE",
"696 1326 CURVE SMOOTH",
"836 1326 OFFCURVE",
"956 1264 OFFCURVE",
"1048 1146 CURVE SMOOTH",
"1110 1066 OFFCURVE",
"1132 1006 OFFCURVE",
"1140 896 CURVE",
"1172 896 LINE",
"1172 1300 LINE",
"1140 1300 LINE",
"1132 1244 OFFCURVE",
"1112 1220 OFFCURVE",
"1078 1220 CURVE SMOOTH",
"1056 1220 OFFCURVE",
"1040 1228 OFFCURVE",
"982 1266 CURVE SMOOTH",
"888 1328 OFFCURVE",
"802 1354 OFFCURVE",
"694 1354 CURVE SMOOTH",
"526 1354 OFFCURVE",
"362 1272 OFFCURVE",
"240 1124 CURVE SMOOTH",
"138 1002 OFFCURVE",
"76 820 OFFCURVE",
"76 642 CURVE SMOOTH",
"76 490 OFFCURVE",
"124 340 OFFCURVE",
"208 230 CURVE SMOOTH",
"330 70 OFFCURVE",
"506 -22 OFFCURVE",
"688 -22 CURVE SMOOTH",
"806 -22 OFFCURVE",
"890 6 OFFCURVE",
"980 74 CURVE SMOOTH",
"1030 112 OFFCURVE",
"1044 118 OFFCURVE",
"1070 118 CURVE SMOOTH",
"1108 118 OFFCURVE",
"1140 70 OFFCURVE",
"1140 12 CURVE SMOOTH"
);
}
);
};
layerId = "EA94BB3F-1054-4F03-AAB6-69C3B81B3CC3";
paths = (
{
closed = 1;
nodes = (
"1072 -26 OFFCURVE",
"1266 42 OFFCURVE",
"1412 182 CURVE SMOOTH",
"1454 224 OFFCURVE",
"1492 268 OFFCURVE",
"1522 318 CURVE",
"1322 318 LINE",
"1234 122 OFFCURVE",
"1074 4 OFFCURVE",
"870 4 CURVE SMOOTH",
"554 4 OFFCURVE",
"342 288 OFFCURVE",
"342 712 CURVE SMOOTH",
"342 1142 OFFCURVE",
"554 1430 OFFCURVE",
"870 1430 CURVE SMOOTH",
"1070 1430 OFFCURVE",
"1230 1314 OFFCURVE",
"1318 1118 CURVE",
"1516 1118 LINE",
"1486 1166 OFFCURVE",
"1452 1208 OFFCURVE",
"1412 1244 CURVE SMOOTH",
"1274 1374 OFFCURVE",
"1062 1460 OFFCURVE",
"870 1460 CURVE SMOOTH",
"678 1460 OFFCURVE",
"466 1370 OFFCURVE",
"330 1244 CURVE SMOOTH",
"196 1118 OFFCURVE",
"106 930 OFFCURVE",
"106 712 CURVE SMOOTH",
"106 508 OFFCURVE",
"184 320 OFFCURVE",
"330 182 CURVE SMOOTH",
"476 44 OFFCURVE",
"668 -26 OFFCURVE",
"870 -26 CURVE SMOOTH"
);
}
);
width = 1570;
},
{
layerId = "1A84AFAC-8532-492C-A52A-D2ACD869B7F8";
width = 600;
},
{
layerId = "16E03120-9D89-4B3A-B1E3-633A6E865927";
width = 600;
}
);
leftKerningGroup = O;
note = C;
rightKerningGroup = C;
},
{
glyphname = J.001;
lastChange = "2019-10-14 18:55:54 +0000";
layers = (
{
background = {
paths = (
{
closed = 1;
nodes = (
"738 1394 LINE",
"738 1430 LINE",
"112 1430 LINE",
"112 1394 LINE",
"320 1394 LINE",
"320 264 LINE SMOOTH",
"320 198 OFFCURVE",
"322 186 OFFCURVE",
"352 116 CURVE",
"370 76 LINE",
"378 58 OFFCURVE",
"382 40 OFFCURVE",
"382 22 CURVE SMOOTH",
"382 -56 OFFCURVE",
"324 -118 OFFCURVE",
"252 -118 CURVE SMOOTH",
"206 -118 OFFCURVE",
"156 -88 OFFCURVE",
"156 -60 CURVE SMOOTH",
"156 -54 OFFCURVE",
"160 -48 OFFCURVE",
"168 -46 CURVE SMOOTH",
"208 -32 OFFCURVE",
"208 -32 OFFCURVE",
"218 -24 CURVE",
"236 -6 OFFCURVE",
"248 22 OFFCURVE",
"248 48 CURVE SMOOTH",
"248 102 OFFCURVE",
"206 146 OFFCURVE",
"152 146 CURVE SMOOTH",
"88 146 OFFCURVE",
"42 94 OFFCURVE",
"42 24 CURVE SMOOTH",
"42 -80 OFFCURVE",
"132 -152 OFFCURVE",
"262 -152 CURVE SMOOTH",
"348 -152 OFFCURVE",
"418 -120 OFFCURVE",
"464 -60 CURVE SMOOTH",
"512 6 OFFCURVE",
"530 86 OFFCURVE",
"530 234 CURVE SMOOTH",
"530 1394 LINE"
);
}
);
};
layerId = "EA94BB3F-1054-4F03-AAB6-69C3B81B3CC3";
paths = (
{
closed = 1;
nodes = (
"482 -152 OFFCURVE",
"616 12 OFFCURVE",
"616 174 CURVE SMOOTH",
"616 1430 LINE",
"410 1430 LINE",
"410 738 LINE SMOOTH",
"410 512 OFFCURVE",
"454 154 OFFCURVE",
"454 56 CURVE SMOOTH",
"454 -88 OFFCURVE",
"362 -116 OFFCURVE",
"304 -116 CURVE SMOOTH",
"250 -116 OFFCURVE",
"158 -92 OFFCURVE",
"158 -34 CURVE SMOOTH",
"158 -6 OFFCURVE",
"242 18 OFFCURVE",
"242 74 CURVE SMOOTH",
"242 120 OFFCURVE",
"184 146 OFFCURVE",
"138 146 CURVE SMOOTH",
"56 146 OFFCURVE",
"42 62 OFFCURVE",
"42 -26 CURVE",
"94 -94 OFFCURVE",
"180 -152 OFFCURVE",
"292 -152 CURVE SMOOTH"
);
}
);
width = 774;
},
{
associatedMasterId = "EA94BB3F-1054-4F03-AAB6-69C3B81B3CC3";
background = {
paths = (
{
closed = 1;
nodes = (
"738 1394 LINE",
"738 1430 LINE",
"112 1430 LINE",
"112 1394 LINE",
"320 1394 LINE",
"320 264 LINE SMOOTH",
"320 198 OFFCURVE",
"322 186 OFFCURVE",
"352 116 CURVE",
"370 76 LINE",
"378 58 OFFCURVE",
"382 40 OFFCURVE",
"382 22 CURVE SMOOTH",
"382 -56 OFFCURVE",
"324 -118 OFFCURVE",
"252 -118 CURVE SMOOTH",
"206 -118 OFFCURVE",
"156 -88 OFFCURVE",
"156 -60 CURVE SMOOTH",
"156 -54 OFFCURVE",
"160 -48 OFFCURVE",
"168 -46 CURVE SMOOTH",
"208 -32 OFFCURVE",
"208 -32 OFFCURVE",
"218 -24 CURVE",
"236 -6 OFFCURVE",
"248 22 OFFCURVE",
"248 48 CURVE SMOOTH",
"248 102 OFFCURVE",
"206 146 OFFCURVE",
"152 146 CURVE SMOOTH",
"88 146 OFFCURVE",
"42 94 OFFCURVE",
"42 24 CURVE SMOOTH",
"42 -80 OFFCURVE",
"132 -152 OFFCURVE",
"262 -152 CURVE SMOOTH",
"348 -152 OFFCURVE",
"418 -120 OFFCURVE",
"464 -60 CURVE SMOOTH",
"512 6 OFFCURVE",
"530 86 OFFCURVE",
"530 234 CURVE SMOOTH",
"530 1394 LINE"
);
}
);
};
layerId = "5F3C60D3-57DE-4E92-8BCD-2FCE42A3C567";
name = guide;
paths = (
{
closed = 1;
nodes = (
"474 -152 OFFCURVE",
"616 -6 OFFCURVE",
"616 172 CURVE SMOOTH",
"616 346 OFFCURVE",
"474 492 OFFCURVE",
"296 492 CURVE SMOOTH",
"118 492 OFFCURVE",
"-24 346 OFFCURVE",
"-24 172 CURVE SMOOTH",
"-24 -6 OFFCURVE",
"118 -152 OFFCURVE",
"296 -152 CURVE SMOOTH"
);
}
);
width = 774;
},
{
layerId = "1A84AFAC-8532-492C-A52A-D2ACD869B7F8";
width = 600;
},
{
layerId = "16E03120-9D89-4B3A-B1E3-633A6E865927";
width = 600;
}
);
leftKerningGroup = J.001;
note = J;
rightKerningGroup = J.001;
},
{
glyphname = K.001;
lastChange = "2019-10-14 18:55:54 +0000";
layers = (
{
background = {
paths = (
{
closed = 1;
nodes = (
"634 852 LINE",
"946 1132 LINE SMOOTH",
"1050 1228 OFFCURVE",
"1170 1320 OFFCURVE",
"1248 1364 CURVE SMOOTH",
"1286 1384 OFFCURVE",
"1322 1394 OFFCURVE",
"1380 1394 CURVE SMOOTH",
"1494 1394 LINE",
"1494 1430 LINE",
"884 1430 LINE",
"884 1394 LINE",
"992 1394 LINE SMOOTH",
"1070 1394 OFFCURVE",
"1094 1384 OFFCURVE",
"1094 1354 CURVE SMOOTH",
"1094 1328 OFFCURVE",
"1054 1278 OFFCURVE",
"986 1216 CURVE SMOOTH",
"452 736 LINE",
"452 1394 LINE",
"666 1394 LINE",
"666 1430 LINE",
"36 1430 LINE",
"36 1394 LINE",
"244 1394 LINE",
"244 36 LINE",
"36 36 LINE",
"36 0 LINE",
"678 0 LINE",
"678 36 LINE",
"452 36 LINE",
"452 688 LINE",
"478 712 LINE",
"1036 36 LINE",
"834 36 LINE",
"834 0 LINE",
"1530 0 LINE",
"1530 36 LINE",
"1324 36 LINE"
);
}
);
};
layerId = "EA94BB3F-1054-4F03-AAB6-69C3B81B3CC3";
paths = (
{
closed = 1;
nodes = (
"378 0 LINE",
"378 718 LINE",
"982 0 LINE",
"1252 0 LINE",
"536 852 LINE",
"1020 1430 LINE",
"970 1430 LINE",
"378 722 LINE",
"378 1430 LINE",
"172 1430 LINE",
"172 0 LINE"
);
}
);
width = 1182;
},
{
layerId = "1A84AFAC-8532-492C-A52A-D2ACD869B7F8";
width = 600;
},
{
layerId = "16E03120-9D89-4B3A-B1E3-633A6E865927";
width = 600;
}
);
leftKerningGroup = K.001;
note = K;
rightKerningGroup = K.001;
},
{
glyphname = N.001;
lastChange = "2019-10-14 18:55:54 +0000";
layers = (
{
background = {
paths = (
{
closed = 1;
nodes = (
"22 36 LINE",
"22 0 LINE",
"486 0 LINE",
"486 36 LINE",
"426 36 LINE SMOOTH",
"272 36 OFFCURVE",
"264 50 OFFCURVE",
"264 264 CURVE SMOOTH",
"264 1330 LINE",
"1318 -10 LINE",
"1332 -10 LINE",
"1332 1216 LINE SMOOTH",
"1332 1394 OFFCURVE",
"1332 1394 OFFCURVE",
"1480 1394 CURVE SMOOTH",
"1540 1394 LINE",
"1540 1430 LINE",
"1080 1430 LINE",
"1080 1394 LINE",
"1140 1394 LINE SMOOTH",
"1294 1394 OFFCURVE",
"1298 1392 OFFCURVE",
"1298 1216 CURVE SMOOTH",
"1298 376 LINE",
"464 1430 LINE",
"22 1430 LINE",
"22 1394 LINE",
"192 1394 LINE",
"230 1368 LINE",
"230 264 LINE SMOOTH",
"230 108 OFFCURVE",
"230 102 OFFCURVE",
"210 70 CURVE",
"192 46 OFFCURVE",
"168 36 OFFCURVE",
"92 36 CURVE SMOOTH"
);
}
);
};
layerId = "EA94BB3F-1054-4F03-AAB6-69C3B81B3CC3";
paths = (
{
closed = 1;
nodes = (
"1308 1430 LINE",
"1272 1430 LINE",
"1272 272 LINE",
"136 1554 LINE",
"136 0 LINE",
"172 0 LINE",
"172 1162 LINE",
"1308 -120 LINE"
);
}
);
width = 1550;
},
{
layerId = "1A84AFAC-8532-492C-A52A-D2ACD869B7F8";
width = 600;
},
{
layerId = "16E03120-9D89-4B3A-B1E3-633A6E865927";
width = 600;
}
);
leftKerningGroup = N.001;
note = N;
rightKerningGroup = N.001;
},
{
glyphname = Q.001;
lastChange = "2019-10-14 18:55:54 +0000";
layers = (
{
background = {
paths = (
{
closed = 1;
nodes = (
"848 -18 LINE",
"952 8 OFFCURVE",
"1010 34 OFFCURVE",
"1082 84 CURVE SMOOTH",
"1292 220 OFFCURVE",
"1414 454 OFFCURVE",
"1414 712 CURVE SMOOTH",
"1414 884 OFFCURVE",
"1360 1052 OFFCURVE",
"1260 1184 CURVE SMOOTH",
"1134 1346 OFFCURVE",
"926 1460 OFFCURVE",
"748 1460 CURVE SMOOTH",
"598 1460 OFFCURVE",
"428 1382 OFFCURVE",
"300 1252 CURVE SMOOTH",
"154 1106 OFFCURVE",
"80 928 OFFCURVE",
"80 722 CURVE SMOOTH",
"80 364 OFFCURVE",
"304 66 OFFCURVE",
"644 -18 CURVE",
"644 -188 LINE SMOOTH",
"644 -258 OFFCURVE",
"662 -302 OFFCURVE",
"706 -336 CURVE SMOOTH",
"768 -388 OFFCURVE",
"942 -428 OFFCURVE",
"1096 -428 CURVE SMOOTH",
"1134 -428 OFFCURVE",
"1164 -428 OFFCURVE",
"1220 -424 CURVE",
"1220 -388 LINE",
"1172 -392 OFFCURVE",
"1132 -394 OFFCURVE",
"1102 -394 CURVE SMOOTH",
"1018 -394 OFFCURVE",
"942 -378 OFFCURVE",
"896 -348 CURVE SMOOTH",
"860 -324 OFFCURVE",
"848 -292 OFFCURVE",
"848 -220 CURVE SMOOTH"
);
},
{
closed = 1;
nodes = (
"1024 1428 OFFCURVE",
"1178 1172 OFFCURVE",
"1178 720 CURVE SMOOTH",
"1178 242 OFFCURVE",
"1036 6 OFFCURVE",
"746 6 CURVE SMOOTH",
"460 6 OFFCURVE",
"318 244 OFFCURVE",
"318 718 CURVE SMOOTH",
"318 1184 OFFCURVE",
"468 1428 OFFCURVE",
"754 1428 CURVE SMOOTH"
);
}
);
};
guideLines = (
{
angle = -47;
position = "{566, 97}";
},
{
angle = -47;
position = "{631, 141}";
}
);
layerId = "EA94BB3F-1054-4F03-AAB6-69C3B81B3CC3";
paths = (
{
closed = 1;
nodes = (
"1654 -138 LINE",
"1381 154 LINE",
"1412 182 LINE SMOOTH",
"1556 322 OFFCURVE",
"1634 508 OFFCURVE",
"1634 712 CURVE SMOOTH",
"1634 900 OFFCURVE",
"1546 1114 OFFCURVE",
"1412 1244 CURVE SMOOTH",
"1280 1374 OFFCURVE",
"1062 1460 OFFCURVE",
"870 1460 CURVE SMOOTH",
"678 1460 OFFCURVE",
"462 1374 OFFCURVE",
"330 1244 CURVE SMOOTH",
"196 1116 OFFCURVE",
"106 902 OFFCURVE",
"106 712 CURVE SMOOTH",
"106 508 OFFCURVE",
"184 324 OFFCURVE",
"330 182 CURVE SMOOTH",
"474 42 OFFCURVE",
"668 -26 OFFCURVE",
"870 -26 CURVE SMOOTH",
"1004 -26 OFFCURVE",
"1136 4 OFFCURVE",
"1251 65 CURVE",
"1442 -138 LINE"
);
},
{
closed = 1;
nodes = (
"554 4 OFFCURVE",
"342 288 OFFCURVE",
"342 712 CURVE SMOOTH",
"342 1142 OFFCURVE",
"554 1430 OFFCURVE",
"870 1430 CURVE SMOOTH",
"1186 1430 OFFCURVE",
"1398 1142 OFFCURVE",
"1398 712 CURVE SMOOTH",
"1398 530 OFFCURVE",
"1359 373 OFFCURVE",
"1289 254 CURVE",
"1050 510 LINE",
"838 510 LINE",
"1192 131 LINE",
"1106 49 OFFCURVE",
"996 4 OFFCURVE",
"870 4 CURVE SMOOTH"
);
}
);
width = 1740;
},
{
layerId = "1A84AFAC-8532-492C-A52A-D2ACD869B7F8";
width = 600;
},
{
layerId = "16E03120-9D89-4B3A-B1E3-633A6E865927";
width = 600;
}
);
leftKerningGroup = Q.001;
note = Q;
rightKerningGroup = Q.001;
},
{
glyphname = R.001;
lastChange = "2019-10-14 18:55:54 +0000";
layers = (
{
background = {
paths = (
{
closed = 1;
nodes = (
"424 680 LINE",
"502 680 LINE SMOOTH",
"616 680 OFFCURVE",
"714 666 OFFCURVE",
"762 642 CURVE SMOOTH",
"838 606 OFFCURVE",
"870 552 OFFCURVE",
"882 440 CURVE SMOOTH",
"904 250 LINE SMOOTH",
"916 134 OFFCURVE",
"926 106 OFFCURVE",
"970 60 CURVE",
"1016 8 OFFCURVE",
"1072 -14 OFFCURVE",
"1160 -14 CURVE SMOOTH",
"1220 -14 OFFCURVE",
"1266 -6 OFFCURVE",
"1318 14 CURVE",
"1306 42 LINE",
"1268 30 OFFCURVE",
"1250 26 OFFCURVE",
"1226 26 CURVE SMOOTH",
"1164 26 OFFCURVE",
"1136 68 OFFCURVE",
"1126 178 CURVE SMOOTH",
"1112 322 LINE SMOOTH",
"1092 584 OFFCURVE",
"1014 662 OFFCURVE",
"748 696 CURVE",
"872 710 OFFCURVE",
"938 728 OFFCURVE",
"1002 764 CURVE SMOOTH",
"1094 818 OFFCURVE",
"1148 910 OFFCURVE",
"1148 1014 CURVE SMOOTH",
"1148 1094 OFFCURVE",
"1120 1168 OFFCURVE",
"1066 1224 CURVE SMOOTH",
"994 1300 OFFCURVE",
"890 1334 OFFCURVE",
"726 1334 CURVE SMOOTH",
"34 1334 LINE",
"34 1300 LINE",
"228 1300 LINE",
"228 34 LINE",
"34 34 LINE",
"34 0 LINE",
"630 0 LINE",
"630 34 LINE",
"424 34 LINE"
);
},
{
closed = 1;
nodes = (
"424 1300 LINE",
"496 1300 LINE SMOOTH",
"700 1300 OFFCURVE",
"768 1288 OFFCURVE",
"834 1238 CURVE",
"900 1192 OFFCURVE",
"942 1098 OFFCURVE",
"942 1002 CURVE SMOOTH",
"942 920 OFFCURVE",
"910 844 OFFCURVE",
"850 794 CURVE",
"786 736 OFFCURVE",
"676 710 OFFCURVE",
"502 710 CURVE SMOOTH",
"424 710 LINE"
);
}
);
};
layerId = "EA94BB3F-1054-4F03-AAB6-69C3B81B3CC3";
paths = (
{
closed = 1;
nodes = (
"330 0 LINE",
"330 740 LINE",
"566 740 LINE SMOOTH",
"780 740 OFFCURVE",
"864 608 OFFCURVE",
"864 406 CURVE SMOOTH",
"864 0 LINE",
"1086 0 LINE",
"1082 406 LINE",
"1082 598 OFFCURVE",
"936 732 OFFCURVE",
"768 758 CURVE",
"906 798 OFFCURVE",
"1020 902 OFFCURVE",
"1020 1054 CURVE SMOOTH",
"1020 1346 OFFCURVE",
"826 1430 OFFCURVE",
"516 1430 CURVE SMOOTH",
"124 1430 LINE",
"124 0 LINE"
);
},
{
closed = 1;
nodes = (
"330 1394 LINE",
"516 1394 LINE SMOOTH",
"772 1394 OFFCURVE",
"802 1218 OFFCURVE",
"802 1034 CURVE SMOOTH",
"802 868 OFFCURVE",
"758 776 OFFCURVE",
"516 776 CURVE SMOOTH",
"330 776 LINE"
);
}
);
width = 1102;
},
{
layerId = "1A84AFAC-8532-492C-A52A-D2ACD869B7F8";
width = 600;
},
{
layerId = "16E03120-9D89-4B3A-B1E3-633A6E865927";
width = 600;
}
);
leftKerningGroup = R.001;
note = R;
rightKerningGroup = R.001;
},
{
glyphname = S.001;
lastChange = "2019-10-14 18:55:54 +0000";
layers = (
{
background = {
paths = (
{
closed = 1;
nodes = (
"122 510 LINE",
"122 -16 LINE",
"158 -16 LINE",
"166 56 OFFCURVE",
"178 80 OFFCURVE",
"214 80 CURVE SMOOTH",
"234 80 OFFCURVE",
"258 72 OFFCURVE",
"294 60 CURVE",
"360 32 LINE SMOOTH",
"478 -12 OFFCURVE",
"544 -28 OFFCURVE",
"648 -28 CURVE SMOOTH",
"920 -28 OFFCURVE",
"1108 158 OFFCURVE",
"1108 430 CURVE SMOOTH",
"1108 564 OFFCURVE",
"1062 674 OFFCURVE",
"980 738 CURVE SMOOTH",
"914 786 OFFCURVE",
"818 818 OFFCURVE",
"678 840 CURVE SMOOTH",
"570 856 LINE SMOOTH",
"316 892 OFFCURVE",
"220 964 OFFCURVE",
"220 1128 CURVE SMOOTH",
"220 1306 OFFCURVE",
"354 1428 OFFCURVE",
"548 1428 CURVE SMOOTH",
"690 1428 OFFCURVE",
"830 1362 OFFCURVE",
"902 1256 CURVE SMOOTH",
"958 1178 OFFCURVE",
"984 1100 OFFCURVE",
"990 984 CURVE",
"1026 984 LINE",
"1026 1412 LINE",
"990 1412 LINE",
"986 1350 OFFCURVE",
"972 1328 OFFCURVE",
"940 1330 CURVE",
"926 1330 OFFCURVE",
"914 1334 OFFCURVE",
"898 1342 CURVE SMOOTH",
"866 1362 LINE SMOOTH",
"712 1450 OFFCURVE",
"672 1462 OFFCURVE",
"564 1462 CURVE SMOOTH",
"308 1462 OFFCURVE",
"132 1286 OFFCURVE",
"132 1034 CURVE SMOOTH",
"132 918 OFFCURVE",
"172 810 OFFCURVE",
"234 748 CURVE SMOOTH",
"290 692 OFFCURVE",
"382 658 OFFCURVE",
"538 634 CURVE SMOOTH",
"650 616 LINE SMOOTH",
"796 594 OFFCURVE",
"866 570 OFFCURVE",
"924 524 CURVE",
"984 478 OFFCURVE",
"1014 414 OFFCURVE",
"1014 334 CURVE SMOOTH",
"1014 140 OFFCURVE",
"864 6 OFFCURVE",
"646 6 CURVE SMOOTH",
"472 6 OFFCURVE",
"304 96 OFFCURVE",
"226 236 CURVE SMOOTH",
"184 306 OFFCURVE",
"170 374 OFFCURVE",
"158 510 CURVE"
);
}
);
};
layerId = "EA94BB3F-1054-4F03-AAB6-69C3B81B3CC3";
paths = (
{
closed = 1;
nodes = (
"932 -26 OFFCURVE",
"1092 228 OFFCURVE",
"1092 464 CURVE SMOOTH",
"1092 756 OFFCURVE",
"850 838 OFFCURVE",
"664 890 CURVE SMOOTH",
"424 958 OFFCURVE",
"266 970 OFFCURVE",
"266 1140 CURVE SMOOTH",
"266 1288 OFFCURVE",
"388 1420 OFFCURVE",
"540 1420 CURVE SMOOTH",
"698 1420 OFFCURVE",
"810 1274 OFFCURVE",
"850 1120 CURVE",
"1040 1120 LINE",
"1030 1348 OFFCURVE",
"774 1464 OFFCURVE",
"560 1464 CURVE SMOOTH",
"262 1464 OFFCURVE",
"134 1242 OFFCURVE",
"134 1036 CURVE SMOOTH",
"134 894 OFFCURVE",
"198 724 OFFCURVE",
"538 662 CURVE SMOOTH",
"706 632 OFFCURVE",
"958 552 OFFCURVE",
"958 368 CURVE SMOOTH",
"958 214 OFFCURVE",
"784 22 OFFCURVE",
"626 22 CURVE SMOOTH",
"466 22 OFFCURVE",
"276 212 OFFCURVE",
"256 420 CURVE",
"58 420 LINE",
"88 74 OFFCURVE",
"398 -26 OFFCURVE",
"604 -26 CURVE SMOOTH"
);
}
);
width = 1568;
},
{
layerId = "1A84AFAC-8532-492C-A52A-D2ACD869B7F8";
width = 600;
},
{
layerId = "16E03120-9D89-4B3A-B1E3-633A6E865927";
width = 600;
}
);
leftKerningGroup = S.001;
note = S;
rightKerningGroup = S.001;
},
{
glyphname = R.002;
lastChange = "2019-10-14 19:01:03 +0000";
layers = (
{
background = {
paths = (
{
closed = 1;
nodes = (
"424 680 LINE",
"502 680 LINE SMOOTH",
"616 680 OFFCURVE",
"714 666 OFFCURVE",
"762 642 CURVE SMOOTH",
"838 606 OFFCURVE",
"870 552 OFFCURVE",
"882 440 CURVE SMOOTH",
"904 250 LINE SMOOTH",
"916 134 OFFCURVE",
"926 106 OFFCURVE",
"970 60 CURVE",
"1016 8 OFFCURVE",
"1072 -14 OFFCURVE",
"1160 -14 CURVE SMOOTH",
"1220 -14 OFFCURVE",
"1266 -6 OFFCURVE",
"1318 14 CURVE",
"1306 42 LINE",
"1268 30 OFFCURVE",
"1250 26 OFFCURVE",
"1226 26 CURVE SMOOTH",
"1164 26 OFFCURVE",
"1136 68 OFFCURVE",
"1126 178 CURVE SMOOTH",
"1112 322 LINE SMOOTH",
"1092 584 OFFCURVE",
"1014 662 OFFCURVE",
"748 696 CURVE",
"872 710 OFFCURVE",
"938 728 OFFCURVE",
"1002 764 CURVE SMOOTH",
"1094 818 OFFCURVE",
"1148 910 OFFCURVE",
"1148 1014 CURVE SMOOTH",
"1148 1094 OFFCURVE",
"1120 1168 OFFCURVE",
"1066 1224 CURVE SMOOTH",
"994 1300 OFFCURVE",
"890 1334 OFFCURVE",
"726 1334 CURVE SMOOTH",
"34 1334 LINE",
"34 1300 LINE",
"228 1300 LINE",
"228 34 LINE",
"34 34 LINE",
"34 0 LINE",
"630 0 LINE",
"630 34 LINE",
"424 34 LINE"
);
},
{
closed = 1;
nodes = (
"424 1300 LINE",
"496 1300 LINE SMOOTH",
"700 1300 OFFCURVE",
"768 1288 OFFCURVE",
"834 1238 CURVE",
"900 1192 OFFCURVE",
"942 1098 OFFCURVE",
"942 1002 CURVE SMOOTH",
"942 920 OFFCURVE",
"910 844 OFFCURVE",
"850 794 CURVE",
"786 736 OFFCURVE",
"676 710 OFFCURVE",
"502 710 CURVE SMOOTH",
"424 710 LINE"
);
}
);
};
layerId = "EA94BB3F-1054-4F03-AAB6-69C3B81B3CC3";
paths = (
{
closed = 1;
nodes = (
"330 0 LINE",
"330 740 LINE",
"466 740 LINE SMOOTH",
"758 740 OFFCURVE",
"716 612 OFFCURVE",
"864 0 CURVE",
"1086 0 LINE",
"934 560 OFFCURVE",
"992 740 OFFCURVE",
"690 740 CURVE",
"742 748 OFFCURVE",
"748 750 OFFCURVE",
"788 764 CURVE SMOOTH",
"934 814 OFFCURVE",
"1020 922 OFFCURVE",
"1020 1054 CURVE SMOOTH",
"1020 1346 OFFCURVE",
"826 1430 OFFCURVE",
"516 1430 CURVE SMOOTH",
"124 1430 LINE",
"124 0 LINE"
);
},
{
closed = 1;
nodes = (
"330 1394 LINE",
"516 1394 LINE SMOOTH",
"772 1394 OFFCURVE",
"802 1218 OFFCURVE",
"802 1034 CURVE SMOOTH",
"802 868 OFFCURVE",
"758 776 OFFCURVE",
"516 776 CURVE SMOOTH",
"330 776 LINE"
);
}
);
width = 1102;
},
{
layerId = "1A84AFAC-8532-492C-A52A-D2ACD869B7F8";
width = 600;
},
{
layerId = "16E03120-9D89-4B3A-B1E3-633A6E865927";
width = 600;
}
);
leftKerningGroup = R.002;
note = R;
rightKerningGroup = R.002;
},
{
glyphname = C.80;
lastChange = "2019-10-14 18:57:14 +0000";
layers = (
{
anchors = (
{
name = bottom;
position = "{692, 0}";
},
{
name = top;
position = "{696, 1430}";
}
);
background = {
paths = (
{
closed = 1;
nodes = (
"1140 0 LINE",
"1172 0 LINE",
"1172 476 LINE",
"1140 476 LINE",
"1136 374 OFFCURVE",
"1122 308 OFFCURVE",
"1086 244 CURVE SMOOTH",
"1004 100 OFFCURVE",
"852 8 OFFCURVE",
"692 8 CURVE SMOOTH",
"434 8 OFFCURVE",
"298 226 OFFCURVE",
"298 642 CURVE SMOOTH",
"298 844 OFFCURVE",
"334 1034 OFFCURVE",
"396 1148 CURVE SMOOTH",
"458 1266 OFFCURVE",
"560 1326 OFFCURVE",
"696 1326 CURVE SMOOTH",
"836 1326 OFFCURVE",
"956 1264 OFFCURVE",
"1048 1146 CURVE SMOOTH",
"1110 1066 OFFCURVE",
"1132 1006 OFFCURVE",
"1140 896 CURVE",
"1172 896 LINE",
"1172 1300 LINE",
"1140 1300 LINE",
"1132 1244 OFFCURVE",
"1112 1220 OFFCURVE",
"1078 1220 CURVE SMOOTH",
"1056 1220 OFFCURVE",
"1040 1228 OFFCURVE",
"982 1266 CURVE SMOOTH",
"888 1328 OFFCURVE",
"802 1354 OFFCURVE",
"694 1354 CURVE SMOOTH",
"526 1354 OFFCURVE",
"362 1272 OFFCURVE",
"240 1124 CURVE SMOOTH",
"138 1002 OFFCURVE",
"76 820 OFFCURVE",
"76 642 CURVE SMOOTH",
"76 490 OFFCURVE",
"124 340 OFFCURVE",
"208 230 CURVE SMOOTH",
"330 70 OFFCURVE",
"506 -22 OFFCURVE",
"688 -22 CURVE SMOOTH",
"806 -22 OFFCURVE",
"890 6 OFFCURVE",
"980 74 CURVE SMOOTH",
"1030 112 OFFCURVE",
"1044 118 OFFCURVE",
"1070 118 CURVE SMOOTH",
"1108 118 OFFCURVE",
"1140 70 OFFCURVE",
"1140 12 CURVE SMOOTH"
);
}
);
};
layerId = "EA94BB3F-1054-4F03-AAB6-69C3B81B3CC3";
paths = (
{
closed = 1;
nodes = (
"858 -26 OFFCURVE",
"1012 42 OFFCURVE",
"1130 182 CURVE SMOOTH",
"1164 224 OFFCURVE",
"1194 268 OFFCURVE",
"1218 318 CURVE",
"1058 318 LINE",
"988 122 OFFCURVE",
"860 4 OFFCURVE",
"696 4 CURVE SMOOTH",
"444 4 OFFCURVE",
"274 288 OFFCURVE",
"274 712 CURVE SMOOTH",
"274 1142 OFFCURVE",
"444 1430 OFFCURVE",
"696 1430 CURVE SMOOTH",
"856 1430 OFFCURVE",
"984 1314 OFFCURVE",
"1054 1118 CURVE",
"1212 1118 LINE",
"1188 1166 OFFCURVE",
"1162 1208 OFFCURVE",
"1130 1244 CURVE SMOOTH",
"1020 1374 OFFCURVE",
"850 1460 OFFCURVE",
"696 1460 CURVE SMOOTH",
"542 1460 OFFCURVE",
"372 1370 OFFCURVE",
"264 1244 CURVE SMOOTH",
"156 1118 OFFCURVE",
"84 930 OFFCURVE",
"84 712 CURVE SMOOTH",
"84 508 OFFCURVE",
"148 320 OFFCURVE",
"264 182 CURVE SMOOTH",
"380 44 OFFCURVE",
"534 -26 OFFCURVE",
"696 -26 CURVE SMOOTH"
);
}
);
width = 1256;
},
{
layerId = "1A84AFAC-8532-492C-A52A-D2ACD869B7F8";
width = 600;
},
{
layerId = "16E03120-9D89-4B3A-B1E3-633A6E865927";
width = 600;
}
);
leftKerningGroup = O;
note = C;
rightKerningGroup = C;
},
{
glyphname = D.90;
lastChange = "2019-10-14 19:01:03 +0000";
layers = (
{
anchors = (
{
name = bottom;
position = "{654, 0}";
},
{
name = center;
position = "{654, 716}";
},
{
name = top;
position = "{654, 1430}";
}
);
background = {
paths = (
{
closed = 1;
nodes = (
"36 1430 LINE",
"36 1394 LINE",
"244 1394 LINE",
"244 36 LINE",
"36 36 LINE",
"36 0 LINE",
"598 0 LINE SMOOTH",
"870 0 OFFCURVE",
"986 20 OFFCURVE",
"1114 90 CURVE SMOOTH",
"1332 210 OFFCURVE",
"1460 442 OFFCURVE",
"1460 712 CURVE SMOOTH",
"1460 1050 OFFCURVE",
"1260 1318 OFFCURVE",
"944 1402 CURVE SMOOTH",
"842 1428 OFFCURVE",
"808 1430 OFFCURVE",
"564 1430 CURVE SMOOTH"
);
},
{
closed = 1;
nodes = (
"456 1394 LINE",
"472 1394 LINE SMOOTH",
"620 1394 OFFCURVE",
"620 1394 OFFCURVE",
"652 1392 CURVE SMOOTH",
"778 1382 OFFCURVE",
"880 1354 OFFCURVE",
"960 1306 CURVE SMOOTH",
"1138 1198 OFFCURVE",
"1226 1008 OFFCURVE",
"1226 726 CURVE SMOOTH",
"1226 516 OFFCURVE",
"1188 352 OFFCURVE",
"1112 244 CURVE SMOOTH",
"1038 132 OFFCURVE",
"888 58 OFFCURVE",
"708 42 CURVE SMOOTH",
"638 36 OFFCURVE",
"602 36 OFFCURVE",
"456 36 CURVE"
);
}
);
};
layerId = "EA94BB3F-1054-4F03-AAB6-69C3B81B3CC3";
paths = (
{
closed = 1;
nodes = (
"458 0 LINE SMOOTH",
"762 0 OFFCURVE",
"890 54 OFFCURVE",
"984 134 CURVE SMOOTH",
"1134 260 OFFCURVE",
"1210 458 OFFCURVE",
"1210 714 CURVE SMOOTH",
"1210 842 OFFCURVE",
"1190 956 OFFCURVE",
"1152 1054 CURVE SMOOTH",
"1076 1250 OFFCURVE",
"938 1358 OFFCURVE",
"788 1400 CURVE SMOOTH",
"712 1420 OFFCURVE",
"608 1430 OFFCURVE",
"402 1430 CURVE SMOOTH",
"112 1430 LINE",
"112 0 LINE"
);
},
{
closed = 1;
nodes = (
"318 1394 LINE",
"406 1394 LINE SMOOTH",
"878 1394 OFFCURVE",
"992 1124 OFFCURVE",
"992 716 CURVE SMOOTH",
"992 252 OFFCURVE",
"838 36 OFFCURVE",
"406 36 CURVE SMOOTH",
"318 36 LINE"
);
}
);
width = 1306;
},
{
layerId = "1A84AFAC-8532-492C-A52A-D2ACD869B7F8";
width = 600;
},
{
layerId = "16E03120-9D89-4B3A-B1E3-633A6E865927";
width = 600;
}
);
leftKerningGroup = H;
note = D;
rightKerningGroup = O;
},
{
glyphname = U.90;
lastChange = "2019-10-14 19:01:03 +0000";
layers = (
{
anchors = (
{
name = bottom;
position = "{638, 0}";
},
{
name = ogonek;
position = "{870, 20}";
},
{
name = top;
position = "{638, 1430}";
},
{
name = topright;
position = "{1250, 1430}";
}
);
background = {
paths = (
{
closed = 1;
nodes = (
"1536 1394 LINE",
"1536 1430 LINE",
"1042 1430 LINE",
"1042 1394 LINE",
"1146 1394 LINE SMOOTH",
"1270 1394 OFFCURVE",
"1292 1368 OFFCURVE",
"1292 1218 CURVE SMOOTH",
"1292 480 LINE SMOOTH",
"1292 316 OFFCURVE",
"1272 240 OFFCURVE",
"1210 160 CURVE SMOOTH",
"1128 58 OFFCURVE",
"1006 8 OFFCURVE",
"842 8 CURVE SMOOTH",
"686 8 OFFCURVE",
"574 50 OFFCURVE",
"496 128 CURVE SMOOTH",
"436 192 OFFCURVE",
"424 246 OFFCURVE",
"424 436 CURVE SMOOTH",
"424 1394 LINE",
"646 1394 LINE",
"646 1430 LINE",
"4 1430 LINE",
"4 1394 LINE",
"210 1394 LINE",
"210 446 LINE SMOOTH",
"210 250 OFFCURVE",
"222 200 OFFCURVE",
"282 130 CURVE SMOOTH",
"376 22 OFFCURVE",
"536 -30 OFFCURVE",
"788 -30 CURVE SMOOTH",
"970 -30 OFFCURVE",
"1094 4 OFFCURVE",
"1186 82 CURVE SMOOTH",
"1288 168 OFFCURVE",
"1328 282 OFFCURVE",
"1328 486 CURVE SMOOTH",
"1328 1218 LINE SMOOTH",
"1328 1364 OFFCURVE",
"1350 1394 OFFCURVE",
"1448 1394 CURVE SMOOTH"
);
}
);
};
layerId = "EA94BB3F-1054-4F03-AAB6-69C3B81B3CC3";
paths = (
{
closed = 1;
nodes = (
"908 -26 OFFCURVE",
"1166 76 OFFCURVE",
"1166 620 CURVE SMOOTH",
"1166 1430 LINE",
"1124 1430 LINE",
"1124 620 LINE SMOOTH",
"1124 140 OFFCURVE",
"886 38 OFFCURVE",
"660 38 CURVE SMOOTH",
"448 38 OFFCURVE",
"318 138 OFFCURVE",
"318 560 CURVE SMOOTH",
"318 1430 LINE",
"112 1430 LINE",
"112 560 LINE SMOOTH",
"112 176 OFFCURVE",
"330 -26 OFFCURVE",
"660 -26 CURVE SMOOTH"
);
}
);
width = 1278;
},
{
associatedMasterId = "EA94BB3F-1054-4F03-AAB6-69C3B81B3CC3";
background = {
paths = (
{
closed = 1;
nodes = (
"1444 1300 LINE",
"1444 1334 LINE",
"984 1334 LINE",
"984 1300 LINE",
"1080 1300 LINE SMOOTH",
"1196 1300 OFFCURVE",
"1216 1276 OFFCURVE",
"1216 1136 CURVE SMOOTH",
"1216 448 LINE SMOOTH",
"1216 294 OFFCURVE",
"1198 224 OFFCURVE",
"1140 150 CURVE SMOOTH",
"1064 54 OFFCURVE",
"950 8 OFFCURVE",
"796 8 CURVE SMOOTH",
"652 8 OFFCURVE",
"546 46 OFFCURVE",
"474 120 CURVE SMOOTH",
"418 180 OFFCURVE",
"406 230 OFFCURVE",
"406 406 CURVE SMOOTH",
"406 1300 LINE",
"614 1300 LINE",
"614 1334 LINE",
"14 1334 LINE",
"14 1300 LINE",
"208 1300 LINE",
"208 416 LINE SMOOTH",
"208 234 OFFCURVE",
"218 186 OFFCURVE",
"274 122 CURVE SMOOTH",
"362 20 OFFCURVE",
"512 -28 OFFCURVE",
"746 -28 CURVE SMOOTH",
"916 -28 OFFCURVE",
"1032 4 OFFCURVE",
"1118 76 CURVE SMOOTH",
"1212 156 OFFCURVE",
"1250 264 OFFCURVE",
"1250 454 CURVE SMOOTH",
"1250 1136 LINE SMOOTH",
"1250 1272 OFFCURVE",
"1270 1300 OFFCURVE",
"1362 1300 CURVE SMOOTH"
);
}
);
};
layerId = "D5373BAD-2ADC-4B72-8FF4-EE0AE5993387";
name = guide;
paths = (
{
closed = 1;
nodes = (
"1044 -26 OFFCURVE",
"1308 236 OFFCURVE",
"1308 560 CURVE SMOOTH",
"1308 882 OFFCURVE",
"1044 1144 OFFCURVE",
"722 1144 CURVE SMOOTH",
"400 1144 OFFCURVE",
"136 882 OFFCURVE",
"136 560 CURVE SMOOTH",
"136 236 OFFCURVE",
"400 -26 OFFCURVE",
"722 -26 CURVE SMOOTH"
);
}
);
width = 1440;
},
{
layerId = "1A84AFAC-8532-492C-A52A-D2ACD869B7F8";
width = 600;
},
{
layerId = "16E03120-9D89-4B3A-B1E3-633A6E865927";
width = 600;
}
);
leftKerningGroup = U;
note = U;
rightKerningGroup = U;
},
{
glyphname = C.orig;
lastChange = "2019-10-14 18:57:14 +0000";
layers = (
{
anchors = (
{
name = bottom;
position = "{866, 0}";
},
{
name = top;
position = "{870, 1430}";
}
);
background = {
paths = (
{
closed = 1;
nodes = (
"1140 0 LINE",
"1172 0 LINE",
"1172 476 LINE",
"1140 476 LINE",
"1136 374 OFFCURVE",
"1122 308 OFFCURVE",
"1086 244 CURVE SMOOTH",
"1004 100 OFFCURVE",
"852 8 OFFCURVE",
"692 8 CURVE SMOOTH",
"434 8 OFFCURVE",
"298 226 OFFCURVE",
"298 642 CURVE SMOOTH",
"298 844 OFFCURVE",
"334 1034 OFFCURVE",
"396 1148 CURVE SMOOTH",
"458 1266 OFFCURVE",
"560 1326 OFFCURVE",
"696 1326 CURVE SMOOTH",
"836 1326 OFFCURVE",
"956 1264 OFFCURVE",
"1048 1146 CURVE SMOOTH",
"1110 1066 OFFCURVE",
"1132 1006 OFFCURVE",
"1140 896 CURVE",
"1172 896 LINE",
"1172 1300 LINE",
"1140 1300 LINE",
"1132 1244 OFFCURVE",
"1112 1220 OFFCURVE",
"1078 1220 CURVE SMOOTH",
"1056 1220 OFFCURVE",
"1040 1228 OFFCURVE",
"982 1266 CURVE SMOOTH",
"888 1328 OFFCURVE",
"802 1354 OFFCURVE",
"694 1354 CURVE SMOOTH",
"526 1354 OFFCURVE",
"362 1272 OFFCURVE",
"240 1124 CURVE SMOOTH",
"138 1002 OFFCURVE",
"76 820 OFFCURVE",
"76 642 CURVE SMOOTH",
"76 490 OFFCURVE",
"124 340 OFFCURVE",
"208 230 CURVE SMOOTH",
"330 70 OFFCURVE",
"506 -22 OFFCURVE",
"688 -22 CURVE SMOOTH",
"806 -22 OFFCURVE",
"890 6 OFFCURVE",
"980 74 CURVE SMOOTH",
"1030 112 OFFCURVE",
"1044 118 OFFCURVE",
"1070 118 CURVE SMOOTH",
"1108 118 OFFCURVE",
"1140 70 OFFCURVE",
"1140 12 CURVE SMOOTH"
);
}
);
};
layerId = "EA94BB3F-1054-4F03-AAB6-69C3B81B3CC3";
paths = (
{
closed = 1;
nodes = (
"1072 -26 OFFCURVE",
"1266 42 OFFCURVE",
"1412 182 CURVE SMOOTH",
"1454 224 OFFCURVE",
"1492 268 OFFCURVE",
"1522 318 CURVE",
"1322 318 LINE",
"1234 122 OFFCURVE",
"1074 4 OFFCURVE",
"870 4 CURVE SMOOTH",
"554 4 OFFCURVE",
"342 288 OFFCURVE",
"342 712 CURVE SMOOTH",
"342 1142 OFFCURVE",
"554 1430 OFFCURVE",
"870 1430 CURVE SMOOTH",
"1070 1430 OFFCURVE",
"1230 1314 OFFCURVE",
"1318 1118 CURVE",
"1516 1118 LINE",
"1486 1166 OFFCURVE",
"1452 1208 OFFCURVE",
"1412 1244 CURVE SMOOTH",
"1274 1374 OFFCURVE",
"1062 1460 OFFCURVE",
"870 1460 CURVE SMOOTH",
"678 1460 OFFCURVE",
"466 1370 OFFCURVE",
"330 1244 CURVE SMOOTH",
"196 1118 OFFCURVE",
"106 930 OFFCURVE",
"106 712 CURVE SMOOTH",
"106 508 OFFCURVE",
"184 320 OFFCURVE",
"330 182 CURVE SMOOTH",
"476 44 OFFCURVE",
"668 -26 OFFCURVE",
"870 -26 CURVE SMOOTH"
);
}
);
width = 1570;
},
{
layerId = "1A84AFAC-8532-492C-A52A-D2ACD869B7F8";
width = 600;
},
{
layerId = "16E03120-9D89-4B3A-B1E3-633A6E865927";
width = 600;
}
);
leftKerningGroup = O;
note = C;
rightKerningGroup = C;
},
{
glyphname = G.orig;
lastChange = "2019-10-14 19:01:03 +0000";
layers = (
{
anchors = (
{
name = bottom;
position = "{862, 0}";
},
{
name = top;
position = "{870, 1430}";
}
);
background = {
paths = (
{
closed = 1;
nodes = (
"1294 974 LINE",
"1294 1406 LINE",
"1258 1406 LINE",
"1250 1358 LINE SMOOTH",
"1244 1324 OFFCURVE",
"1224 1308 OFFCURVE",
"1196 1308 CURVE SMOOTH",
"1172 1308 OFFCURVE",
"1164 1312 OFFCURVE",
"1092 1352 CURVE SMOOTH",
"1046 1376 LINE SMOOTH",
"960 1424 OFFCURVE",
"874 1446 OFFCURVE",
"776 1446 CURVE SMOOTH",
"594 1446 OFFCURVE",
"414 1366 OFFCURVE",
"282 1228 CURVE SMOOTH",
"148 1086 OFFCURVE",
"80 904 OFFCURVE",
"80 690 CURVE SMOOTH",
"80 268 OFFCURVE",
"362 -20 OFFCURVE",
"782 -20 CURVE SMOOTH",
"898 -20 OFFCURVE",
"1016 6 OFFCURVE",
"1126 54 CURVE SMOOTH",
"1198 88 OFFCURVE",
"1246 118 OFFCURVE",
"1346 196 CURVE",
"1346 424 LINE",
"1524 424 LINE",
"1524 460 LINE",
"922 460 LINE",
"922 424 LINE",
"1128 424 LINE",
"1128 250 LINE SMOOTH",
"1128 108 OFFCURVE",
"996 16 OFFCURVE",
"796 16 CURVE SMOOTH",
"466 16 OFFCURVE",
"320 230 OFFCURVE",
"320 712 CURVE SMOOTH",
"320 1168 OFFCURVE",
"474 1410 OFFCURVE",
"766 1410 CURVE SMOOTH",
"916 1410 OFFCURVE",
"1056 1344 OFFCURVE",
"1154 1226 CURVE SMOOTH",
"1216 1154 OFFCURVE",
"1238 1100 OFFCURVE",
"1258 974 CURVE"
);
}
);
};
layerId = "EA94BB3F-1054-4F03-AAB6-69C3B81B3CC3";
paths = (
{
closed = 1;
nodes = (
"1072 -26 OFFCURVE",
"1266 42 OFFCURVE",
"1412 182 CURVE SMOOTH",
"1536 302 OFFCURVE",
"1612 458 OFFCURVE",
"1630 630 CURVE",
"1396 630 LINE",
"1370 252 OFFCURVE",
"1166 4 OFFCURVE",
"870 4 CURVE SMOOTH",
"554 4 OFFCURVE",
"342 288 OFFCURVE",
"342 712 CURVE SMOOTH",
"342 1142 OFFCURVE",
"554 1430 OFFCURVE",
"870 1430 CURVE SMOOTH",
"1070 1430 OFFCURVE",
"1230 1314 OFFCURVE",
"1318 1118 CURVE",
"1516 1118 LINE",
"1486 1164 OFFCURVE",
"1452 1208 OFFCURVE",
"1412 1244 CURVE SMOOTH",
"1274 1374 OFFCURVE",
"1062 1460 OFFCURVE",
"870 1460 CURVE SMOOTH",
"678 1460 OFFCURVE",
"466 1370 OFFCURVE",
"330 1244 CURVE SMOOTH",
"196 1118 OFFCURVE",
"106 930 OFFCURVE",
"106 712 CURVE SMOOTH",
"106 508 OFFCURVE",
"184 320 OFFCURVE",
"330 182 CURVE SMOOTH",
"476 44 OFFCURVE",
"668 -26 OFFCURVE",
"870 -26 CURVE SMOOTH"
);
},
{
closed = 1;
nodes = (
"1446 594 LINE",
"1446 630 LINE",
"930 630 LINE",
"930 594 LINE"
);
}
);
width = 1628;
},
{
layerId = "1A84AFAC-8532-492C-A52A-D2ACD869B7F8";
width = 600;
},
{
layerId = "16E03120-9D89-4B3A-B1E3-633A6E865927";
width = 600;
}
);
leftKerningGroup = O;
note = G;
rightKerningGroup = G;
},
{
glyphname = N.orig;
lastChange = "2019-10-14 19:01:03 +0000";
layers = (
{
anchors = (
{
name = bottom;
position = "{764, 0}";
},
{
name = top;
position = "{764, 1430}";
}
);
background = {
paths = (
{
closed = 1;
nodes = (
"10 36 LINE",
"10 0 LINE",
"474 0 LINE",
"474 36 LINE",
"414 36 LINE SMOOTH",
"260 36 OFFCURVE",
"252 50 OFFCURVE",
"252 264 CURVE SMOOTH",
"252 1330 LINE",
"1306 -10 LINE",
"1320 -10 LINE",
"1320 1216 LINE SMOOTH",
"1320 1394 OFFCURVE",
"1320 1394 OFFCURVE",
"1468 1394 CURVE SMOOTH",
"1528 1394 LINE",
"1528 1430 LINE",
"1068 1430 LINE",
"1068 1394 LINE",
"1128 1394 LINE SMOOTH",
"1282 1394 OFFCURVE",
"1286 1392 OFFCURVE",
"1286 1216 CURVE SMOOTH",
"1286 376 LINE",
"452 1430 LINE",
"10 1430 LINE",
"10 1394 LINE",
"180 1394 LINE",
"218 1368 LINE",
"218 264 LINE SMOOTH",
"218 108 OFFCURVE",
"218 102 OFFCURVE",
"198 70 CURVE",
"180 46 OFFCURVE",
"156 36 OFFCURVE",
"80 36 CURVE SMOOTH"
);
}
);
};
layerId = "EA94BB3F-1054-4F03-AAB6-69C3B81B3CC3";
paths = (
{
closed = 1;
nodes = (
"160 0 LINE",
"160 1162 LINE",
"1190 0 LINE",
"1296 0 LINE",
"1296 1430 LINE",
"1260 1430 LINE",
"1260 272 LINE",
"234 1430 LINE",
"124 1430 LINE",
"124 0 LINE"
);
}
);
width = 1420;
},
{
layerId = "1A84AFAC-8532-492C-A52A-D2ACD869B7F8";
width = 600;
},
{
layerId = "16E03120-9D89-4B3A-B1E3-633A6E865927";
width = 600;
}
);
leftKerningGroup = H;
note = N;
rightKerningGroup = H;
},
{
glyphname = O.orig;
lastChange = "2019-10-14 19:01:03 +0000";
layers = (
{
anchors = (
{
name = bottom;
position = "{810, 0}";
},
{
name = center;
position = "{810, 716}";
},
{
name = ogonek;
position = "{1506, 20}";
},
{
name = top;
position = "{810, 1430}";
},
{
name = topright;
position = "{1640, 1430}";
}
);
background = {
paths = (
{
closed = 1;
nodes = (
"1012 -26 OFFCURVE",
"1206 42 OFFCURVE",
"1352 182 CURVE SMOOTH",
"1496 320 OFFCURVE",
"1574 508 OFFCURVE",
"1574 712 CURVE SMOOTH",
"1574 926 OFFCURVE",
"1488 1116 OFFCURVE",
"1352 1244 CURVE SMOOTH",
"1214 1374 OFFCURVE",
"1002 1460 OFFCURVE",
"810 1460 CURVE SMOOTH",
"618 1460 OFFCURVE",
"406 1370 OFFCURVE",
"270 1244 CURVE SMOOTH",
"136 1118 OFFCURVE",
"46 930 OFFCURVE",
"46 712 CURVE SMOOTH",
"46 508 OFFCURVE",
"124 320 OFFCURVE",
"270 182 CURVE SMOOTH",
"416 44 OFFCURVE",
"608 -26 OFFCURVE",
"810 -26 CURVE SMOOTH"
);
},
{
closed = 1;
nodes = (
"494 4 OFFCURVE",
"282 288 OFFCURVE",
"282 712 CURVE SMOOTH",
"282 1142 OFFCURVE",
"494 1430 OFFCURVE",
"810 1430 CURVE SMOOTH",
"1126 1430 OFFCURVE",
"1338 1142 OFFCURVE",
"1338 712 CURVE SMOOTH",
"1338 288 OFFCURVE",
"1126 4 OFFCURVE",
"810 4 CURVE SMOOTH"
);
}
);
};
layerId = "EA94BB3F-1054-4F03-AAB6-69C3B81B3CC3";
paths = (
{
closed = 1;
nodes = (
"1242 -26 OFFCURVE",
"1574 287 OFFCURVE",
"1574 712 CURVE SMOOTH",
"1574 1134 OFFCURVE",
"1231 1460 OFFCURVE",
"810 1460 CURVE SMOOTH",
"395 1460 OFFCURVE",
"46 1133 OFFCURVE",
"46 712 CURVE SMOOTH",
"46 288 OFFCURVE",
"383 -26 OFFCURVE",
"810 -26 CURVE SMOOTH"
);
},
{
closed = 1;
nodes = (
"494 4 OFFCURVE",
"282 288 OFFCURVE",
"282 712 CURVE SMOOTH",
"282 1142 OFFCURVE",
"494 1430 OFFCURVE",
"810 1430 CURVE SMOOTH",
"1126 1430 OFFCURVE",
"1338 1142 OFFCURVE",
"1338 712 CURVE SMOOTH",
"1338 288 OFFCURVE",
"1126 4 OFFCURVE",
"810 4 CURVE SMOOTH"
);
}
);
width = 1620;
},
{
layerId = "1A84AFAC-8532-492C-A52A-D2ACD869B7F8";
width = 600;
},
{
layerId = "16E03120-9D89-4B3A-B1E3-633A6E865927";
width = 600;
}
);
leftKerningGroup = O;
note = O;
rightKerningGroup = O;
},
{
glyphname = Q.orig;
lastChange = "2019-10-14 19:01:03 +0000";
layers = (
{
background = {
paths = (
{
closed = 1;
nodes = (
"976 -18 LINE",
"1080 8 OFFCURVE",
"1138 34 OFFCURVE",
"1210 84 CURVE SMOOTH",
"1420 220 OFFCURVE",
"1542 454 OFFCURVE",
"1542 712 CURVE SMOOTH",
"1542 884 OFFCURVE",
"1488 1052 OFFCURVE",
"1388 1184 CURVE SMOOTH",
"1262 1346 OFFCURVE",
"1054 1460 OFFCURVE",
"876 1460 CURVE SMOOTH",
"726 1460 OFFCURVE",
"556 1382 OFFCURVE",
"428 1252 CURVE SMOOTH",
"282 1106 OFFCURVE",
"208 928 OFFCURVE",
"208 722 CURVE SMOOTH",
"208 364 OFFCURVE",
"432 66 OFFCURVE",
"772 -18 CURVE",
"772 -188 LINE SMOOTH",
"772 -258 OFFCURVE",
"790 -302 OFFCURVE",
"834 -336 CURVE SMOOTH",
"896 -388 OFFCURVE",
"1070 -428 OFFCURVE",
"1224 -428 CURVE SMOOTH",
"1262 -428 OFFCURVE",
"1292 -428 OFFCURVE",
"1348 -424 CURVE",
"1348 -388 LINE",
"1300 -392 OFFCURVE",
"1260 -394 OFFCURVE",
"1230 -394 CURVE SMOOTH",
"1146 -394 OFFCURVE",
"1070 -378 OFFCURVE",
"1024 -348 CURVE SMOOTH",
"988 -324 OFFCURVE",
"976 -292 OFFCURVE",
"976 -220 CURVE SMOOTH"
);
},
{
closed = 1;
nodes = (
"1152 1428 OFFCURVE",
"1306 1172 OFFCURVE",
"1306 720 CURVE SMOOTH",
"1306 242 OFFCURVE",
"1164 6 OFFCURVE",
"874 6 CURVE SMOOTH",
"588 6 OFFCURVE",
"446 244 OFFCURVE",
"446 718 CURVE SMOOTH",
"446 1184 OFFCURVE",
"596 1428 OFFCURVE",
"882 1428 CURVE SMOOTH"
);
}
);
};
layerId = "EA94BB3F-1054-4F03-AAB6-69C3B81B3CC3";
paths = (
{
closed = 1;
nodes = (
"1056 -34 OFFCURVE",
"1270 48 OFFCURVE",
"1412 182 CURVE SMOOTH",
"1558 320 OFFCURVE",
"1634 512 OFFCURVE",
"1634 712 CURVE SMOOTH",
"1634 926 OFFCURVE",
"1548 1116 OFFCURVE",
"1412 1244 CURVE SMOOTH",
"1274 1374 OFFCURVE",
"1062 1460 OFFCURVE",
"870 1460 CURVE SMOOTH",
"678 1460 OFFCURVE",
"466 1370 OFFCURVE",
"330 1244 CURVE SMOOTH",
"196 1118 OFFCURVE",
"106 932 OFFCURVE",
"106 712 CURVE SMOOTH",
"106 506 OFFCURVE",
"184 320 OFFCURVE",
"330 182 CURVE SMOOTH",
"472 50 OFFCURVE",
"656 -24 OFFCURVE",
"852 -24 CURVE"
);
},
{
closed = 1;
nodes = (
"1286 -408 OFFCURVE",
"1328 -392 OFFCURVE",
"1328 -350 CURVE",
"1218 -350 LINE SMOOTH",
"1060 -350 OFFCURVE",
"974 -272 OFFCURVE",
"974 -196 CURVE SMOOTH",
"974 12 LINE",
"772 12 LINE",
"772 -182 LINE SMOOTH",
"772 -286 OFFCURVE",
"840 -332 OFFCURVE",
"926 -362 CURVE SMOOTH",
"996 -386 OFFCURVE",
"1104 -408 OFFCURVE",
"1202 -408 CURVE SMOOTH"
);
},
{
closed = 1;
nodes = (
"554 4 OFFCURVE",
"342 288 OFFCURVE",
"342 712 CURVE SMOOTH",
"342 1142 OFFCURVE",
"554 1430 OFFCURVE",
"870 1430 CURVE SMOOTH",
"1186 1430 OFFCURVE",
"1398 1142 OFFCURVE",
"1398 712 CURVE SMOOTH",
"1398 288 OFFCURVE",
"1186 4 OFFCURVE",
"870 4 CURVE SMOOTH"
);
}
);
width = 1740;
},
{
layerId = "1A84AFAC-8532-492C-A52A-D2ACD869B7F8";
width = 600;
},
{
layerId = "16E03120-9D89-4B3A-B1E3-633A6E865927";
width = 600;
}
);
leftKerningGroup = O;
note = Q;
rightKerningGroup = O;
},
{
glyphname = S.orig;
lastChange = "2019-10-14 19:01:03 +0000";
layers = (
{
anchors = (
{
name = bottom;
position = "{630, 0}";
},
{
name = top;
position = "{602, 1430}";
}
);
background = {
paths = (
{
closed = 1;
nodes = (
"134 510 LINE",
"134 -16 LINE",
"170 -16 LINE",
"178 56 OFFCURVE",
"190 80 OFFCURVE",
"226 80 CURVE SMOOTH",
"246 80 OFFCURVE",
"270 72 OFFCURVE",
"306 60 CURVE",
"372 32 LINE SMOOTH",
"490 -12 OFFCURVE",
"556 -28 OFFCURVE",
"660 -28 CURVE SMOOTH",
"932 -28 OFFCURVE",
"1120 158 OFFCURVE",
"1120 430 CURVE SMOOTH",
"1120 564 OFFCURVE",
"1074 674 OFFCURVE",
"992 738 CURVE SMOOTH",
"926 786 OFFCURVE",
"830 818 OFFCURVE",
"690 840 CURVE SMOOTH",
"582 856 LINE SMOOTH",
"328 892 OFFCURVE",
"232 964 OFFCURVE",
"232 1128 CURVE SMOOTH",
"232 1306 OFFCURVE",
"366 1428 OFFCURVE",
"560 1428 CURVE SMOOTH",
"702 1428 OFFCURVE",
"842 1362 OFFCURVE",
"914 1256 CURVE SMOOTH",
"970 1178 OFFCURVE",
"996 1100 OFFCURVE",
"1002 984 CURVE",
"1038 984 LINE",
"1038 1412 LINE",
"1002 1412 LINE",
"998 1350 OFFCURVE",
"984 1328 OFFCURVE",
"952 1330 CURVE",
"938 1330 OFFCURVE",
"926 1334 OFFCURVE",
"910 1342 CURVE SMOOTH",
"878 1362 LINE SMOOTH",
"724 1450 OFFCURVE",
"684 1462 OFFCURVE",
"576 1462 CURVE SMOOTH",
"320 1462 OFFCURVE",
"144 1286 OFFCURVE",
"144 1034 CURVE SMOOTH",
"144 918 OFFCURVE",
"184 810 OFFCURVE",
"246 748 CURVE SMOOTH",
"302 692 OFFCURVE",
"394 658 OFFCURVE",
"550 634 CURVE SMOOTH",
"662 616 LINE SMOOTH",
"808 594 OFFCURVE",
"878 570 OFFCURVE",
"936 524 CURVE",
"996 478 OFFCURVE",
"1026 414 OFFCURVE",
"1026 334 CURVE SMOOTH",
"1026 140 OFFCURVE",
"876 6 OFFCURVE",
"658 6 CURVE SMOOTH",
"484 6 OFFCURVE",
"316 96 OFFCURVE",
"238 236 CURVE SMOOTH",
"196 306 OFFCURVE",
"182 374 OFFCURVE",
"170 510 CURVE"
);
}
);
};
layerId = "EA94BB3F-1054-4F03-AAB6-69C3B81B3CC3";
paths = (
{
closed = 1;
nodes = (
"952 -26 OFFCURVE",
"1168 222 OFFCURVE",
"1168 460 CURVE SMOOTH",
"1168 720 OFFCURVE",
"908 848 OFFCURVE",
"664 890 CURVE SMOOTH",
"476 922 OFFCURVE",
"302 1004 OFFCURVE",
"302 1164 CURVE SMOOTH",
"302 1300 OFFCURVE",
"428 1424 OFFCURVE",
"582 1424 CURVE SMOOTH",
"750 1424 OFFCURVE",
"872 1276 OFFCURVE",
"884 1120 CURVE",
"1094 1120 LINE",
"1042 1368 OFFCURVE",
"824 1464 OFFCURVE",
"600 1464 CURVE SMOOTH",
"246 1464 OFFCURVE",
"134 1224 OFFCURVE",
"134 1044 CURVE SMOOTH",
"134 776 OFFCURVE",
"388 708 OFFCURVE",
"592 658 CURVE SMOOTH",
"756 618 OFFCURVE",
"994 562 OFFCURVE",
"994 350 CURVE SMOOTH",
"994 164 OFFCURVE",
"812 14 OFFCURVE",
"652 14 CURVE SMOOTH",
"468 14 OFFCURVE",
"336 212 OFFCURVE",
"314 420 CURVE",
"90 420 LINE",
"128 54 OFFCURVE",
"458 -26 OFFCURVE",
"636 -26 CURVE SMOOTH"
);
}
);
width = 1228;
},
{
associatedMasterId = "EA94BB3F-1054-4F03-AAB6-69C3B81B3CC3";
background = {
paths = (
{
closed = 1;
nodes = (
"122 510 LINE",
"122 -16 LINE",
"158 -16 LINE",
"166 56 OFFCURVE",
"178 80 OFFCURVE",
"214 80 CURVE SMOOTH",
"234 80 OFFCURVE",
"258 72 OFFCURVE",
"294 60 CURVE",
"360 32 LINE SMOOTH",
"478 -12 OFFCURVE",
"544 -28 OFFCURVE",
"648 -28 CURVE SMOOTH",
"920 -28 OFFCURVE",
"1108 158 OFFCURVE",
"1108 430 CURVE SMOOTH",
"1108 564 OFFCURVE",
"1062 674 OFFCURVE",
"980 738 CURVE SMOOTH",
"914 786 OFFCURVE",
"818 818 OFFCURVE",
"678 840 CURVE SMOOTH",
"570 856 LINE SMOOTH",
"316 892 OFFCURVE",
"220 964 OFFCURVE",
"220 1128 CURVE SMOOTH",
"220 1306 OFFCURVE",
"354 1428 OFFCURVE",
"548 1428 CURVE SMOOTH",
"690 1428 OFFCURVE",
"830 1362 OFFCURVE",
"902 1256 CURVE SMOOTH",
"958 1178 OFFCURVE",
"984 1100 OFFCURVE",
"990 984 CURVE",
"1026 984 LINE",
"1026 1412 LINE",
"990 1412 LINE",
"986 1350 OFFCURVE",
"972 1328 OFFCURVE",
"940 1330 CURVE",
"926 1330 OFFCURVE",
"914 1334 OFFCURVE",
"898 1342 CURVE SMOOTH",
"866 1362 LINE SMOOTH",
"712 1450 OFFCURVE",
"672 1462 OFFCURVE",
"564 1462 CURVE SMOOTH",
"308 1462 OFFCURVE",
"132 1286 OFFCURVE",
"132 1034 CURVE SMOOTH",
"132 918 OFFCURVE",
"172 810 OFFCURVE",
"234 748 CURVE SMOOTH",
"290 692 OFFCURVE",
"382 658 OFFCURVE",
"538 634 CURVE SMOOTH",
"650 616 LINE SMOOTH",
"796 594 OFFCURVE",
"866 570 OFFCURVE",
"924 524 CURVE",
"984 478 OFFCURVE",
"1014 414 OFFCURVE",
"1014 334 CURVE SMOOTH",
"1014 140 OFFCURVE",
"864 6 OFFCURVE",
"646 6 CURVE SMOOTH",
"472 6 OFFCURVE",
"304 96 OFFCURVE",
"226 236 CURVE SMOOTH",
"184 306 OFFCURVE",
"170 374 OFFCURVE",
"158 510 CURVE"
);
}
);
};
layerId = "F316E7BC-0223-4E5C-A467-02236A855F32";
name = "Regular Sep 21 15, 01:08";
paths = (
{
closed = 1;
nodes = (
"932 -26 OFFCURVE",
"1092 228 OFFCURVE",
"1092 464 CURVE SMOOTH",
"1092 756 OFFCURVE",
"850 838 OFFCURVE",
"664 890 CURVE SMOOTH",
"424 958 OFFCURVE",
"266 970 OFFCURVE",
"266 1140 CURVE SMOOTH",
"266 1288 OFFCURVE",
"388 1420 OFFCURVE",
"540 1420 CURVE SMOOTH",
"698 1420 OFFCURVE",
"810 1274 OFFCURVE",
"850 1120 CURVE",
"1040 1120 LINE",
"1030 1348 OFFCURVE",
"774 1464 OFFCURVE",
"560 1464 CURVE SMOOTH",
"262 1464 OFFCURVE",
"134 1242 OFFCURVE",
"134 1036 CURVE SMOOTH",
"134 894 OFFCURVE",
"198 724 OFFCURVE",
"538 662 CURVE SMOOTH",
"706 632 OFFCURVE",
"958 552 OFFCURVE",
"958 368 CURVE SMOOTH",
"958 214 OFFCURVE",
"784 22 OFFCURVE",
"626 22 CURVE SMOOTH",
"466 22 OFFCURVE",
"276 212 OFFCURVE",
"256 420 CURVE",
"58 420 LINE",
"88 74 OFFCURVE",
"398 -26 OFFCURVE",
"604 -26 CURVE SMOOTH"
);
}
);
width = 1568;
},
{
layerId = "1A84AFAC-8532-492C-A52A-D2ACD869B7F8";
width = 600;
},
{
layerId = "16E03120-9D89-4B3A-B1E3-633A6E865927";
width = 600;
}
);
leftKerningGroup = S;
note = S;
rightKerningGroup = S;
},
{
glyphname = K.start;
lastChange = "2019-10-14 19:01:03 +0000";
layers = (
{
background = {
paths = (
{
closed = 1;
nodes = (
"634 852 LINE",
"946 1132 LINE SMOOTH",
"1050 1228 OFFCURVE",
"1170 1320 OFFCURVE",
"1248 1364 CURVE SMOOTH",
"1286 1384 OFFCURVE",
"1322 1394 OFFCURVE",
"1380 1394 CURVE SMOOTH",
"1494 1394 LINE",
"1494 1430 LINE",
"884 1430 LINE",
"884 1394 LINE",
"992 1394 LINE SMOOTH",
"1070 1394 OFFCURVE",
"1094 1384 OFFCURVE",
"1094 1354 CURVE SMOOTH",
"1094 1328 OFFCURVE",
"1054 1278 OFFCURVE",
"986 1216 CURVE SMOOTH",
"452 736 LINE",
"452 1394 LINE",
"666 1394 LINE",
"666 1430 LINE",
"36 1430 LINE",
"36 1394 LINE",
"244 1394 LINE",
"244 36 LINE",
"36 36 LINE",
"36 0 LINE",
"678 0 LINE",
"678 36 LINE",
"452 36 LINE",
"452 688 LINE",
"478 712 LINE",
"1036 36 LINE",
"834 36 LINE",
"834 0 LINE",
"1530 0 LINE",
"1530 36 LINE",
"1324 36 LINE"
);
}
);
};
layerId = "EA94BB3F-1054-4F03-AAB6-69C3B81B3CC3";
paths = (
{
closed = 1;
nodes = (
"1346 0 LINE",
"426 1094 LINE",
"268 962 LINE",
"1188 -134 LINE"
);
},
{
closed = 1;
nodes = (
"378 0 LINE",
"378 1430 LINE",
"172 1430 LINE",
"172 0 LINE"
);
},
{
closed = 1;
nodes = (
"1144 1466 LINE",
"1116 1490 LINE",
"346 572 LINE",
"374 548 LINE"
);
}
);
width = 1182;
},
{
layerId = "1A84AFAC-8532-492C-A52A-D2ACD869B7F8";
width = 600;
},
{
layerId = "16E03120-9D89-4B3A-B1E3-633A6E865927";
width = 600;
}
);
leftKerningGroup = K.start;
note = K;
rightKerningGroup = K.start;
},
{
glyphname = K.v;
lastChange = "2019-10-14 19:01:03 +0000";
layers = (
{
background = {
paths = (
{
closed = 1;
nodes = (
"634 852 LINE",
"946 1132 LINE SMOOTH",
"1050 1228 OFFCURVE",
"1170 1320 OFFCURVE",
"1248 1364 CURVE SMOOTH",
"1286 1384 OFFCURVE",
"1322 1394 OFFCURVE",
"1380 1394 CURVE SMOOTH",
"1494 1394 LINE",
"1494 1430 LINE",
"884 1430 LINE",
"884 1394 LINE",
"992 1394 LINE SMOOTH",
"1070 1394 OFFCURVE",
"1094 1384 OFFCURVE",
"1094 1354 CURVE SMOOTH",
"1094 1328 OFFCURVE",
"1054 1278 OFFCURVE",
"986 1216 CURVE SMOOTH",
"452 736 LINE",
"452 1394 LINE",
"666 1394 LINE",
"666 1430 LINE",
"36 1430 LINE",
"36 1394 LINE",
"244 1394 LINE",
"244 36 LINE",
"36 36 LINE",
"36 0 LINE",
"678 0 LINE",
"678 36 LINE",
"452 36 LINE",
"452 688 LINE",
"478 712 LINE",
"1036 36 LINE",
"834 36 LINE",
"834 0 LINE",
"1530 0 LINE",
"1530 36 LINE",
"1324 36 LINE"
);
}
);
};
layerId = "EA94BB3F-1054-4F03-AAB6-69C3B81B3CC3";
paths = (
{
closed = 1;
nodes = (
"1346 0 LINE",
"645 834 LINE",
"1252 1442 LINE",
"1226 1468 LINE",
"622 862 LINE",
"426 1094 LINE",
"268 962 LINE",
"476 716 LINE",
"352 592 LINE",
"378 566 LINE",
"499 687 LINE",
"1188 -134 LINE"
);
},
{
closed = 1;
nodes = (
"378 0 LINE",
"378 1430 LINE",
"172 1430 LINE",
"172 0 LINE"
);
}
);
width = 1182;
},
{
layerId = "1A84AFAC-8532-492C-A52A-D2ACD869B7F8";
width = 600;
},
{
layerId = "16E03120-9D89-4B3A-B1E3-633A6E865927";
width = 600;
}
);
leftKerningGroup = K.v;
note = K;
rightKerningGroup = K.v;
},
{
glyphname = K.v001;
lastChange = "2019-10-14 19:01:03 +0000";
layers = (
{
background = {
paths = (
{
closed = 1;
nodes = (
"634 852 LINE",
"946 1132 LINE SMOOTH",
"1050 1228 OFFCURVE",
"1170 1320 OFFCURVE",
"1248 1364 CURVE SMOOTH",
"1286 1384 OFFCURVE",
"1322 1394 OFFCURVE",
"1380 1394 CURVE SMOOTH",
"1494 1394 LINE",
"1494 1430 LINE",
"884 1430 LINE",
"884 1394 LINE",
"992 1394 LINE SMOOTH",
"1070 1394 OFFCURVE",
"1094 1384 OFFCURVE",
"1094 1354 CURVE SMOOTH",
"1094 1328 OFFCURVE",
"1054 1278 OFFCURVE",
"986 1216 CURVE SMOOTH",
"452 736 LINE",
"452 1394 LINE",
"666 1394 LINE",
"666 1430 LINE",
"36 1430 LINE",
"36 1394 LINE",
"244 1394 LINE",
"244 36 LINE",
"36 36 LINE",
"36 0 LINE",
"678 0 LINE",
"678 36 LINE",
"452 36 LINE",
"452 688 LINE",
"478 712 LINE",
"1036 36 LINE",
"834 36 LINE",
"834 0 LINE",
"1530 0 LINE",
"1530 36 LINE",
"1324 36 LINE"
);
}
);
};
layerId = "EA94BB3F-1054-4F03-AAB6-69C3B81B3CC3";
paths = (
{
closed = 1;
nodes = (
"378 0 LINE",
"378 566 LINE",
"498 688 LINE",
"1076 0 LINE",
"1346 0 LINE",
"644 834 LINE",
"1240 1430 LINE",
"1188 1430 LINE",
"378 618 LINE",
"378 1430 LINE",
"172 1430 LINE",
"172 0 LINE"
);
}
);
width = 1182;
},
{
layerId = "1A84AFAC-8532-492C-A52A-D2ACD869B7F8";
width = 600;
},
{
layerId = "16E03120-9D89-4B3A-B1E3-633A6E865927";
width = 600;
}
);
leftKerningGroup = K.v001;
note = K;
rightKerningGroup = K.v001;
},
{
glyphname = K.v002;
lastChange = "2019-10-14 19:01:03 +0000";
layers = (
{
background = {
paths = (
{
closed = 1;
nodes = (
"634 852 LINE",
"946 1132 LINE SMOOTH",
"1050 1228 OFFCURVE",
"1170 1320 OFFCURVE",
"1248 1364 CURVE SMOOTH",
"1286 1384 OFFCURVE",
"1322 1394 OFFCURVE",
"1380 1394 CURVE SMOOTH",
"1494 1394 LINE",
"1494 1430 LINE",
"884 1430 LINE",
"884 1394 LINE",
"992 1394 LINE SMOOTH",
"1070 1394 OFFCURVE",
"1094 1384 OFFCURVE",
"1094 1354 CURVE SMOOTH",
"1094 1328 OFFCURVE",
"1054 1278 OFFCURVE",
"986 1216 CURVE SMOOTH",
"452 736 LINE",
"452 1394 LINE",
"666 1394 LINE",
"666 1430 LINE",
"36 1430 LINE",
"36 1394 LINE",
"244 1394 LINE",
"244 36 LINE",
"36 36 LINE",
"36 0 LINE",
"678 0 LINE",
"678 36 LINE",
"452 36 LINE",
"452 688 LINE",
"478 712 LINE",
"1036 36 LINE",
"834 36 LINE",
"834 0 LINE",
"1530 0 LINE",
"1530 36 LINE",
"1324 36 LINE"
);
}
);
};
layerId = "EA94BB3F-1054-4F03-AAB6-69C3B81B3CC3";
paths = (
{
closed = 1;
nodes = (
"378 0 LINE",
"378 714 LINE",
"976 0 LINE",
"1246 0 LINE",
"544 834 LINE",
"1140 1430 LINE",
"1088 1430 LINE",
"378 718 LINE",
"378 1430 LINE",
"172 1430 LINE",
"172 0 LINE"
);
}
);
width = 1182;
},
{
layerId = "1A84AFAC-8532-492C-A52A-D2ACD869B7F8";
width = 600;
},
{
layerId = "16E03120-9D89-4B3A-B1E3-633A6E865927";
width = 600;
}
);
leftKerningGroup = K.v002;
note = K;
rightKerningGroup = K.v002;
},
{
glyphname = a;
lastChange = "2019-10-14 19:41:45 +0000";
layers = (
{
anchors = (
{
name = bottom;
position = "{528, 0}";
},
{
name = ogonek;
position = "{1082, 20}";
},
{
name = top;
position = "{528, 914}";
}
);
background = {
paths = (
{
closed = 1;
nodes = (
"708 520 LINE",
"694 520 LINE SMOOTH",
"534 520 OFFCURVE",
"346 490 OFFCURVE",
"230 446 CURVE SMOOTH",
"120 406 OFFCURVE",
"34 286 OFFCURVE",
"34 186 CURVE SMOOTH",
"34 52 OFFCURVE",
"168 -38 OFFCURVE",
"370 -38 CURVE SMOOTH",
"528 -38 OFFCURVE",
"656 32 OFFCURVE",
"716 132 CURVE",
"732 36 OFFCURVE",
"798 -16 OFFCURVE",
"902 -16 CURVE SMOOTH",
"988 -16 OFFCURVE",
"1052 24 OFFCURVE",
"1096 106 CURVE",
"1066 122 LINE",
"1030 62 OFFCURVE",
"996 34 OFFCURVE",
"958 34 CURVE SMOOTH",
"900 34 OFFCURVE",
"892 72 OFFCURVE",
"892 280 CURVE SMOOTH",
"892 658 LINE SMOOTH",
"892 752 OFFCURVE",
"866 792 OFFCURVE",
"786 844 CURVE SMOOTH",
"698 896 OFFCURVE",
"588 926 OFFCURVE",
"476 926 CURVE SMOOTH",
"276 926 OFFCURVE",
"110 814 OFFCURVE",
"110 678 CURVE SMOOTH",
"110 612 OFFCURVE",
"154 566 OFFCURVE",
"212 566 CURVE SMOOTH",
"270 566 OFFCURVE",
"310 608 OFFCURVE",
"310 666 CURVE SMOOTH",
"310 700 OFFCURVE",
"300 718 OFFCURVE",
"262 746 CURVE SMOOTH",
"244 760 OFFCURVE",
"238 770 OFFCURVE",
"238 784 CURVE SMOOTH",
"238 846 OFFCURVE",
"340 890 OFFCURVE",
"480 890 CURVE SMOOTH",
"528 890 OFFCURVE",
"574 886 OFFCURVE",
"604 878 CURVE SMOOTH",
"684 860 OFFCURVE",
"708 822 OFFCURVE",
"708 722 CURVE SMOOTH"
);
},
{
closed = 1;
nodes = (
"708 486 LINE",
"708 184 LINE",
"668 92 OFFCURVE",
"554 14 OFFCURVE",
"432 14 CURVE SMOOTH",
"290 14 OFFCURVE",
"240 72 OFFCURVE",
"240 230 CURVE SMOOTH",
"240 316 OFFCURVE",
"258 382 OFFCURVE",
"302 414 CURVE SMOOTH",
"364 458 OFFCURVE",
"510 486 OFFCURVE",
"692 486 CURVE SMOOTH"
);
}
);
};
layerId = "EA94BB3F-1054-4F03-AAB6-69C3B81B3CC3";
paths = (
{
closed = 1;
nodes = (
"690 -46 OFFCURVE",
"787 81 OFFCURVE",
"828 243 CURVE",
"798 255 LINE",
"798 0 LINE",
"1000 0 LINE",
"1000 914 LINE",
"794 914 LINE",
"794 633 LINE",
"823 643 LINE",
"781 822 OFFCURVE",
"671 940 OFFCURVE",
"478 940 CURVE SMOOTH",
"222 940 OFFCURVE",
"66 731 OFFCURVE",
"66 445 CURVE SMOOTH",
"66 154 OFFCURVE",
"226 -46 OFFCURVE",
"484 -46 CURVE SMOOTH"
);
},
{
closed = 1;
nodes = (
"312 -4 OFFCURVE",
"272 248 OFFCURVE",
"272 450 CURVE SMOOTH",
"272 691 OFFCURVE",
"329 898 OFFCURVE",
"510 898 CURVE SMOOTH",
"704 898 OFFCURVE",
"808 658 OFFCURVE",
"808 442 CURVE SMOOTH",
"808 234 OFFCURVE",
"712 -4 OFFCURVE",
"515 -4 CURVE SMOOTH"
);
}
);
width = 1096;
},
{
anchors = (
{
name = bottom;
position = "{627, 0}";
},
{
name = ogonek;
position = "{1181, 20}";
},
{
name = top;
position = "{627, 914}";
}
);
layerId = "16E03120-9D89-4B3A-B1E3-633A6E865927";
paths = (
{
closed = 1;
nodes = (
"796 -36 OFFCURVE",
"941 72 OFFCURVE",
"990 266 CURVE",
"902 320 LINE",
"902 0 LINE",
"1234 0 LINE",
"1234 944 LINE",
"898 944 LINE",
"898 604 LINE",
"986 659 LINE",
"941 855 OFFCURVE",
"792 970 OFFCURVE",
"577 970 CURVE SMOOTH",
"289 970 OFFCURVE",
"100 768 OFFCURVE",
"100 460 CURVE SMOOTH",
"100 162 OFFCURVE",
"290 -36 OFFCURVE",
"583 -36 CURVE SMOOTH"
);
},
{
closed = 1;
nodes = (
"507 36 OFFCURVE",
"436 205 OFFCURVE",
"436 465 CURVE SMOOTH",
"436 731 OFFCURVE",
"506 898 OFFCURVE",
"609 898 CURVE SMOOTH",
"730 898 OFFCURVE",
"842 692 OFFCURVE",
"842 457 CURVE SMOOTH",
"842 234 OFFCURVE",
"735 36 OFFCURVE",
"614 36 CURVE SMOOTH"
);
}
);
width = 1384;
},
{
anchors = (
{
name = bottom;
position = "{460, 0}";
},
{
name = ogonek;
position = "{828, 10}";
},
{
name = top;
position = "{460, 914}";
}
);
layerId = "1A84AFAC-8532-492C-A52A-D2ACD869B7F8";
paths = (
{
closed = 1;
nodes = (
"631 -24 OFFCURVE",
"764 91 OFFCURVE",
"815 271 CURVE",
"805 285 LINE",
"795 0 LINE",
"852 0 LINE",
"852 914 LINE",
"795 914 LINE",
"795 607 LINE",
"815 621 LINE",
"763 808 OFFCURVE",
"630 938 OFFCURVE",
"440 938 CURVE SMOOTH",
"194 938 OFFCURVE",
"45 722 OFFCURVE",
"45 444 CURVE SMOOTH",
"45 166 OFFCURVE",
"195 -24 OFFCURVE",
"440 -24 CURVE SMOOTH"
);
},
{
closed = 1;
nodes = (
"229 4 OFFCURVE",
"97 166 OFFCURVE",
"97 454 CURVE SMOOTH",
"97 749 OFFCURVE",
"237 910 OFFCURVE",
"440 910 CURVE SMOOTH",
"649 910 OFFCURVE",
"791 732 OFFCURVE",
"791 444 CURVE SMOOTH",
"791 149 OFFCURVE",
"641 4 OFFCURVE",
"440 4 CURVE SMOOTH"
);
}
);
width = 920;
}
);
leftKerningGroup = a;
leftMetricsKey = o;
note = a;
rightKerningGroup = n;
unicode = 0061;
},
{
glyphname = ae;
lastChange = "2019-10-14 19:01:03 +0000";
layers = (
{
anchors = (
{
name = bottom;
position = "{835, 0}";
},
{
name = top;
position = "{835, 914}";
}
);
background = {
paths = (
{
closed = 1;
nodes = (
"1275 272 LINE",
"1271 252 LINE SMOOTH",
"1241 108 OFFCURVE",
"1103 4 OFFCURVE",
"943 4 CURVE SMOOTH",
"861 4 OFFCURVE",
"797 30 OFFCURVE",
"761 78 CURVE SMOOTH",
"725 124 OFFCURVE",
"713 176 OFFCURVE",
"713 288 CURVE SMOOTH",
"713 304 LINE",
"715 462 LINE",
"1237 462 LINE SMOOTH",
"1291 462 OFFCURVE",
"1293 462 OFFCURVE",
"1293 476 CURVE SMOOTH",
"1293 504 OFFCURVE",
"1263 588 OFFCURVE",
"1237 630 CURVE SMOOTH",
"1167 746 OFFCURVE",
"1043 818 OFFCURVE",
"915 818 CURVE SMOOTH",
"817 818 OFFCURVE",
"731 784 OFFCURVE",
"661 720 CURVE",
"601 784 OFFCURVE",
"503 818 OFFCURVE",
"373 818 CURVE SMOOTH",
"189 818 OFFCURVE",
"49 726 OFFCURVE",
"49 604 CURVE SMOOTH",
"49 548 OFFCURVE",
"89 504 OFFCURVE",
"143 504 CURVE SMOOTH",
"189 504 OFFCURVE",
"225 540 OFFCURVE",
"225 588 CURVE SMOOTH",
"225 616 OFFCURVE",
"211 644 OFFCURVE",
"189 658 CURVE SMOOTH",
"165 674 OFFCURVE",
"159 682 OFFCURVE",
"159 696 CURVE SMOOTH",
"159 748 OFFCURVE",
"249 790 OFFCURVE",
"361 790 CURVE SMOOTH",
"415 790 OFFCURVE",
"469 780 OFFCURVE",
"495 764 CURVE",
"533 744 OFFCURVE",
"543 708 OFFCURVE",
"543 600 CURVE SMOOTH",
"543 448 LINE",
"413 446 OFFCURVE",
"355 440 OFFCURVE",
"279 428 CURVE SMOOTH",
"95 396 OFFCURVE",
"-15 300 OFFCURVE",
"-15 174 CURVE SMOOTH",
"-15 56 OFFCURVE",
"95 -20 OFFCURVE",
"265 -20 CURVE SMOOTH",
"401 -20 OFFCURVE",
"503 24 OFFCURVE",
"565 110 CURVE",
"611 26 OFFCURVE",
"741 -26 OFFCURVE",
"911 -26 CURVE SMOOTH",
"1033 -26 OFFCURVE",
"1103 -6 OFFCURVE",
"1173 48 CURVE SMOOTH",
"1239 98 OFFCURVE",
"1287 172 OFFCURVE",
"1303 248 CURVE",
"1307 264 LINE"
);
},
{
closed = 1;
nodes = (
"545 200 LINE SMOOTH",
"545 144 OFFCURVE",
"543 130 OFFCURVE",
"533 116 CURVE SMOOTH",
"495 64 OFFCURVE",
"401 22 OFFCURVE",
"315 22 CURVE SMOOTH",
"207 22 OFFCURVE",
"161 78 OFFCURVE",
"161 208 CURVE SMOOTH",
"161 312 OFFCURVE",
"191 362 OFFCURVE",
"269 388 CURVE SMOOTH",
"337 412 OFFCURVE",
"391 418 OFFCURVE",
"545 418 CURVE"
);
},
{
closed = 1;
nodes = (
"715 494 LINE",
"715 546 LINE SMOOTH",
"715 642 OFFCURVE",
"723 682 OFFCURVE",
"753 722 CURVE",
"787 764 OFFCURVE",
"845 790 OFFCURVE",
"913 790 CURVE SMOOTH",
"999 790 OFFCURVE",
"1057 754 OFFCURVE",
"1079 690 CURVE SMOOTH",
"1091 658 OFFCURVE",
"1097 600 OFFCURVE",
"1097 530 CURVE SMOOTH",
"1097 512 OFFCURVE",
"1097 502 OFFCURVE",
"1095 498 CURVE SMOOTH",
"1093 494 OFFCURVE",
"1093 494 OFFCURVE",
"1031 494 CURVE SMOOTH"
);
}
);
};
components = (
{
name = a;
},
{
alignment = -1;
name = e;
transform = "{0.95238, 0, 0, 1, 834, 0}";
}
);
guideLines = (
{
position = "{273, 363}";
},
{
position = "{289, 80}";
},
{
angle = 90;
position = "{804, 179}";
}
);
layerId = "EA94BB3F-1054-4F03-AAB6-69C3B81B3CC3";
width = 1779;
},
{
layerId = "1A84AFAC-8532-492C-A52A-D2ACD869B7F8";
width = 600;
},
{
layerId = "16E03120-9D89-4B3A-B1E3-633A6E865927";
width = 600;
}
);
leftKerningGroup = a;
note = ae;
rightKerningGroup = e;
rightMetricsKey = e;
unicode = 00E6;
},
{
glyphname = b;
lastChange = "2019-10-14 19:44:20 +0000";
layers = (
{
anchors = (
{
name = bottom;
position = "{548, 0}";
},
{
name = top;
position = "{548, 1514}";
}
);
background = {
paths = (
{
closed = 1;
nodes = (
"378 1620 LINE",
"352 1568 OFFCURVE",
"318 1554 OFFCURVE",
"236 1554 CURVE SMOOTH",
"16 1554 LINE",
"16 1516 LINE",
"194 1516 LINE",
"194 40 LINE",
"16 40 LINE",
"16 0 LINE",
"378 0 LINE",
"378 170 LINE",
"442 40 OFFCURVE",
"552 -38 OFFCURVE",
"700 -38 CURVE SMOOTH",
"958 -38 OFFCURVE",
"1188 196 OFFCURVE",
"1188 456 CURVE SMOOTH",
"1188 706 OFFCURVE",
"960 926 OFFCURVE",
"724 926 CURVE SMOOTH",
"568 926 OFFCURVE",
"456 870 OFFCURVE",
"378 724 CURVE"
);
},
{
closed = 1;
nodes = (
"974 382 LINE SMOOTH",
"974 264 OFFCURVE",
"956 148 OFFCURVE",
"928 102 CURVE SMOOTH",
"892 40 OFFCURVE",
"818 -4 OFFCURVE",
"720 -4 CURVE SMOOTH",
"542 -4 OFFCURVE",
"378 144 OFFCURVE",
"378 292 CURVE SMOOTH",
"378 584 LINE SMOOTH",
"378 750 OFFCURVE",
"550 890 OFFCURVE",
"728 890 CURVE SMOOTH",
"846 890 OFFCURVE",
"926 850 OFFCURVE",
"954 744 CURVE SMOOTH",
"970 682 OFFCURVE",
"974 628 OFFCURVE",
"974 488 CURVE SMOOTH"
);
}
);
};
layerId = "EA94BB3F-1054-4F03-AAB6-69C3B81B3CC3";
paths = (
{
closed = 1;
nodes = (
"870 -46 OFFCURVE",
"1030 154 OFFCURVE",
"1030 445 CURVE SMOOTH",
"1030 731 OFFCURVE",
"874 940 OFFCURVE",
"618 940 CURVE SMOOTH",
"425 940 OFFCURVE",
"315 822 OFFCURVE",
"273 643 CURVE",
"302 633 LINE",
"302 1514 LINE",
"100 1514 LINE",
"100 0 LINE",
"298 0 LINE",
"298 255 LINE",
"268 243 LINE",
"309 81 OFFCURVE",
"406 -46 OFFCURVE",
"612 -46 CURVE SMOOTH"
);
},
{
closed = 1;
nodes = (
"384 -4 OFFCURVE",
"288 234 OFFCURVE",
"288 442 CURVE SMOOTH",
"288 658 OFFCURVE",
"392 898 OFFCURVE",
"586 898 CURVE SMOOTH",
"767 898 OFFCURVE",
"824 691 OFFCURVE",
"824 450 CURVE SMOOTH",
"824 248 OFFCURVE",
"784 -4 OFFCURVE",
"581 -4 CURVE SMOOTH"
);
}
);
width = 1096;
},
{
anchors = (
{
name = bottom;
position = "{449, 0}";
},
{
name = top;
position = "{449, 1514}";
}
);
layerId = "1A84AFAC-8532-492C-A52A-D2ACD869B7F8";
paths = (
{
closed = 1;
nodes = (
"702 -24 OFFCURVE",
"852 166 OFFCURVE",
"852 444 CURVE SMOOTH",
"852 722 OFFCURVE",
"703 938 OFFCURVE",
"457 938 CURVE SMOOTH",
"267 938 OFFCURVE",
"134 808 OFFCURVE",
"82 621 CURVE",
"102 607 LINE",
"102 1514 LINE",
"45 1514 LINE",
"45 0 LINE",
"102 0 LINE",
"92 285 LINE",
"82 271 LINE",
"133 91 OFFCURVE",
"266 -24 OFFCURVE",
"457 -24 CURVE SMOOTH"
);
},
{
closed = 1;
nodes = (
"256 4 OFFCURVE",
"106 149 OFFCURVE",
"106 444 CURVE SMOOTH",
"106 732 OFFCURVE",
"248 910 OFFCURVE",
"457 910 CURVE SMOOTH",
"660 910 OFFCURVE",
"800 749 OFFCURVE",
"800 454 CURVE SMOOTH",
"800 166 OFFCURVE",
"668 4 OFFCURVE",
"457 4 CURVE SMOOTH"
);
}
);
width = 897;
},
{
anchors = (
{
name = bottom;
position = "{687, 0}";
},
{
name = top;
position = "{687, 1514}";
}
);
layerId = "16E03120-9D89-4B3A-B1E3-633A6E865927";
paths = (
{
closed = 1;
nodes = (
"1084 -36 OFFCURVE",
"1274 162 OFFCURVE",
"1274 460 CURVE SMOOTH",
"1274 768 OFFCURVE",
"1085 970 OFFCURVE",
"797 970 CURVE SMOOTH",
"582 970 OFFCURVE",
"433 855 OFFCURVE",
"388 659 CURVE",
"476 604 LINE",
"476 1524 LINE",
"140 1524 LINE",
"140 0 LINE",
"472 0 LINE",
"472 320 LINE",
"384 266 LINE",
"433 72 OFFCURVE",
"578 -36 OFFCURVE",
"791 -36 CURVE SMOOTH"
);
},
{
closed = 1;
nodes = (
"639 36 OFFCURVE",
"532 234 OFFCURVE",
"532 457 CURVE SMOOTH",
"532 692 OFFCURVE",
"644 898 OFFCURVE",
"765 898 CURVE SMOOTH",
"868 898 OFFCURVE",
"938 731 OFFCURVE",
"938 465 CURVE SMOOTH",
"938 205 OFFCURVE",
"867 36 OFFCURVE",
"760 36 CURVE SMOOTH"
);
}
);
width = 1374;
}
);
leftKerningGroup = h;
note = b;
rightKerningGroup = o;
rightMetricsKey = o;
unicode = 0062;
},
{
glyphname = c;
lastChange = "2019-10-14 19:43:41 +0000";
layers = (
{
anchors = (
{
name = bottom;
position = "{487, -20}";
},
{
name = top;
position = "{537, 914}";
}
);
background = {
paths = (
{
closed = 1;
nodes = (
"916 312 LINE",
"880 116 OFFCURVE",
"746 -4 OFFCURVE",
"548 -4 CURVE SMOOTH",
"342 -4 OFFCURVE",
"270 102 OFFCURVE",
"270 382 CURVE SMOOTH",
"270 486 LINE SMOOTH",
"270 808 OFFCURVE",
"340 890 OFFCURVE",
"574 890 CURVE SMOOTH",
"688 890 OFFCURVE",
"754 880 OFFCURVE",
"754 846 CURVE SMOOTH",
"754 836 OFFCURVE",
"752 830 OFFCURVE",
"748 824 CURVE SMOOTH",
"712 786 OFFCURVE",
"700 764 OFFCURVE",
"700 730 CURVE SMOOTH",
"700 670 OFFCURVE",
"746 622 OFFCURVE",
"802 622 CURVE SMOOTH",
"858 622 OFFCURVE",
"902 668 OFFCURVE",
"902 726 CURVE SMOOTH",
"902 846 OFFCURVE",
"762 926 OFFCURVE",
"578 926 CURVE SMOOTH",
"450 926 OFFCURVE",
"344 892 OFFCURVE",
"240 800 CURVE SMOOTH",
"132 702 OFFCURVE",
"58 540 OFFCURVE",
"58 402 CURVE SMOOTH",
"58 302 OFFCURVE",
"102 204 OFFCURVE",
"182 116 CURVE SMOOTH",
"270 24 OFFCURVE",
"406 -38 OFFCURVE",
"558 -38 CURVE SMOOTH",
"772 -38 OFFCURVE",
"922 102 OFFCURVE",
"948 312 CURVE"
);
}
);
};
layerId = "EA94BB3F-1054-4F03-AAB6-69C3B81B3CC3";
paths = (
{
closed = 1;
nodes = (
"642 -46 OFFCURVE",
"744 -14 OFFCURVE",
"826 34 CURVE",
"826 212 LINE",
"757 72 OFFCURVE",
"644 -4 OFFCURVE",
"546 -4 CURVE SMOOTH",
"366 -4 OFFCURVE",
"270 249 OFFCURVE",
"270 444 CURVE SMOOTH",
"270 636 OFFCURVE",
"364 898 OFFCURVE",
"557 898 CURVE SMOOTH",
"655 898 OFFCURVE",
"746 831 OFFCURVE",
"810 700 CURVE",
"810 864 LINE",
"717 909 OFFCURVE",
"627 940 OFFCURVE",
"526 940 CURVE SMOOTH",
"261 940 OFFCURVE",
"66 724 OFFCURVE",
"66 435 CURVE SMOOTH",
"66 154 OFFCURVE",
"250 -46 OFFCURVE",
"530 -46 CURVE SMOOTH"
);
}
);
width = 886;
},
{
anchors = (
{
name = bottom;
position = "{341, 0}";
},
{
name = top;
position = "{341, 914}";
}
);
background = {
paths = (
{
closed = 1;
nodes = (
"503 4 OFFCURVE",
"541 23 OFFCURVE",
"610 59 CURVE",
"610 16 LINE",
"559 -3 OFFCURVE",
"504 -24 OFFCURVE",
"450 -24 CURVE SMOOTH",
"203 -24 OFFCURVE",
"54 174 OFFCURVE",
"54 444 CURVE SMOOTH",
"54 718 OFFCURVE",
"208 918 OFFCURVE",
"461 918 CURVE SMOOTH",
"507 918 OFFCURVE",
"552 901 OFFCURVE",
"594 888 CURVE",
"594 847 LINE",
"517 882 OFFCURVE",
"483 890 OFFCURVE",
"430 890 CURVE SMOOTH",
"238 890 OFFCURVE",
"90 716 OFFCURVE",
"90 435 CURVE SMOOTH",
"90 153 OFFCURVE",
"229 4 OFFCURVE",
"434 4 CURVE SMOOTH"
);
}
);
};
layerId = "1A84AFAC-8532-492C-A52A-D2ACD869B7F8";
paths = (
{
closed = 1;
nodes = (
"510 -30 OFFCURVE",
"591 -5 OFFCURVE",
"652 42 CURVE",
"652 88 LINE",
"592 33 OFFCURVE",
"513 -2 OFFCURVE",
"430 -2 CURVE SMOOTH",
"245 -2 OFFCURVE",
"99 173 OFFCURVE",
"99 444 CURVE SMOOTH",
"99 715 OFFCURVE",
"245 890 OFFCURVE",
"430 890 CURVE SMOOTH",
"513 890 OFFCURVE",
"592 855 OFFCURVE",
"652 800 CURVE",
"652 846 LINE",
"591 893 OFFCURVE",
"510 918 OFFCURVE",
"431 918 CURVE SMOOTH",
"238 918 OFFCURVE",
"45 767 OFFCURVE",
"45 444 CURVE SMOOTH",
"45 121 OFFCURVE",
"238 -30 OFFCURVE",
"431 -30 CURVE SMOOTH"
);
}
);
width = 702;
},
{
anchors = (
{
name = bottom;
position = "{449, 0}";
},
{
name = top;
position = "{449, 919}";
}
);
layerId = "16E03120-9D89-4B3A-B1E3-633A6E865927";
paths = (
{
closed = 1;
nodes = (
"674 -61 OFFCURVE",
"833 -15 OFFCURVE",
"903 43 CURVE",
"903 309 LINE",
"787 102 OFFCURVE",
"651 11 OFFCURVE",
"558 11 CURVE SMOOTH",
"413 11 OFFCURVE",
"347 229 OFFCURVE",
"347 444 CURVE SMOOTH",
"347 667 OFFCURVE",
"421 883 OFFCURVE",
"569 883 CURVE SMOOTH",
"647 883 OFFCURVE",
"742 822 OFFCURVE",
"887 601 CURVE",
"887 859 LINE",
"770 921 OFFCURVE",
"648 955 OFFCURVE",
"538 955 CURVE SMOOTH",
"235 955 OFFCURVE",
"13 735 OFFCURVE",
"13 435 CURVE SMOOTH",
"13 141 OFFCURVE",
"229 -61 OFFCURVE",
"542 -61 CURVE SMOOTH"
);
}
);
width = 898;
}
);
leftMetricsKey = o;
note = c;
unicode = 0063;
},
{
glyphname = d;
lastChange = "2019-10-14 19:01:03 +0000";
layers = (
{
anchors = (
{
name = bottom;
position = "{540, -4}";
},
{
name = center;
position = "{880, 1261}";
},
{
name = ogonek;
position = "{1096, 20}";
},
{
name = top;
position = "{572, 914}";
},
{
name = topright;
position = "{1104, 1514}";
}
);
background = {
paths = (
{
closed = 1;
nodes = (
"878 730 LINE",
"810 870 OFFCURVE",
"696 926 OFFCURVE",
"538 926 CURVE SMOOTH",
"288 926 OFFCURVE",
"70 714 OFFCURVE",
"70 448 CURVE SMOOTH",
"70 196 OFFCURVE",
"298 -38 OFFCURVE",
"552 -38 CURVE SMOOTH",
"698 -38 OFFCURVE",
"822 36 OFFCURVE",
"878 162 CURVE",
"878 0 LINE",
"1240 0 LINE",
"1240 40 LINE",
"1062 40 LINE",
"1062 1622 LINE",
"1034 1568 OFFCURVE",
"1002 1554 OFFCURVE",
"920 1554 CURVE SMOOTH",
"702 1554 LINE",
"702 1516 LINE",
"878 1516 LINE"
);
},
{
closed = 1;
nodes = (
"878 314 LINE SMOOTH",
"878 242 OFFCURVE",
"864 192 OFFCURVE",
"818 132 CURVE SMOOTH",
"748 46 OFFCURVE",
"654 -4 OFFCURVE",
"546 -4 CURVE SMOOTH",
"458 -4 OFFCURVE",
"372 34 OFFCURVE",
"334 90 CURVE SMOOTH",
"300 142 OFFCURVE",
"282 258 OFFCURVE",
"282 406 CURVE SMOOTH",
"282 504 LINE SMOOTH",
"282 670 OFFCURVE",
"298 746 OFFCURVE",
"340 804 CURVE SMOOTH",
"378 858 OFFCURVE",
"452 890 OFFCURVE",
"536 890 CURVE SMOOTH",
"724 890 OFFCURVE",
"878 754 OFFCURVE",
"878 568 CURVE SMOOTH"
);
}
);
};
layerId = "EA94BB3F-1054-4F03-AAB6-69C3B81B3CC3";
paths = (
{
closed = 1;
nodes = (
"704 -46 OFFCURVE",
"801 81 OFFCURVE",
"842 243 CURVE",
"812 255 LINE",
"812 0 LINE",
"1010 0 LINE",
"1010 1514 LINE",
"808 1514 LINE",
"808 633 LINE",
"837 643 LINE",
"795 822 OFFCURVE",
"685 940 OFFCURVE",
"492 940 CURVE SMOOTH",
"236 940 OFFCURVE",
"80 731 OFFCURVE",
"80 445 CURVE SMOOTH",
"80 154 OFFCURVE",
"240 -46 OFFCURVE",
"498 -46 CURVE SMOOTH"
);
},
{
closed = 1;
nodes = (
"326 -4 OFFCURVE",
"286 248 OFFCURVE",
"286 450 CURVE SMOOTH",
"286 691 OFFCURVE",
"343 898 OFFCURVE",
"524 898 CURVE SMOOTH",
"718 898 OFFCURVE",
"822 658 OFFCURVE",
"822 442 CURVE SMOOTH",
"822 234 OFFCURVE",
"726 -4 OFFCURVE",
"529 -4 CURVE SMOOTH"
);
}
);
width = 1110;
},
{
layerId = "1A84AFAC-8532-492C-A52A-D2ACD869B7F8";
width = 600;
},
{
layerId = "16E03120-9D89-4B3A-B1E3-633A6E865927";
width = 600;
}
);
leftKerningGroup = o;
note = d;
rightKerningGroup = l;
unicode = 0064;
},
{
glyphname = eth;
lastChange = "2019-10-14 19:01:03 +0000";
layers = (
{
background = {
paths = (
{
closed = 1;
nodes = (
"810 1628 LINE",
"748 1628 LINE",
"194 1096 LINE",
"256 1096 LINE"
);
},
{
closed = 1;
nodes = (
"382 -4 OFFCURVE",
"282 256 OFFCURVE",
"282 444 CURVE SMOOTH",
"282 632 OFFCURVE",
"382 898 OFFCURVE",
"562 898 CURVE SMOOTH",
"742 898 OFFCURVE",
"842 632 OFFCURVE",
"842 444 CURVE SMOOTH",
"842 256 OFFCURVE",
"742 -4 OFFCURVE",
"562 -4 CURVE SMOOTH"
);
},
{
closed = 1;
nodes = (
"474 1332 LINE",
"679 1185 OFFCURVE",
"788 1019 OFFCURVE",
"842 790 CURVE",
"875 814 LINE",
"785 889 OFFCURVE",
"681 940 OFFCURVE",
"563 940 CURVE SMOOTH",
"431 940 OFFCURVE",
"307 876 OFFCURVE",
"218 786 CURVE SMOOTH",
"122 689 OFFCURVE",
"76 572 OFFCURVE",
"76 443 CURVE SMOOTH",
"76 312 OFFCURVE",
"124 198 OFFCURVE",
"218 104 CURVE SMOOTH",
"310 12 OFFCURVE",
"430 -46 OFFCURVE",
"563 -46 CURVE SMOOTH",
"697 -46 OFFCURVE",
"817 13 OFFCURVE",
"906 106 CURVE SMOOTH",
"993 197 OFFCURVE",
"1048 318 OFFCURVE",
"1048 503 CURVE SMOOTH",
"1048 651 OFFCURVE",
"1013 833 OFFCURVE",
"937 986 CURVE SMOOTH",
"836 1188 OFFCURVE",
"694 1280 OFFCURVE",
"529 1382 CURVE",
"530 1387 LINE",
"354 1469 OFFCURVE",
"317 1481 OFFCURVE",
"172 1510 CURVE",
"146 1472 LINE",
"274 1445 OFFCURVE",
"352 1415 OFFCURVE",
"472 1334 CURVE"
);
}
);
};
layerId = "EA94BB3F-1054-4F03-AAB6-69C3B81B3CC3";
paths = (
{
closed = 1;
nodes = (
"758 1146 OFFCURVE",
"842 790 CURVE",
"875 814 LINE",
"785 889 OFFCURVE",
"681 940 OFFCURVE",
"563 940 CURVE SMOOTH",
"431 940 OFFCURVE",
"307 876 OFFCURVE",
"218 786 CURVE SMOOTH",
"122 689 OFFCURVE",
"76 572 OFFCURVE",
"76 443 CURVE SMOOTH",
"76 312 OFFCURVE",
"124 198 OFFCURVE",
"218 104 CURVE SMOOTH",
"310 12 OFFCURVE",
"430 -46 OFFCURVE",
"563 -46 CURVE SMOOTH",
"697 -46 OFFCURVE",
"817 13 OFFCURVE",
"906 106 CURVE SMOOTH",
"993 197 OFFCURVE",
"1048 319 OFFCURVE",
"1048 501 CURVE SMOOTH",
"1048 647 OFFCURVE",
"1013 836 OFFCURVE",
"937 986 CURVE SMOOTH",
"797 1261 OFFCURVE",
"496 1444 OFFCURVE",
"172 1510 CURVE",
"146 1472 LINE",
"495 1398 OFFCURVE"
);
},
{
closed = 1;
nodes = (
"382 -4 OFFCURVE",
"282 256 OFFCURVE",
"282 444 CURVE SMOOTH",
"282 632 OFFCURVE",
"382 898 OFFCURVE",
"562 898 CURVE SMOOTH",
"742 898 OFFCURVE",
"842 632 OFFCURVE",
"842 444 CURVE SMOOTH",
"842 256 OFFCURVE",
"742 -4 OFFCURVE",
"562 -4 CURVE SMOOTH"
);
},
{
closed = 1;
nodes = (
"810 1628 LINE",
"748 1628 LINE",
"194 1096 LINE",
"256 1096 LINE"
);
}
);
width = 1138;
},
{
layerId = "1A84AFAC-8532-492C-A52A-D2ACD869B7F8";
width = 600;
},
{
layerId = "16E03120-9D89-4B3A-B1E3-633A6E865927";
width = 600;
}
);
leftKerningGroup = eth;
note = eth;
rightKerningGroup = eth;
unicode = 00F0;
},
{
glyphname = dcroat;
lastChange = "2019-10-14 19:01:03 +0000";
layers = (
{
background = {
paths = (
{
closed = 1;
nodes = (
"702 1516 LINE",
"878 1516 LINE",
"878 1282 LINE",
"542 1282 LINE",
"542 1242 LINE",
"878 1242 LINE",
"878 730 LINE",
"810 870 OFFCURVE",
"696 944 OFFCURVE",
"538 944 CURVE SMOOTH",
"288 944 OFFCURVE",
"70 714 OFFCURVE",
"70 448 CURVE SMOOTH",
"70 196 OFFCURVE",
"298 -30 OFFCURVE",
"552 -30 CURVE SMOOTH",
"698 -30 OFFCURVE",
"822 44 OFFCURVE",
"878 162 CURVE",
"878 0 LINE",
"1240 0 LINE",
"1240 40 LINE",
"1062 40 LINE",
"1062 1242 LINE",
"1240 1242 LINE",
"1240 1282 LINE",
"1062 1282 LINE",
"1062 1622 LINE",
"1034 1568 OFFCURVE",
"1002 1554 OFFCURVE",
"920 1554 CURVE SMOOTH",
"702 1554 LINE"
);
},
{
closed = 1;
nodes = (
"878 314 LINE SMOOTH",
"878 242 OFFCURVE",
"864 200 OFFCURVE",
"818 140 CURVE SMOOTH",
"748 54 OFFCURVE",
"654 4 OFFCURVE",
"546 4 CURVE SMOOTH",
"458 4 OFFCURVE",
"372 42 OFFCURVE",
"334 98 CURVE SMOOTH",
"300 150 OFFCURVE",
"282 258 OFFCURVE",
"282 406 CURVE SMOOTH",
"282 504 LINE SMOOTH",
"282 670 OFFCURVE",
"298 764 OFFCURVE",
"340 822 CURVE SMOOTH",
"378 876 OFFCURVE",
"452 908 OFFCURVE",
"536 908 CURVE SMOOTH",
"724 908 OFFCURVE",
"878 756 OFFCURVE",
"878 568 CURVE SMOOTH"
);
}
);
};
components = (
{
name = d;
},
{
name = strokeshortcomb;
transform = "{1, 0, 0, 1, 302, 509}";
}
);
layerId = "EA94BB3F-1054-4F03-AAB6-69C3B81B3CC3";
width = 1110;
},
{
layerId = "1A84AFAC-8532-492C-A52A-D2ACD869B7F8";
width = 600;
},
{
layerId = "16E03120-9D89-4B3A-B1E3-633A6E865927";
width = 600;
}
);
leftKerningGroup = o;
note = dcroat;
rightKerningGroup = l;
unicode = 0111;
},
{
glyphname = e;
lastChange = "2019-10-14 19:01:03 +0000";
layers = (
{
anchors = (
{
name = bottom;
position = "{496, 0}";
},
{
name = ogonek;
position = "{893, 10}";
},
{
name = top;
position = "{496, 914}";
}
);
background = {
paths = (
{
closed = 1;
nodes = (
"919 314 LINE",
"887 218 OFFCURVE",
"875 184 OFFCURVE",
"831 138 CURVE",
"753 48 OFFCURVE",
"647 2 OFFCURVE",
"525 2 CURVE SMOOTH",
"425 2 OFFCURVE",
"351 34 OFFCURVE",
"305 94 CURVE SMOOTH",
"269 144 OFFCURVE",
"257 214 OFFCURVE",
"257 370 CURVE SMOOTH",
"257 392 OFFCURVE",
"257 420 OFFCURVE",
"261 540 CURVE",
"911 540 LINE SMOOTH",
"931 540 OFFCURVE",
"937 542 OFFCURVE",
"937 554 CURVE SMOOTH",
"937 580 OFFCURVE",
"907 644 OFFCURVE",
"875 700 CURVE SMOOTH",
"795 838 OFFCURVE",
"649 928 OFFCURVE",
"503 928 CURVE SMOOTH",
"381 928 OFFCURVE",
"269 872 OFFCURVE",
"181 768 CURVE SMOOTH",
"97 666 OFFCURVE",
"47 554 OFFCURVE",
"47 444 CURVE SMOOTH",
"47 330 OFFCURVE",
"87 212 OFFCURVE",
"161 132 CURVE SMOOTH",
"273 16 OFFCURVE",
"385 -38 OFFCURVE",
"533 -38 CURVE SMOOTH",
"741 -38 OFFCURVE",
"905 94 OFFCURVE",
"957 308 CURVE"
);
},
{
closed = 1;
nodes = (
"261 580 LINE",
"265 696 OFFCURVE",
"271 734 OFFCURVE",
"289 776 CURVE SMOOTH",
"321 852 OFFCURVE",
"397 896 OFFCURVE",
"497 896 CURVE SMOOTH",
"613 896 OFFCURVE",
"679 846 OFFCURVE",
"705 738 CURVE",
"711 700 OFFCURVE",
"717 672 OFFCURVE",
"717 606 CURVE SMOOTH",
"717 582 OFFCURVE",
"713 580 OFFCURVE",
"681 580 CURVE SMOOTH"
);
}
);
};
layerId = "EA94BB3F-1054-4F03-AAB6-69C3B81B3CC3";
paths = (
{
closed = 1;
nodes = (
"761 -46 OFFCURVE",
"877 80 OFFCURVE",
"952 270 CURVE",
"876 270 LINE",
"845 128 OFFCURVE",
"683 -4 OFFCURVE",
"547 -4 CURVE SMOOTH",
"356 -4 OFFCURVE",
"282 256 OFFCURVE",
"282 442 CURVE SMOOTH",
"282 496 OFFCURVE",
"290 526 OFFCURVE",
"290 524 CURVE",
"193 504 LINE",
"978 504 LINE",
"942 771 OFFCURVE",
"779 940 OFFCURVE",
"532 940 CURVE SMOOTH",
"264 940 OFFCURVE",
"76 742 OFFCURVE",
"76 444 CURVE SMOOTH",
"76 150 OFFCURVE",
"260 -46 OFFCURVE",
"538 -46 CURVE SMOOTH"
);
},
{
closed = 1;
nodes = (
"288 530 LINE",
"311 705 OFFCURVE",
"392 898 OFFCURVE",
"538 898 CURVE SMOOTH",
"684 898 OFFCURVE",
"746 706 OFFCURVE",
"769 532 CURVE",
"861 540 LINE",
"196 540 LINE"
);
}
);
width = 992;
},
{
anchors = (
{
name = bottom;
position = "{514, 0}";
},
{
name = ogonek;
position = "{926, 20}";
},
{
name = top;
position = "{514, 914}";
}
);
associatedMasterId = "EA94BB3F-1054-4F03-AAB6-69C3B81B3CC3";
background = {
paths = (
{
closed = 1;
nodes = (
"942 314 LINE",
"910 218 OFFCURVE",
"898 184 OFFCURVE",
"854 138 CURVE",
"776 48 OFFCURVE",
"670 2 OFFCURVE",
"548 2 CURVE SMOOTH",
"448 2 OFFCURVE",
"374 34 OFFCURVE",
"328 94 CURVE SMOOTH",
"292 144 OFFCURVE",
"280 214 OFFCURVE",
"280 370 CURVE SMOOTH",
"280 392 OFFCURVE",
"280 420 OFFCURVE",
"284 540 CURVE",
"934 540 LINE SMOOTH",
"954 540 OFFCURVE",
"960 542 OFFCURVE",
"960 554 CURVE SMOOTH",
"960 580 OFFCURVE",
"930 644 OFFCURVE",
"898 700 CURVE SMOOTH",
"818 838 OFFCURVE",
"672 928 OFFCURVE",
"526 928 CURVE SMOOTH",
"404 928 OFFCURVE",
"292 872 OFFCURVE",
"204 768 CURVE SMOOTH",
"120 666 OFFCURVE",
"70 554 OFFCURVE",
"70 444 CURVE SMOOTH",
"70 330 OFFCURVE",
"110 212 OFFCURVE",
"184 132 CURVE SMOOTH",
"296 16 OFFCURVE",
"408 -38 OFFCURVE",
"556 -38 CURVE SMOOTH",
"764 -38 OFFCURVE",
"928 94 OFFCURVE",
"980 308 CURVE"
);
},
{
closed = 1;
nodes = (
"284 580 LINE",
"288 696 OFFCURVE",
"294 734 OFFCURVE",
"312 776 CURVE SMOOTH",
"344 852 OFFCURVE",
"420 896 OFFCURVE",
"520 896 CURVE SMOOTH",
"636 896 OFFCURVE",
"702 846 OFFCURVE",
"728 738 CURVE",
"734 700 OFFCURVE",
"740 672 OFFCURVE",
"740 606 CURVE SMOOTH",
"740 582 OFFCURVE",
"736 580 OFFCURVE",
"704 580 CURVE SMOOTH"
);
}
);
};
layerId = "CF405077-515B-4F02-93DE-151DC82928DC";
name = "Regular Sep 22 15, 14:15";
paths = (
{
closed = 1;
nodes = (
"754 -46 OFFCURVE",
"942 88 OFFCURVE",
"1016 270 CURVE",
"936 270 LINE",
"896 128 OFFCURVE",
"690 -4 OFFCURVE",
"562 -4 CURVE SMOOTH",
"382 -4 OFFCURVE",
"282 256 OFFCURVE",
"282 444 CURVE SMOOTH",
"282 470 OFFCURVE",
"284 490 OFFCURVE",
"286 504 CURVE",
"838 504 LINE",
"1044 504 LINE",
"1038 540 LINE",
"996 756 OFFCURVE",
"782 940 OFFCURVE",
"562 940 CURVE SMOOTH",
"310 940 OFFCURVE",
"76 714 OFFCURVE",
"76 444 CURVE SMOOTH",
"76 178 OFFCURVE",
"304 -46 OFFCURVE",
"562 -46 CURVE SMOOTH"
);
},
{
closed = 1;
nodes = (
"316 712 OFFCURVE",
"411 898 OFFCURVE",
"562 898 CURVE SMOOTH",
"713 898 OFFCURVE",
"808 712 OFFCURVE",
"834 540 CURVE",
"290 540 LINE"
);
}
);
visible = 1;
width = 1028;
},
{
layerId = "1A84AFAC-8532-492C-A52A-D2ACD869B7F8";
width = 600;
},
{
layerId = "16E03120-9D89-4B3A-B1E3-633A6E865927";
width = 600;
}
);
leftKerningGroup = o;
note = e;
rightKerningGroup = e;
unicode = 0065;
},
{
glyphname = eacute;
lastChange = "2019-10-14 19:01:03 +0000";
layers = (
{
background = {
paths = (
{
closed = 1;
nodes = (
"816 272 LINE",
"788 188 OFFCURVE",
"778 166 OFFCURVE",
"740 126 CURVE",
"672 48 OFFCURVE",
"580 8 OFFCURVE",
"474 8 CURVE SMOOTH",
"388 8 OFFCURVE",
"324 36 OFFCURVE",
"284 88 CURVE SMOOTH",
"252 132 OFFCURVE",
"242 186 OFFCURVE",
"242 320 CURVE SMOOTH",
"242 340 OFFCURVE",
"242 364 OFFCURVE",
"246 468 CURVE",
"808 468 LINE SMOOTH",
"826 468 OFFCURVE",
"832 470 OFFCURVE",
"832 480 CURVE SMOOTH",
"832 502 OFFCURVE",
"806 572 OFFCURVE",
"778 620 CURVE SMOOTH",
"708 740 OFFCURVE",
"582 818 OFFCURVE",
"456 818 CURVE SMOOTH",
"350 818 OFFCURVE",
"252 768 OFFCURVE",
"176 678 CURVE SMOOTH",
"104 590 OFFCURVE",
"60 480 OFFCURVE",
"60 384 CURVE SMOOTH",
"60 286 OFFCURVE",
"96 190 OFFCURVE",
"160 122 CURVE SMOOTH",
"256 20 OFFCURVE",
"354 -26 OFFCURVE",
"482 -26 CURVE SMOOTH",
"662 -26 OFFCURVE",
"804 88 OFFCURVE",
"848 266 CURVE"
);
},
{
closed = 1;
nodes = (
"246 502 LINE",
"250 616 OFFCURVE",
"254 650 OFFCURVE",
"270 686 CURVE SMOOTH",
"298 752 OFFCURVE",
"364 790 OFFCURVE",
"450 790 CURVE SMOOTH",
"550 790 OFFCURVE",
"608 746 OFFCURVE",
"630 652 CURVE",
"636 620 OFFCURVE",
"640 582 OFFCURVE",
"640 524 CURVE SMOOTH",
"640 504 OFFCURVE",
"638 502 OFFCURVE",
"610 502 CURVE SMOOTH"
);
},
{
closed = 1;
nodes = (
"430 906 LINE",
"668 1134 LINE SMOOTH",
"714 1178 OFFCURVE",
"730 1200 OFFCURVE",
"730 1222 CURVE SMOOTH",
"730 1258 OFFCURVE",
"696 1284 OFFCURVE",
"652 1284 CURVE SMOOTH",
"596 1284 OFFCURVE",
"578 1266 OFFCURVE",
"514 1142 CURVE SMOOTH",
"390 906 LINE"
);
}
);
};
components = (
{
name = e;
},
{
name = acutecomb;
transform = "{1, 0, 0, 1, 26, 0}";
}
);
layerId = "EA94BB3F-1054-4F03-AAB6-69C3B81B3CC3";
width = 992;
},
{
layerId = "1A84AFAC-8532-492C-A52A-D2ACD869B7F8";
width = 600;
},
{
layerId = "16E03120-9D89-4B3A-B1E3-633A6E865927";
width = 600;
}
);
leftKerningGroup = o;
note = eacute;
rightKerningGroup = e;
unicode = 00E9;
},
{
glyphname = ecircumflex;
lastChange = "2019-10-14 19:01:03 +0000";
layers = (
{
background = {
paths = (
{
closed = 1;
nodes = (
"816 272 LINE",
"788 188 OFFCURVE",
"778 166 OFFCURVE",
"740 126 CURVE",
"672 48 OFFCURVE",
"580 8 OFFCURVE",
"474 8 CURVE SMOOTH",
"388 8 OFFCURVE",
"324 36 OFFCURVE",
"284 88 CURVE SMOOTH",
"252 132 OFFCURVE",
"242 186 OFFCURVE",
"242 320 CURVE SMOOTH",
"242 340 OFFCURVE",
"242 364 OFFCURVE",
"246 468 CURVE",
"808 468 LINE SMOOTH",
"826 468 OFFCURVE",
"832 470 OFFCURVE",
"832 480 CURVE SMOOTH",
"832 502 OFFCURVE",
"806 572 OFFCURVE",
"778 620 CURVE SMOOTH",
"708 740 OFFCURVE",
"582 818 OFFCURVE",
"456 818 CURVE SMOOTH",
"350 818 OFFCURVE",
"252 768 OFFCURVE",
"176 678 CURVE SMOOTH",
"104 590 OFFCURVE",
"60 480 OFFCURVE",
"60 384 CURVE SMOOTH",
"60 286 OFFCURVE",
"96 190 OFFCURVE",
"160 122 CURVE SMOOTH",
"256 20 OFFCURVE",
"354 -26 OFFCURVE",
"482 -26 CURVE SMOOTH",
"662 -26 OFFCURVE",
"804 88 OFFCURVE",
"848 266 CURVE"
);
},
{
closed = 1;
nodes = (
"246 502 LINE",
"250 616 OFFCURVE",
"254 650 OFFCURVE",
"270 686 CURVE SMOOTH",
"298 752 OFFCURVE",
"364 790 OFFCURVE",
"450 790 CURVE SMOOTH",
"550 790 OFFCURVE",
"608 746 OFFCURVE",
"630 652 CURVE",
"636 620 OFFCURVE",
"640 582 OFFCURVE",
"640 524 CURVE SMOOTH",
"640 504 OFFCURVE",
"638 502 OFFCURVE",
"610 502 CURVE SMOOTH"
);
},
{
closed = 1;
nodes = (
"504 1282 LINE",
"376 1282 LINE",
"172 906 LINE",
"208 906 LINE",
"436 1150 LINE",
"674 906 LINE",
"710 906 LINE"
);
}
);
};
components = (
{
name = e;
},
{
name = circumflexcomb;
transform = "{1, 0, 0, 1, -84, 0}";
}
);
layerId = "EA94BB3F-1054-4F03-AAB6-69C3B81B3CC3";
width = 992;
},
{
layerId = "1A84AFAC-8532-492C-A52A-D2ACD869B7F8";
width = 600;
},
{
layerId = "16E03120-9D89-4B3A-B1E3-633A6E865927";
width = 600;
}
);
leftKerningGroup = o;
note = ecircumflex;
rightKerningGroup = e;
unicode = 00EA;
},
{
glyphname = egrave;
lastChange = "2019-10-14 19:01:03 +0000";
layers = (
{
background = {
paths = (
{
closed = 1;
nodes = (
"816 272 LINE",
"788 188 OFFCURVE",
"778 166 OFFCURVE",
"740 126 CURVE",
"672 48 OFFCURVE",
"580 8 OFFCURVE",
"474 8 CURVE SMOOTH",
"388 8 OFFCURVE",
"324 36 OFFCURVE",
"284 88 CURVE SMOOTH",
"252 132 OFFCURVE",
"242 186 OFFCURVE",
"242 320 CURVE SMOOTH",
"242 340 OFFCURVE",
"242 364 OFFCURVE",
"246 468 CURVE",
"808 468 LINE SMOOTH",
"826 468 OFFCURVE",
"832 470 OFFCURVE",
"832 480 CURVE SMOOTH",
"832 502 OFFCURVE",
"806 572 OFFCURVE",
"778 620 CURVE SMOOTH",
"708 740 OFFCURVE",
"582 818 OFFCURVE",
"456 818 CURVE SMOOTH",
"350 818 OFFCURVE",
"252 768 OFFCURVE",
"176 678 CURVE SMOOTH",
"104 590 OFFCURVE",
"60 480 OFFCURVE",
"60 384 CURVE SMOOTH",
"60 286 OFFCURVE",
"96 190 OFFCURVE",
"160 122 CURVE SMOOTH",
"256 20 OFFCURVE",
"354 -26 OFFCURVE",
"482 -26 CURVE SMOOTH",
"662 -26 OFFCURVE",
"804 88 OFFCURVE",
"848 266 CURVE"
);
},
{
closed = 1;
nodes = (
"246 502 LINE",
"250 616 OFFCURVE",
"254 650 OFFCURVE",
"270 686 CURVE SMOOTH",
"298 752 OFFCURVE",
"364 790 OFFCURVE",
"450 790 CURVE SMOOTH",
"550 790 OFFCURVE",
"608 746 OFFCURVE",
"630 652 CURVE",
"636 620 OFFCURVE",
"640 582 OFFCURVE",
"640 524 CURVE SMOOTH",
"640 504 OFFCURVE",
"638 502 OFFCURVE",
"610 502 CURVE SMOOTH"
);
},
{
closed = 1;
nodes = (
"490 906 LINE",
"530 906 LINE",
"406 1142 LINE SMOOTH",
"342 1266 OFFCURVE",
"324 1284 OFFCURVE",
"268 1284 CURVE SMOOTH",
"224 1284 OFFCURVE",
"190 1258 OFFCURVE",
"190 1222 CURVE SMOOTH",
"190 1202 OFFCURVE",
"206 1178 OFFCURVE",
"252 1134 CURVE SMOOTH"
);
}
);
};
components = (
{
name = e;
},
{
name = gravecomb;
transform = "{1, 0, 0, 1, 6, 0}";
}
);
layerId = "EA94BB3F-1054-4F03-AAB6-69C3B81B3CC3";
width = 992;
},
{
layerId = "1A84AFAC-8532-492C-A52A-D2ACD869B7F8";
width = 600;
},
{
layerId = "16E03120-9D89-4B3A-B1E3-633A6E865927";
width = 600;
}
);
leftKerningGroup = o;
note = egrave;
rightKerningGroup = e;
unicode = 00E8;
},
{
color = 0;
glyphname = f;
lastChange = "2019-10-14 18:43:13 +0000";
layers = (
{
anchors = (
{
name = bottom;
position = "{289, 0}";
},
{
name = top;
position = "{289, 1514}";
}
);
background = {
paths = (
{
closed = 1;
nodes = (
"384 854 LINE",
"636 854 LINE",
"636 894 LINE",
"384 894 LINE",
"384 1262 LINE SMOOTH",
"384 1398 OFFCURVE",
"392 1448 OFFCURVE",
"414 1494 CURVE SMOOTH",
"438 1540 OFFCURVE",
"482 1566 OFFCURVE",
"534 1566 CURVE SMOOTH",
"594 1566 OFFCURVE",
"638 1544 OFFCURVE",
"638 1510 CURVE SMOOTH",
"638 1494 OFFCURVE",
"632 1486 OFFCURVE",
"610 1484 CURVE",
"558 1472 OFFCURVE",
"526 1440 OFFCURVE",
"526 1390 CURVE SMOOTH",
"526 1336 OFFCURVE",
"568 1294 OFFCURVE",
"620 1294 CURVE SMOOTH",
"680 1294 OFFCURVE",
"722 1340 OFFCURVE",
"722 1404 CURVE SMOOTH",
"722 1520 OFFCURVE",
"646 1600 OFFCURVE",
"534 1600 CURVE SMOOTH",
"346 1600 OFFCURVE",
"196 1360 OFFCURVE",
"196 1052 CURVE SMOOTH",
"196 894 LINE",
"18 894 LINE",
"18 854 LINE",
"196 854 LINE",
"196 40 LINE",
"18 40 LINE",
"18 0 LINE",
"588 0 LINE",
"588 40 LINE",
"384 40 LINE"
);
}
);
};
layerId = "EA94BB3F-1054-4F03-AAB6-69C3B81B3CC3";
paths = (
{
closed = 1;
nodes = (
"400 1152 LINE SMOOTH",
"400 1266 OFFCURVE",
"402 1481 OFFCURVE",
"450 1520 CURVE",
"515 1518 OFFCURVE",
"573 1484 OFFCURVE",
"573 1399 CURVE SMOOTH",
"573 1369 OFFCURVE",
"566 1320 OFFCURVE",
"558 1289 CURVE",
"645 1289 LINE",
"650 1324 OFFCURVE",
"653 1353 OFFCURVE",
"653 1376 CURVE SMOOTH",
"653 1480 OFFCURVE",
"587 1564 OFFCURVE",
"437 1564 CURVE SMOOTH",
"250 1564 OFFCURVE",
"198 1435 OFFCURVE",
"198 1152 CURVE SMOOTH",
"198 0 LINE",
"400 0 LINE"
);
},
{
closed = 1;
nodes = (
"586 874 LINE",
"586 914 LINE",
"24 914 LINE",
"24 874 LINE"
);
}
);
width = 578;
},
{
layerId = "16E03120-9D89-4B3A-B1E3-633A6E865927";
width = 600;
},
{
layerId = "1A84AFAC-8532-492C-A52A-D2ACD869B7F8";
width = 600;
}
);
leftKerningGroup = f;
note = f;
rightKerningGroup = f;
unicode = 0066;
},
{
glyphname = g;
lastChange = "2019-10-14 18:43:13 +0000";
layers = (
{
anchors = (
{
name = bottom;
position = "{571, -526}";
},
{
name = top;
position = "{571, 914}";
}
);
background = {
paths = (
{
closed = 1;
nodes = (
"238 92 LINE SMOOTH",
"148 92 OFFCURVE",
"118 110 OFFCURVE",
"118 166 CURVE SMOOTH",
"118 242 OFFCURVE",
"178 282 OFFCURVE",
"294 280 CURVE",
"368 252 OFFCURVE",
"392 246 OFFCURVE",
"436 246 CURVE SMOOTH",
"598 246 OFFCURVE",
"750 380 OFFCURVE",
"750 526 CURVE SMOOTH",
"750 588 OFFCURVE",
"726 648 OFFCURVE",
"678 712 CURVE",
"702 748 OFFCURVE",
"720 760 OFFCURVE",
"774 778 CURVE",
"758 756 OFFCURVE",
"754 746 OFFCURVE",
"754 730 CURVE SMOOTH",
"754 688 OFFCURVE",
"786 656 OFFCURVE",
"828 656 CURVE SMOOTH",
"868 656 OFFCURVE",
"898 686 OFFCURVE",
"898 728 CURVE SMOOTH",
"898 776 OFFCURVE",
"858 812 OFFCURVE",
"806 812 CURVE SMOOTH",
"748 812 OFFCURVE",
"694 784 OFFCURVE",
"656 736 CURVE",
"582 796 OFFCURVE",
"528 818 OFFCURVE",
"446 818 CURVE SMOOTH",
"272 818 OFFCURVE",
"120 682 OFFCURVE",
"120 526 CURVE SMOOTH",
"120 436 OFFCURVE",
"166 362 OFFCURVE",
"258 304 CURVE",
"136 300 OFFCURVE",
"76 238 OFFCURVE",
"76 118 CURVE SMOOTH",
"76 4 OFFCURVE",
"128 -60 OFFCURVE",
"224 -68 CURVE",
"106 -122 OFFCURVE",
"40 -202 OFFCURVE",
"40 -294 CURVE SMOOTH",
"40 -436 OFFCURVE",
"192 -538 OFFCURVE",
"400 -538 CURVE SMOOTH",
"656 -538 OFFCURVE",
"844 -370 OFFCURVE",
"844 -142 CURVE SMOOTH",
"844 -70 OFFCURVE",
"818 6 OFFCURVE",
"778 46 CURVE SMOOTH",
"746 78 OFFCURVE",
"700 92 OFFCURVE",
"628 92 CURVE SMOOTH"
);
},
{
closed = 1;
nodes = (
"494 788 OFFCURVE",
"548 766 OFFCURVE",
"566 738 CURVE SMOOTH",
"584 710 OFFCURVE",
"596 634 OFFCURVE",
"596 544 CURVE SMOOTH",
"596 340 OFFCURVE",
"558 276 OFFCURVE",
"434 276 CURVE SMOOTH",
"318 276 OFFCURVE",
"280 338 OFFCURVE",
"280 528 CURVE SMOOTH",
"280 710 OFFCURVE",
"328 788 OFFCURVE",
"444 788 CURVE SMOOTH"
);
},
{
closed = 1;
nodes = (
"636 -68 LINE SMOOTH",
"738 -68 OFFCURVE",
"796 -116 OFFCURVE",
"796 -196 CURVE SMOOTH",
"796 -270 OFFCURVE",
"754 -348 OFFCURVE",
"684 -410 CURVE SMOOTH",
"612 -472 OFFCURVE",
"524 -502 OFFCURVE",
"416 -502 CURVE SMOOTH",
"248 -502 OFFCURVE",
"132 -412 OFFCURVE",
"132 -278 CURVE SMOOTH",
"132 -170 OFFCURVE",
"190 -96 OFFCURVE",
"300 -68 CURVE"
);
}
);
};
layerId = "EA94BB3F-1054-4F03-AAB6-69C3B81B3CC3";
paths = (
{
closed = 1;
nodes = (
"128 -442 OFFCURVE",
"279 -556 OFFCURVE",
"506 -556 CURVE SMOOTH",
"817 -556 OFFCURVE",
"1010 -342 OFFCURVE",
"1010 86 CURVE SMOOTH",
"1010 914 LINE",
"808 914 LINE",
"808 640 LINE",
"830 671 LINE",
"783 834 OFFCURVE",
"675 940 OFFCURVE",
"492 940 CURVE SMOOTH",
"236 940 OFFCURVE",
"80 731 OFFCURVE",
"80 445 CURVE SMOOTH",
"80 154 OFFCURVE",
"240 -46 OFFCURVE",
"498 -46 CURVE SMOOTH",
"691 -46 OFFCURVE",
"788 65 OFFCURVE",
"833 212 CURVE",
"812 248 LINE",
"812 20 LINE SMOOTH",
"812 -370 OFFCURVE",
"644 -514 OFFCURVE",
"481 -514 CURVE SMOOTH",
"326 -514 OFFCURVE",
"184 -384 OFFCURVE",
"170 -214 CURVE",
"80 -214 LINE"
);
},
{
closed = 1;
nodes = (
"286 691 OFFCURVE",
"343 898 OFFCURVE",
"524 898 CURVE SMOOTH",
"718 898 OFFCURVE",
"822 658 OFFCURVE",
"822 442 CURVE SMOOTH",
"822 234 OFFCURVE",
"726 -4 OFFCURVE",
"529 -4 CURVE SMOOTH",
"326 -4 OFFCURVE",
"286 248 OFFCURVE",
"286 450 CURVE SMOOTH"
);
}
);
width = 1142;
},
{
layerId = "16E03120-9D89-4B3A-B1E3-633A6E865927";
width = 600;
},
{
layerId = "1A84AFAC-8532-492C-A52A-D2ACD869B7F8";
width = 600;
}
);
leftKerningGroup = g;
note = g;
rightKerningGroup = g;
unicode = 0067;
},
{
glyphname = h;
lastChange = "2019-10-14 19:01:03 +0000";
layers = (
{
anchors = (
{
name = bottom;
position = "{561, 0}";
},
{
name = center;
position = "{238, 1261}";
},
{
name = top;
position = "{561, 1514}";
}
);
background = {
paths = (
{
closed = 1;
nodes = (
"386 1622 LINE",
"358 1568 OFFCURVE",
"326 1554 OFFCURVE",
"242 1554 CURVE SMOOTH",
"20 1554 LINE",
"20 1516 LINE",
"198 1516 LINE",
"198 40 LINE",
"20 40 LINE",
"20 0 LINE",
"560 0 LINE",
"560 40 LINE",
"386 40 LINE",
"386 632 LINE",
"448 792 OFFCURVE",
"586 898 OFFCURVE",
"730 898 CURVE SMOOTH",
"824 898 OFFCURVE",
"892 832 OFFCURVE",
"892 736 CURVE SMOOTH",
"892 40 LINE",
"708 40 LINE",
"708 0 LINE",
"1258 0 LINE",
"1258 40 LINE",
"1080 40 LINE",
"1080 594 LINE SMOOTH",
"1080 746 OFFCURVE",
"1068 794 OFFCURVE",
"1026 840 CURVE SMOOTH",
"962 904 OFFCURVE",
"872 936 OFFCURVE",
"762 936 CURVE SMOOTH",
"594 936 OFFCURVE",
"476 866 OFFCURVE",
"386 716 CURVE"
);
}
);
};
layerId = "EA94BB3F-1054-4F03-AAB6-69C3B81B3CC3";
paths = (
{
closed = 1;
nodes = (
"312 0 LINE",
"312 462 LINE SMOOTH",
"312 794 OFFCURVE",
"494 898 OFFCURVE",
"612 898 CURVE SMOOTH",
"772 898 OFFCURVE",
"776 708 OFFCURVE",
"776 526 CURVE SMOOTH",
"776 0 LINE",
"978 0 LINE",
"978 608 LINE SMOOTH",
"978 808 OFFCURVE",
"846 940 OFFCURVE",
"637 940 CURVE SMOOTH",
"451 940 OFFCURVE",
"339 836 OFFCURVE",
"286 681 CURVE",
"310 647 LINE",
"310 1514 LINE",
"108 1514 LINE",
"108 0 LINE"
);
}
);
width = 1118;
},
{
layerId = "1A84AFAC-8532-492C-A52A-D2ACD869B7F8";
width = 600;
},
{
layerId = "16E03120-9D89-4B3A-B1E3-633A6E865927";
width = 600;
}
);
leftKerningGroup = h;
note = h;
rightKerningGroup = n;
unicode = 0068;
},
{
glyphname = i;
lastChange = "2019-10-14 19:01:03 +0000";
layers = (
{
background = {
paths = (
{
closed = 1;
nodes = (
"342 0 LINE",
"342 914 LINE",
"140 914 LINE",
"140 0 LINE"
);
},
{
closed = 1;
nodes = (
"300 1212 OFFCURVE",
"352 1260 OFFCURVE",
"352 1322 CURVE SMOOTH",
"352 1382 OFFCURVE",
"302 1436 OFFCURVE",
"240 1436 CURVE SMOOTH",
"180 1436 OFFCURVE",
"128 1386 OFFCURVE",
"128 1324 CURVE SMOOTH",
"128 1264 OFFCURVE",
"178 1212 OFFCURVE",
"240 1212 CURVE SMOOTH"
);
}
);
};
components = (
{
name = idotless;
},
{
name = dotaccentcomb;
transform = "{1, 0, 0, 1, -80, 0}";
}
);
layerId = "EA94BB3F-1054-4F03-AAB6-69C3B81B3CC3";
width = 484;
},
{
layerId = "1A84AFAC-8532-492C-A52A-D2ACD869B7F8";
width = 600;
},
{
layerId = "16E03120-9D89-4B3A-B1E3-633A6E865927";
width = 600;
}
);
leftKerningGroup = i;
note = i;
rightKerningGroup = i;
unicode = 0069;
},
{
glyphname = idotless;
lastChange = "2019-10-14 19:01:03 +0000";
layers = (
{
anchors = (
{
name = bottom;
position = "{242, 0}";
},
{
name = ogonek;
position = "{426, 20}";
},
{
name = top;
position = "{242, 914}";
}
);
background = {
paths = (
{
closed = 1;
nodes = (
"194 740 LINE",
"194 34 LINE",
"40 34 LINE",
"40 0 LINE",
"510 0 LINE",
"510 34 LINE",
"356 34 LINE",
"356 834 LINE",
"330 786 OFFCURVE",
"306 774 OFFCURVE",
"232 774 CURVE SMOOTH",
"42 774 LINE",
"42 740 LINE"
);
}
);
};
layerId = "EA94BB3F-1054-4F03-AAB6-69C3B81B3CC3";
paths = (
{
closed = 1;
nodes = (
"342 0 LINE",
"342 914 LINE",
"140 914 LINE",
"140 0 LINE"
);
}
);
width = 484;
},
{
layerId = "1A84AFAC-8532-492C-A52A-D2ACD869B7F8";
width = 600;
},
{
layerId = "16E03120-9D89-4B3A-B1E3-633A6E865927";
width = 600;
}
);
leftKerningGroup = idotless;
note = dotlessi;
rightKerningGroup = idotless;
unicode = 0131;
},
{
glyphname = j;
lastChange = "2019-10-14 19:01:03 +0000";
layers = (
{
background = {
paths = (
{
closed = 1;
nodes = (
"18 854 LINE",
"208 854 LINE",
"208 -120 LINE SMOOTH",
"208 -212 OFFCURVE",
"210 -226 OFFCURVE",
"254 -304 CURVE SMOOTH",
"270 -334 LINE SMOOTH",
"298 -388 OFFCURVE",
"310 -420 OFFCURVE",
"310 -446 CURVE SMOOTH",
"310 -488 OFFCURVE",
"294 -520 OFFCURVE",
"254 -550 CURVE",
"256 -534 LINE",
"258 -520 LINE",
"258 -476 OFFCURVE",
"212 -430 OFFCURVE",
"170 -430 CURVE SMOOTH",
"122 -430 OFFCURVE",
"84 -468 OFFCURVE",
"84 -512 CURVE SMOOTH",
"84 -564 OFFCURVE",
"132 -612 OFFCURVE",
"182 -612 CURVE SMOOTH",
"236 -612 OFFCURVE",
"300 -572 OFFCURVE",
"342 -516 CURVE SMOOTH",
"384 -456 OFFCURVE",
"396 -372 OFFCURVE",
"396 -122 CURVE SMOOTH",
"396 948 LINE",
"364 906 OFFCURVE",
"332 894 OFFCURVE",
"250 894 CURVE SMOOTH",
"18 894 LINE"
);
},
{
closed = 1;
nodes = (
"244 1574 OFFCURVE",
"194 1524 OFFCURVE",
"194 1464 CURVE SMOOTH",
"194 1404 OFFCURVE",
"242 1354 OFFCURVE",
"304 1354 CURVE SMOOTH",
"364 1354 OFFCURVE",
"414 1402 OFFCURVE",
"414 1464 CURVE SMOOTH",
"414 1522 OFFCURVE",
"364 1574 OFFCURVE",
"304 1574 CURVE SMOOTH"
);
}
);
};
components = (
{
name = jdotless;
},
{
name = dotaccentcomb;
transform = "{1, 0, 0, 1, -33, 0}";
}
);
layerId = "EA94BB3F-1054-4F03-AAB6-69C3B81B3CC3";
width = 578;
},
{
layerId = "1A84AFAC-8532-492C-A52A-D2ACD869B7F8";
width = 600;
},
{
layerId = "16E03120-9D89-4B3A-B1E3-633A6E865927";
width = 600;
}
);
leftKerningGroup = j;
note = j;
rightKerningGroup = j;
unicode = 006A;
},
{
color = 0;
glyphname = jdotless;
lastChange = "2019-10-14 19:01:03 +0000";
layers = (
{
anchors = (
{
name = bottom;
position = "{289, -526}";
},
{
name = top;
position = "{289, 914}";
}
);
background = {
paths = (
{
closed = 1;
nodes = (
"76 -556 LINE",
"234 -556 OFFCURVE",
"298 -414 OFFCURVE",
"298 -272 CURVE SMOOTH",
"298 914 LINE",
"96 914 LINE",
"96 312 LINE SMOOTH",
"96 162 OFFCURVE",
"140 -168 OFFCURVE",
"162 -342 CURVE SMOOTH",
"170 -404 OFFCURVE",
"176 -446 OFFCURVE",
"176 -452 CURVE SMOOTH",
"176 -492 OFFCURVE",
"158 -526 OFFCURVE",
"86 -526 CURVE"
);
}
);
};
layerId = "EA94BB3F-1054-4F03-AAB6-69C3B81B3CC3";
paths = (
{
closed = 1;
nodes = (
"176 -138 LINE SMOOTH",
"176 -252 OFFCURVE",
"176 -467 OFFCURVE",
"128 -506 CURVE",
"63 -504 OFFCURVE",
"5 -470 OFFCURVE",
"5 -385 CURVE SMOOTH",
"5 -355 OFFCURVE",
"12 -306 OFFCURVE",
"20 -275 CURVE",
"-67 -275 LINE",
"-72 -310 OFFCURVE",
"-75 -339 OFFCURVE",
"-75 -362 CURVE SMOOTH",
"-75 -466 OFFCURVE",
"-9 -550 OFFCURVE",
"141 -550 CURVE SMOOTH",
"328 -550 OFFCURVE",
"378 -421 OFFCURVE",
"378 -138 CURVE SMOOTH",
"378 914 LINE",
"176 914 LINE"
);
}
);
width = 578;
},
{
layerId = "1A84AFAC-8532-492C-A52A-D2ACD869B7F8";
width = 600;
},
{
layerId = "16E03120-9D89-4B3A-B1E3-633A6E865927";
width = 600;
}
);
leftKerningGroup = jdotless;
rightKerningGroup = jdotless;
unicode = 0237;
},
{
glyphname = k;
lastChange = "2019-10-14 19:01:03 +0000";
layers = (
{
anchors = (
{
name = bottom;
position = "{534, 0}";
},
{
name = top;
position = "{494, 914}";
}
);
background = {
paths = (
{
closed = 1;
nodes = (
"194 1516 LINE",
"194 40 LINE",
"16 40 LINE",
"16 0 LINE",
"532 0 LINE",
"532 40 LINE",
"362 40 LINE",
"362 334 LINE",
"442 412 LINE",
"724 40 LINE",
"570 40 LINE",
"570 0 LINE",
"1150 0 LINE",
"1150 40 LINE",
"960 40 LINE",
"570 546 LINE",
"756 726 LINE SMOOTH",
"876 844 OFFCURVE",
"894 854 OFFCURVE",
"978 854 CURVE SMOOTH",
"1068 854 LINE",
"1068 894 LINE",
"592 894 LINE",
"592 854 LINE",
"700 854 LINE SMOOTH",
"746 854 OFFCURVE",
"772 848 OFFCURVE",
"772 832 CURVE SMOOTH",
"772 816 OFFCURVE",
"728 756 OFFCURVE",
"680 706 CURVE SMOOTH",
"362 392 LINE",
"362 1628 LINE",
"332 1570 OFFCURVE",
"304 1554 OFFCURVE",
"220 1554 CURVE SMOOTH",
"16 1554 LINE",
"16 1516 LINE"
);
}
);
};
layerId = "EA94BB3F-1054-4F03-AAB6-69C3B81B3CC3";
paths = (
{
closed = 1;
nodes = (
"942 0 LINE",
"509 557 LINE",
"462 470 LINE",
"842 914 LINE",
"772 914 LINE",
"370 444 LINE",
"728 0 LINE"
);
},
{
closed = 1;
nodes = (
"372 0 LINE",
"372 1514 LINE",
"170 1514 LINE",
"170 0 LINE"
);
}
);
width = 986;
},
{
layerId = "1A84AFAC-8532-492C-A52A-D2ACD869B7F8";
width = 600;
},
{
layerId = "16E03120-9D89-4B3A-B1E3-633A6E865927";
width = 600;
}
);
leftKerningGroup = h;
note = k;
rightKerningGroup = k;
unicode = 006B;
},
{
glyphname = l;
lastChange = "2019-10-14 19:01:03 +0000";
layers = (
{
anchors = (
{
name = bottom;
position = "{242, 0}";
},
{
name = center;
position = "{242, 458}";
},
{
name = top;
position = "{242, 914}";
},
{
name = topright;
position = "{412, 1514}";
}
);
background = {
paths = (
{
closed = 1;
nodes = (
"168 1312 LINE",
"168 34 LINE",
"14 34 LINE",
"14 0 LINE",
"484 0 LINE",
"484 34 LINE",
"332 34 LINE",
"332 1406 LINE",
"308 1358 OFFCURVE",
"282 1346 OFFCURVE",
"206 1346 CURVE SMOOTH",
"14 1346 LINE",
"14 1312 LINE"
);
}
);
};
layerId = "EA94BB3F-1054-4F03-AAB6-69C3B81B3CC3";
paths = (
{
closed = 1;
nodes = (
"346 0 LINE",
"346 1514 LINE",
"144 1514 LINE",
"144 0 LINE"
);
}
);
width = 484;
},
{
layerId = "1A84AFAC-8532-492C-A52A-D2ACD869B7F8";
width = 600;
},
{
layerId = "16E03120-9D89-4B3A-B1E3-633A6E865927";
width = 600;
}
);
leftKerningGroup = h;
note = l;
rightKerningGroup = l;
unicode = 006C;
},
{
glyphname = lslash;
lastChange = "2019-10-14 19:01:03 +0000";
layers = (
{
anchors = (
{
name = bottom;
position = "{242, 0}";
},
{
name = center;
position = "{242, 458}";
},
{
name = top;
position = "{242, 914}";
},
{
name = topright;
position = "{412, 1514}";
}
);
layerId = "EA94BB3F-1054-4F03-AAB6-69C3B81B3CC3";
paths = (
{
closed = 1;
nodes = (
"346 0 LINE",
"346 1514 LINE",
"144 1514 LINE",
"144 0 LINE"
);
},
{
closed = 1;
nodes = (
"568 886 LINE",
"550 916 LINE",
"-84 534 LINE",
"-66 504 LINE"
);
}
);
width = 484;
},
{
layerId = "1A84AFAC-8532-492C-A52A-D2ACD869B7F8";
width = 600;
},
{
layerId = "16E03120-9D89-4B3A-B1E3-633A6E865927";
width = 600;
}
);
leftKerningGroup = lslash;
rightKerningGroup = lslash;
unicode = 0142;
},
{
glyphname = m;
lastChange = "2019-10-14 19:01:03 +0000";
layers = (
{
background = {
paths = (
{
closed = 1;
nodes = (
"404 956 LINE",
"382 910 OFFCURVE",
"344 894 OFFCURVE",
"262 894 CURVE SMOOTH",
"40 894 LINE",
"40 854 LINE",
"218 854 LINE",
"218 40 LINE",
"40 40 LINE",
"40 0 LINE",
"578 0 LINE",
"578 40 LINE",
"404 40 LINE",
"404 630 LINE",
"448 788 OFFCURVE",
"584 904 OFFCURVE",
"726 904 CURVE SMOOTH",
"814 904 OFFCURVE",
"866 846 OFFCURVE",
"866 750 CURVE SMOOTH",
"866 40 LINE",
"684 40 LINE",
"684 0 LINE",
"1228 0 LINE",
"1228 40 LINE",
"1054 40 LINE",
"1054 592 LINE SMOOTH",
"1054 630 OFFCURVE",
"1082 702 OFFCURVE",
"1118 756 CURVE SMOOTH",
"1180 846 OFFCURVE",
"1268 896 OFFCURVE",
"1358 896 CURVE SMOOTH",
"1460 896 OFFCURVE",
"1514 834 OFFCURVE",
"1514 716 CURVE SMOOTH",
"1514 40 LINE",
"1336 40 LINE",
"1336 0 LINE",
"1882 0 LINE",
"1882 40 LINE",
"1704 40 LINE",
"1704 590 LINE SMOOTH",
"1704 740 OFFCURVE",
"1694 786 OFFCURVE",
"1642 844 CURVE SMOOTH",
"1590 904 OFFCURVE",
"1502 938 OFFCURVE",
"1400 938 CURVE SMOOTH",
"1238 938 OFFCURVE",
"1106 846 OFFCURVE",
"1054 694 CURVE",
"1044 772 OFFCURVE",
"1034 800 OFFCURVE",
"1000 840 CURVE",
"950 908 OFFCURVE",
"868 940 OFFCURVE",
"758 940 CURVE SMOOTH",
"594 940 OFFCURVE",
"448 844 OFFCURVE",
"404 706 CURVE"
);
}
);
};
layerId = "EA94BB3F-1054-4F03-AAB6-69C3B81B3CC3";
paths = (
{
closed = 1;
nodes = (
"304 0 LINE",
"304 462 LINE SMOOTH",
"304 646 OFFCURVE",
"382 898 OFFCURVE",
"556 898 CURVE SMOOTH",
"708 898 OFFCURVE",
"752 708 OFFCURVE",
"752 526 CURVE SMOOTH",
"752 0 LINE",
"954 0 LINE",
"954 462 LINE SMOOTH",
"954 658 OFFCURVE",
"1006 884 OFFCURVE",
"1178 884 CURVE SMOOTH",
"1330 884 OFFCURVE",
"1358 708 OFFCURVE",
"1358 526 CURVE SMOOTH",
"1358 0 LINE",
"1560 0 LINE",
"1560 608 LINE SMOOTH",
"1560 808 OFFCURVE",
"1434 940 OFFCURVE",
"1235 940 CURVE SMOOTH",
"1063 940 OFFCURVE",
"966 841 OFFCURVE",
"880 683 CURVE",
"937 684 LINE",
"897 835 OFFCURVE",
"783 940 OFFCURVE",
"616 940 CURVE SMOOTH",
"458 940 OFFCURVE",
"348 845 OFFCURVE",
"272 697 CURVE",
"306 663 LINE",
"306 914 LINE",
"102 914 LINE",
"102 0 LINE"
);
}
);
width = 1640;
},
{
layerId = "1A84AFAC-8532-492C-A52A-D2ACD869B7F8";
width = 600;
},
{
layerId = "16E03120-9D89-4B3A-B1E3-633A6E865927";
width = 600;
}
);
leftKerningGroup = n;
note = m;
rightKerningGroup = n;
unicode = 006D;
},
{
glyphname = n;
lastChange = "2019-10-14 19:01:03 +0000";
layers = (
{
anchors = (
{
name = bottom;
position = "{592, 0}";
},
{
name = top;
position = "{654, 914}";
}
);
layerId = "EA94BB3F-1054-4F03-AAB6-69C3B81B3CC3";
paths = (
{
closed = 1;
nodes = (
"347 0 LINE",
"347 462 LINE SMOOTH",
"347 708 OFFCURVE",
"472 894 OFFCURVE",
"637 894 CURVE SMOOTH",
"752 894 OFFCURVE",
"801 788 OFFCURVE",
"801 536 CURVE SMOOTH",
"801 0 LINE",
"1003 0 LINE",
"1003 598 LINE SMOOTH",
"1003 809 OFFCURVE",
"875 940 OFFCURVE",
"667 940 CURVE SMOOTH",
"498 940 OFFCURVE",
"378 848 OFFCURVE",
"321 676 CURVE",
"345 647 LINE",
"347 914 LINE",
"145 914 LINE",
"145 0 LINE"
);
}
);
width = 1114;
},
{
layerId = "1A84AFAC-8532-492C-A52A-D2ACD869B7F8";
width = 600;
},
{
layerId = "16E03120-9D89-4B3A-B1E3-633A6E865927";
width = 600;
}
);
leftKerningGroup = n;
note = n;
rightKerningGroup = n;
unicode = 006E;
},
{
color = 0;
glyphname = eng;
lastChange = "2019-10-14 19:01:03 +0000";
layers = (
{
anchors = (
{
name = bottom;
position = "{328, -526}";
},
{
name = top;
position = "{671, 914}";
}
);
background = {
paths = (
{
closed = 1;
nodes = (
"347 0 LINE",
"347 462 LINE SMOOTH",
"347 794 OFFCURVE",
"529 898 OFFCURVE",
"647 898 CURVE SMOOTH",
"807 898 OFFCURVE",
"811 708 OFFCURVE",
"811 526 CURVE SMOOTH",
"811 392 LINE",
"811 -182 LINE",
"819 -244 OFFCURVE",
"825 -286 OFFCURVE",
"825 -292 CURVE SMOOTH",
"825 -332 OFFCURVE",
"807 -366 OFFCURVE",
"735 -366 CURVE SMOOTH",
"661 -366 OFFCURVE",
"609 -332 OFFCURVE",
"609 -300 CURVE SMOOTH",
"609 -284 OFFCURVE",
"623 -268 OFFCURVE",
"639 -252 CURVE SMOOTH",
"659 -232 OFFCURVE",
"681 -210 OFFCURVE",
"681 -178 CURVE SMOOTH",
"681 -128 OFFCURVE",
"629 -98 OFFCURVE",
"591 -98 CURVE SMOOTH",
"517 -98 OFFCURVE",
"507 -210 OFFCURVE",
"507 -286 CURVE",
"553 -346 OFFCURVE",
"631 -396 OFFCURVE",
"725 -396 CURVE SMOOTH",
"883 -396 OFFCURVE",
"947 -254 OFFCURVE",
"947 -112 CURVE SMOOTH",
"947 -78 OFFCURVE",
"1005 -22 OFFCURVE",
"1013 44 CURVE",
"1013 608 LINE",
"1013 808 OFFCURVE",
"881 940 OFFCURVE",
"671 940 CURVE SMOOTH",
"511 940 OFFCURVE",
"405 862 OFFCURVE",
"345 740 CURVE",
"345 914 LINE",
"145 914 LINE",
"145 0 LINE"
);
}
);
};
layerId = "EA94BB3F-1054-4F03-AAB6-69C3B81B3CC3";
paths = (
{
closed = 1;
nodes = (
"347 0 LINE",
"347 462 LINE SMOOTH",
"347 794 OFFCURVE",
"529 898 OFFCURVE",
"647 898 CURVE SMOOTH",
"807 898 OFFCURVE",
"811 708 OFFCURVE",
"811 526 CURVE SMOOTH",
"811 -38 LINE SMOOTH",
"811 -152 OFFCURVE",
"811 -367 OFFCURVE",
"763 -406 CURVE",
"698 -404 OFFCURVE",
"640 -370 OFFCURVE",
"640 -285 CURVE SMOOTH",
"640 -255 OFFCURVE",
"647 -206 OFFCURVE",
"655 -175 CURVE",
"568 -175 LINE",
"563 -210 OFFCURVE",
"560 -239 OFFCURVE",
"560 -262 CURVE SMOOTH",
"560 -366 OFFCURVE",
"626 -450 OFFCURVE",
"776 -450 CURVE SMOOTH",
"963 -450 OFFCURVE",
"1013 -321 OFFCURVE",
"1013 -38 CURVE SMOOTH",
"1013 608 LINE SMOOTH",
"1013 808 OFFCURVE",
"881 940 OFFCURVE",
"671 940 CURVE SMOOTH",
"511 940 OFFCURVE",
"405 862 OFFCURVE",
"345 740 CURVE",
"345 914 LINE",
"145 914 LINE",
"145 0 LINE"
);
}
);
width = 1124;
},
{
layerId = "1A84AFAC-8532-492C-A52A-D2ACD869B7F8";
width = 600;
},
{
layerId = "16E03120-9D89-4B3A-B1E3-633A6E865927";
width = 600;
}
);
leftKerningGroup = n;
leftMetricsKey = n;
rightKerningGroup = j;
rightMetricsKey = n;
unicode = 014B;
},
{
glyphname = o;
lastChange = "2019-10-14 19:28:10 +0000";
layers = (
{
anchors = (
{
name = bottom;
position = "{535, 0}";
},
{
name = center;
position = "{535, 457}";
},
{
name = ogonek;
position = "{953, 10}";
},
{
name = top;
position = "{535, 914}";
},
{
name = topright;
position = "{1037, 914}";
}
);
background = {
paths = (
{
closed = 1;
nodes = (
"305 816 OFFCURVE",
"83 606 OFFCURVE",
"83 394 CURVE SMOOTH",
"83 178 OFFCURVE",
"295 -24 OFFCURVE",
"523 -24 CURVE SMOOTH",
"749 -24 OFFCURVE",
"951 176 OFFCURVE",
"951 400 CURVE SMOOTH",
"951 520 OFFCURVE",
"899 626 OFFCURVE",
"795 712 CURVE SMOOTH",
"713 780 OFFCURVE",
"621 816 OFFCURVE",
"533 816 CURVE SMOOTH"
);
},
{
closed = 1;
nodes = (
"767 254 LINE SMOOTH",
"767 168 OFFCURVE",
"755 114 OFFCURVE",
"727 76 CURVE SMOOTH",
"693 32 OFFCURVE",
"617 4 OFFCURVE",
"529 4 CURVE SMOOTH",
"449 4 OFFCURVE",
"367 28 OFFCURVE",
"333 58 CURVE",
"289 100 OFFCURVE",
"269 162 OFFCURVE",
"269 258 CURVE SMOOTH",
"269 536 LINE SMOOTH",
"269 708 OFFCURVE",
"351 788 OFFCURVE",
"527 788 CURVE SMOOTH",
"607 788 OFFCURVE",
"675 764 OFFCURVE",
"717 722 CURVE SMOOTH",
"759 682 OFFCURVE",
"767 648 OFFCURVE",
"767 532 CURVE SMOOTH"
);
}
);
};
layerId = "EA94BB3F-1054-4F03-AAB6-69C3B81B3CC3";
paths = (
{
closed = 1;
nodes = (
"807 -46 OFFCURVE",
"991 150 OFFCURVE",
"991 444 CURVE SMOOTH",
"991 742 OFFCURVE",
"807 940 OFFCURVE",
"529 940 CURVE SMOOTH",
"251 940 OFFCURVE",
"66 742 OFFCURVE",
"66 444 CURVE SMOOTH",
"66 150 OFFCURVE",
"251 -46 OFFCURVE",
"529 -46 CURVE SMOOTH"
);
},
{
closed = 1;
nodes = (
"352 -4 OFFCURVE",
"274 256 OFFCURVE",
"274 444 CURVE SMOOTH",
"274 632 OFFCURVE",
"352 898 OFFCURVE",
"529 898 CURVE SMOOTH",
"706 898 OFFCURVE",
"786 632 OFFCURVE",
"786 444 CURVE SMOOTH",
"786 256 OFFCURVE",
"706 -4 OFFCURVE",
"529 -4 CURVE SMOOTH"
);
}
);
width = 1057;
},
{
anchors = (
{
name = bottom;
position = "{634, 0}";
},
{
name = center;
position = "{634, 457}";
},
{
name = ogonek;
position = "{1052, 10}";
},
{
name = top;
position = "{634, 914}";
},
{
name = topright;
position = "{1136, 914}";
}
);
layerId = "16E03120-9D89-4B3A-B1E3-633A6E865927";
paths = (
{
closed = 1;
nodes = (
"943 -61 OFFCURVE",
"1155 140 OFFCURVE",
"1155 444 CURVE SMOOTH",
"1155 752 OFFCURVE",
"944 955 OFFCURVE",
"628 955 CURVE SMOOTH",
"312 955 OFFCURVE",
"100 751 OFFCURVE",
"100 444 CURVE SMOOTH",
"100 141 OFFCURVE",
"313 -61 OFFCURVE",
"628 -61 CURVE SMOOTH"
);
},
{
closed = 1;
nodes = (
"534 11 OFFCURVE",
"438 222 OFFCURVE",
"438 444 CURVE SMOOTH",
"438 668 OFFCURVE",
"535 883 OFFCURVE",
"628 883 CURVE SMOOTH",
"721 883 OFFCURVE",
"820 666 OFFCURVE",
"820 444 CURVE SMOOTH",
"820 223 OFFCURVE",
"722 11 OFFCURVE",
"628 11 CURVE SMOOTH"
);
}
);
width = 1255;
},
{
anchors = (
{
name = bottom;
position = "{440, 0}";
},
{
name = center;
position = "{440, 457}";
},
{
name = ogonek;
position = "{862, 10}";
},
{
name = top;
position = "{440, 914}";
},
{
name = topright;
position = "{948, 914}";
}
);
layerId = "1A84AFAC-8532-492C-A52A-D2ACD869B7F8";
paths = (
{
closed = 1;
nodes = (
"194 -24 OFFCURVE",
"45 166 OFFCURVE",
"45 444 CURVE SMOOTH",
"45 722 OFFCURVE",
"194 938 OFFCURVE",
"440 938 CURVE SMOOTH",
"686 938 OFFCURVE",
"837 721 OFFCURVE",
"837 444 CURVE SMOOTH",
"837 167 OFFCURVE",
"686 -24 OFFCURVE",
"440 -24 CURVE SMOOTH"
);
},
{
closed = 1;
nodes = (
"642 4 OFFCURVE",
"802 153 OFFCURVE",
"802 444 CURVE SMOOTH",
"802 736 OFFCURVE",
"649 910 OFFCURVE",
"440 910 CURVE SMOOTH",
"237 910 OFFCURVE",
"77 747 OFFCURVE",
"77 454 CURVE SMOOTH",
"77 164 OFFCURVE",
"230 4 OFFCURVE",
"440 4 CURVE SMOOTH"
);
}
);
width = 882;
}
);
leftKerningGroup = o;
note = o;
rightKerningGroup = o;
unicode = 006F;
},
{
glyphname = oslash;
lastChange = "2019-10-14 19:01:03 +0000";
layers = (
{
anchors = (
{
name = top;
position = "{522, 914}";
}
);
background = {
paths = (
{
closed = 1;
nodes = (
"802 820 LINE",
"774 838 LINE",
"710 750 LINE",
"622 796 OFFCURVE",
"572 810 OFFCURVE",
"496 810 CURVE SMOOTH",
"268 810 OFFCURVE",
"60 608 OFFCURVE",
"60 388 CURVE SMOOTH",
"60 260 OFFCURVE",
"126 138 OFFCURVE",
"240 60 CURVE",
"172 -40 LINE",
"200 -62 LINE",
"268 40 LINE",
"342 -4 OFFCURVE",
"414 -24 OFFCURVE",
"492 -24 CURVE SMOOTH",
"718 -24 OFFCURVE",
"918 172 OFFCURVE",
"918 392 CURVE SMOOTH",
"918 522 OFFCURVE",
"862 626 OFFCURVE",
"740 730 CURVE"
);
},
{
closed = 1;
nodes = (
"704 676 LINE",
"728 628 OFFCURVE",
"736 578 OFFCURVE",
"736 456 CURVE SMOOTH",
"736 322 LINE SMOOTH",
"736 200 OFFCURVE",
"724 134 OFFCURVE",
"698 94 CURVE SMOOTH",
"656 34 OFFCURVE",
"586 2 OFFCURVE",
"496 2 CURVE SMOOTH",
"406 2 OFFCURVE",
"340 26 OFFCURVE",
"294 78 CURVE"
);
},
{
closed = 1;
nodes = (
"272 106 LINE",
"250 152 OFFCURVE",
"240 216 OFFCURVE",
"240 328 CURVE SMOOTH",
"240 458 LINE SMOOTH",
"240 586 OFFCURVE",
"248 636 OFFCURVE",
"278 684 CURVE SMOOTH",
"320 752 OFFCURVE",
"394 788 OFFCURVE",
"494 788 CURVE SMOOTH",
"578 788 OFFCURVE",
"632 764 OFFCURVE",
"682 706 CURVE"
);
}
);
};
components = (
{
name = o;
}
);
layerId = "EA94BB3F-1054-4F03-AAB6-69C3B81B3CC3";
paths = (
{
closed = 1;
nodes = (
"235 -67 LINE",
"855 962 LINE",
"795 962 LINE",
"175 -67 LINE"
);
}
);
width = 1044;
},
{
layerId = "1A84AFAC-8532-492C-A52A-D2ACD869B7F8";
width = 600;
},
{
layerId = "16E03120-9D89-4B3A-B1E3-633A6E865927";
width = 600;
}
);
leftKerningGroup = o;
note = oslash;
rightKerningGroup = o;
unicode = 00F8;
},
{
glyphname = oe;
lastChange = "2019-10-14 19:28:27 +0000";
layers = (
{
background = {
paths = (
{
closed = 1;
nodes = (
"1434 272 LINE",
"1386 100 OFFCURVE",
"1274 6 OFFCURVE",
"1110 6 CURVE SMOOTH",
"950 6 OFFCURVE",
"884 88 OFFCURVE",
"884 292 CURVE SMOOTH",
"884 306 LINE",
"888 462 LINE",
"1390 462 LINE SMOOTH",
"1444 462 OFFCURVE",
"1446 462 OFFCURVE",
"1446 478 CURVE SMOOTH",
"1446 520 OFFCURVE",
"1400 626 OFFCURVE",
"1360 676 CURVE SMOOTH",
"1286 766 OFFCURVE",
"1186 818 OFFCURVE",
"1078 818 CURVE SMOOTH",
"968 818 OFFCURVE",
"876 768 OFFCURVE",
"804 664 CURVE",
"716 768 OFFCURVE",
"610 816 OFFCURVE",
"472 816 CURVE SMOOTH",
"248 816 OFFCURVE",
"60 624 OFFCURVE",
"60 392 CURVE SMOOTH",
"60 288 OFFCURVE",
"96 196 OFFCURVE",
"170 114 CURVE SMOOTH",
"254 20 OFFCURVE",
"350 -24 OFFCURVE",
"476 -24 CURVE SMOOTH",
"610 -24 OFFCURVE",
"714 24 OFFCURVE",
"786 118 CURVE",
"880 14 OFFCURVE",
"968 -24 OFFCURVE",
"1108 -24 CURVE SMOOTH",
"1200 -24 OFFCURVE",
"1272 0 OFFCURVE",
"1334 50 CURVE SMOOTH",
"1394 98 OFFCURVE",
"1442 176 OFFCURVE",
"1458 246 CURVE SMOOTH",
"1462 264 LINE"
);
},
{
closed = 1;
nodes = (
"704 292 LINE SMOOTH",
"704 198 OFFCURVE",
"692 130 OFFCURVE",
"666 90 CURVE SMOOTH",
"634 38 OFFCURVE",
"556 4 OFFCURVE",
"468 4 CURVE SMOOTH",
"386 4 OFFCURVE",
"320 32 OFFCURVE",
"286 84 CURVE SMOOTH",
"256 128 OFFCURVE",
"246 180 OFFCURVE",
"246 292 CURVE SMOOTH",
"246 466 LINE SMOOTH",
"246 614 OFFCURVE",
"252 656 OFFCURVE",
"280 702 CURVE SMOOTH",
"314 758 OFFCURVE",
"378 786 OFFCURVE",
"470 786 CURVE SMOOTH",
"556 786 OFFCURVE",
"624 758 OFFCURVE",
"658 710 CURVE SMOOTH",
"690 662 OFFCURVE",
"704 590 OFFCURVE",
"704 460 CURVE SMOOTH"
);
},
{
closed = 1;
nodes = (
"888 494 LINE",
"888 544 LINE SMOOTH",
"888 610 OFFCURVE",
"904 682 OFFCURVE",
"924 720 CURVE",
"950 762 OFFCURVE",
"1008 788 OFFCURVE",
"1074 788 CURVE SMOOTH",
"1206 788 OFFCURVE",
"1254 720 OFFCURVE",
"1254 532 CURVE SMOOTH",
"1254 508 OFFCURVE",
"1254 502 OFFCURVE",
"1252 498 CURVE SMOOTH",
"1250 494 OFFCURVE",
"1250 494 OFFCURVE",
"1192 494 CURVE SMOOTH"
);
}
);
};
components = (
{
alignment = -1;
name = o;
},
{
name = e;
transform = "{1, 0, 0, 1, 768, 0}";
}
);
layerId = "EA94BB3F-1054-4F03-AAB6-69C3B81B3CC3";
width = 1760;
},
{
layerId = "1A84AFAC-8532-492C-A52A-D2ACD869B7F8";
width = 1134;
},
{
layerId = "16E03120-9D89-4B3A-B1E3-633A6E865927";
width = 1208;
}
);
leftKerningGroup = o;
leftMetricsKey = o;
note = oe;
rightKerningGroup = e;
rightMetricsKey = e;
unicode = 0153;
},
{
glyphname = p;
lastChange = "2019-10-14 19:01:03 +0000";
layers = (
{
anchors = (
{
name = bottom;
position = "{568, 0}";
},
{
name = ogonek;
position = "{14, 894}";
},
{
name = top;
position = "{568, 914}";
}
);
background = {
paths = (
{
closed = 1;
nodes = (
"330 154 LINE",
"392 32 OFFCURVE",
"488 -28 OFFCURVE",
"620 -28 CURVE SMOOTH",
"840 -28 OFFCURVE",
"1026 168 OFFCURVE",
"1026 402 CURVE SMOOTH",
"1026 618 OFFCURVE",
"828 816 OFFCURVE",
"610 816 CURVE SMOOTH",
"492 816 OFFCURVE",
"384 754 OFFCURVE",
"330 654 CURVE",
"330 826 LINE",
"310 788 OFFCURVE",
"278 774 OFFCURVE",
"206 774 CURVE SMOOTH",
"14 774 LINE",
"14 740 LINE",
"168 740 LINE",
"168 -472 LINE",
"14 -472 LINE",
"14 -506 LINE",
"482 -506 LINE",
"482 -472 LINE",
"330 -472 LINE"
);
},
{
closed = 1;
nodes = (
"330 524 LINE SMOOTH",
"330 664 OFFCURVE",
"464 786 OFFCURVE",
"616 786 CURVE SMOOTH",
"690 786 OFFCURVE",
"758 758 OFFCURVE",
"792 714 CURVE SMOOTH",
"826 668 OFFCURVE",
"842 590 OFFCURVE",
"842 460 CURVE SMOOTH",
"842 324 LINE SMOOTH",
"842 198 OFFCURVE",
"832 138 OFFCURVE",
"800 88 CURVE SMOOTH",
"766 32 OFFCURVE",
"704 2 OFFCURVE",
"626 2 CURVE SMOOTH",
"464 2 OFFCURVE",
"330 134 OFFCURVE",
"330 294 CURVE SMOOTH"
);
}
);
};
layerId = "EA94BB3F-1054-4F03-AAB6-69C3B81B3CC3";
paths = (
{
closed = 1;
nodes = (
"406 960 OFFCURVE",
"309 833 OFFCURVE",
"268 671 CURVE",
"298 659 LINE",
"298 914 LINE",
"100 914 LINE",
"100 -530 LINE",
"302 -530 LINE",
"302 281 LINE",
"273 271 LINE",
"315 92 OFFCURVE",
"425 -26 OFFCURVE",
"618 -26 CURVE SMOOTH",
"874 -26 OFFCURVE",
"1030 183 OFFCURVE",
"1030 469 CURVE SMOOTH",
"1030 760 OFFCURVE",
"870 960 OFFCURVE",
"612 960 CURVE SMOOTH"
);
},
{
closed = 1;
nodes = (
"784 918 OFFCURVE",
"824 666 OFFCURVE",
"824 464 CURVE SMOOTH",
"824 223 OFFCURVE",
"767 16 OFFCURVE",
"586 16 CURVE SMOOTH",
"392 16 OFFCURVE",
"288 256 OFFCURVE",
"288 472 CURVE SMOOTH",
"288 680 OFFCURVE",
"384 918 OFFCURVE",
"581 918 CURVE SMOOTH"
);
}
);
width = 1110;
},
{
layerId = "1A84AFAC-8532-492C-A52A-D2ACD869B7F8";
width = 600;
},
{
layerId = "16E03120-9D89-4B3A-B1E3-633A6E865927";
width = 600;
}
);
leftKerningGroup = p;
note = p;
rightKerningGroup = o;
unicode = 0070;
},
